<?xml version="1.0" standalone="no"?>
<!DOCTYPE svg PUBLIC "-//W3C//DTD SVG 1.1//EN" "http://www.w3.org/Graphics/SVG/1.1/DTD/svg11.dtd" >
<svg xmlns="http://www.w3.org/2000/svg" xmlns:xlink="http://www.w3.org/1999/xlink" version="1.1">
<metadata>
Created by FontForge 20141231 at Sun Mar 01 19:31:34 2015

served.
</metadata>
<defs>
<font id="CaferusNormal" horiz-adv-x="404" >
  <font-face 
    font-family="Caferus Normal"
    font-weight="400"
    font-stretch="normal"
    units-per-em="1000"
    panose-1="0 0 0 0 0 0 0 0 0 0"
    ascent="750"
    descent="-250"
    x-height="761"
    cap-height="774"
    bbox="-70 -375 833 1024.63"
    underline-thickness="50"
    underline-position="-50"
    unicode-range="U+0020-2212"
  />
<missing-glyph horiz-adv-x="304" 
 />
    <glyph glyph-name=".notdef" horiz-adv-x="304" 
 />
    <glyph glyph-name="C" unicode="C" horiz-adv-x="427" 
d="M257 73c13 19 32 34 43 55c1 3 2 5 3 8c5 13 11 25 14 38c5 18 8 36 12 54c1 8 3 15 4 23c23 10 34 8 50 -7c9 -7 11 -17 9 -26c-3 -26 -7 -52 -17 -77c-5 -15 -10 -30 -16 -45c-1 -2 -2 -4 -3 -5c-4 -5 -9 -10 -11 -15c-6 -15 -16 -25 -31 -32c-5 -2 -8 -6 -11 -12
c-6 -12 -18 -19 -30 -24c-10 -4 -21 -7 -32 -8c-8 0 -17 3 -25 5c-16 4 -31 9 -46 13c-33 11 -61 31 -83 58c-7 8 -13 17 -17 26c-9 21 -20 39 -24 62c-5 24 -10 48 -14 72c-3 22 -1 45 -1 68c0 24 -1 48 1 72c2 42 2 84 13 125c3 10 3 20 4 30c5 28 16 55 25 82
c8 27 23 50 39 72c6 8 10 16 15 24c1 1 1 3 2 4c16 13 31 27 47 38c19 14 42 19 65 21c8 1 17 -4 25 -4c18 -1 34 -6 49 -15c28 -16 54 -36 66 -68c9 -24 14 -51 20 -76c2 -10 4 -21 4 -31c1 -14 1 -28 -1 -41c0 -7 -5 -14 -9 -19c-4 -6 -14 -6 -19 -2c-10 8 -19 18 -29 26
c-6 5 -6 11 -6 17v25s-1 16 -1 24c-1 24 -6 48 -16 70c-4 9 -11 17 -17 25c-4 6 -11 7 -16 2c-7 -5 -16 -9 -18 -19c-17 -10 -22 -29 -30 -45c-7 -15 -11 -31 -17 -46c-4 -12 -9 -23 -12 -35c-2 -7 -2 -14 -3 -20c-1 -4 0 -7 -1 -10c-10 -41 -12 -82 -12 -124
c0 -13 -2 -26 -4 -39c-5 -44 -9 -88 -5 -132c3 -32 9 -63 19 -94c3 -11 14 -20 12 -33c15 -8 14 -31 36 -35z" />
    <glyph glyph-name="D" unicode="D" horiz-adv-x="406" 
d="M21 765c4 3 9 4 11 7c9 12 18 9 28 4c11 -6 21 -4 32 -3c11 0 22 1 33 3c4 0 9 2 14 3c7 -9 18 -8 28 -9c19 0 37 -2 55 -3h2c13 -9 27 -17 40 -25c5 -3 9 -9 14 -12c14 -6 22 -19 31 -30c5 -6 12 -12 17 -18c4 -5 8 -10 11 -15c9 -23 18 -46 25 -69
c13 -39 14 -78 17 -118c1 -23 5 -45 5 -67c-1 -37 5 -75 -4 -111c-5 -18 -8 -37 -15 -54c-7 -15 -9 -32 -14 -48c-3 -13 -8 -26 -11 -40c-6 -22 -22 -39 -31 -59c-4 -8 -14 -13 -22 -19c-11 -10 -22 -19 -32 -30c-14 -15 -33 -23 -53 -29c-4 -1 -8 -2 -12 -4
c-12 -5 -24 -12 -37 -16c-7 -3 -15 -3 -23 -3c-9 1 -18 3 -27 4c-8 2 -16 4 -24 3c-8 0 -15 2 -22 7c-6 4 -14 9 -21 13c-6 4 -9 9 -9 17c1 16 1 32 1 48c1 34 1 67 2 101c1 39 3 79 3 119c0 32 -1 64 -1 96c0 27 1 55 0 82c0 33 -1 65 -1 98c0 39 1 78 1 118
c0 11 -3 22 -5 33c-2 9 -4 17 -6 26zM166 67c5 2 9 2 11 4c8 6 16 12 24 17c36 24 58 58 72 97c8 24 14 49 22 74c11 36 19 73 17 111c-1 17 5 35 -3 52c6 21 2 41 0 62c-3 38 -5 76 -14 113c-9 34 -24 65 -52 88c-8 6 -19 10 -27 16c-18 13 -39 14 -61 12v-10l3 -63l3 -111
c1 -30 2 -60 2 -89c0 -30 -2 -59 -3 -88c0 -26 2 -51 2 -76c1 -20 -1 -40 -1 -60c1 -43 4 -86 5 -129v-20z" />
    <glyph glyph-name="E" unicode="E" horiz-adv-x="326" 
d="M155 428c8 1 15 0 21 2c18 7 37 4 56 4c4 0 9 -2 13 -4c18 -14 14 -34 -7 -42c-7 -2 -15 -4 -23 -4c-21 1 -43 -4 -63 -7c-12 -50 -10 -287 -7 -330c13 -6 26 1 38 2c17 1 33 4 49 11c19 8 45 1 58 -15c4 -5 8 -11 1 -18c-2 -1 -2 -4 -3 -5c-7 -14 -19 -19 -35 -16
c-4 1 -9 0 -13 0c-21 -3 -41 -7 -61 -9c-17 -2 -33 -3 -50 -4c-9 -1 -18 -1 -27 -2c-4 0 -10 2 -14 0c-14 -8 -24 2 -33 9c-11 7 -16 19 -18 32c0 7 -3 13 -3 20c-2 13 -5 25 -1 38c2 8 1 16 2 24c7 49 4 99 5 149c1 47 3 93 4 139c1 43 0 85 2 127c1 30 3 59 5 88
c1 40 3 80 4 120c1 9 2 17 3 26c1 7 5 11 12 12c13 0 25 -1 38 -1c35 1 70 2 105 2c21 1 42 1 63 1c10 0 19 -6 26 -14c2 -3 4 -9 3 -13c-6 -16 -16 -23 -32 -24c-5 0 -10 1 -15 1c-23 -1 -47 -1 -70 -1c-8 0 -17 1 -26 1c-12 1 -15 -2 -15 -13c0 -14 1 -28 1 -42
c1 -37 2 -75 3 -112l3 -120c0 -4 1 -7 1 -12z" />
    <glyph glyph-name="Euro" unicode="&#x20ac;" horiz-adv-x="520" 
d="M499 577c0 -14 1 -28 -1 -41c-1 -7 -5 -14 -9 -19c-5 -6 -14 -6 -19 -2c-10 8 -20 18 -30 26c-5 5 -6 11 -5 17v25s-1 16 -1 24c-1 24 -7 48 -17 70c-4 9 -10 17 -16 25c-5 6 -11 7 -17 2s-16 -9 -17 -19c-17 -10 -22 -29 -30 -45c-7 -15 -12 -31 -17 -46
c-4 -12 -9 -24 -13 -35c-2 -7 -2 -14 -3 -20c0 -4 1 -7 0 -10c-3 -9 -4 -19 -6 -28h1c5 0 11 1 16 1c8 0 17 -1 25 -2c7 0 13 -1 20 -1c1 0 1 2 2 2c5 3 8 2 11 -4c1 -3 2 -7 3 -10c1 -4 2 -9 5 -11c1 0 2 -3 2 -5c0 -4 1 -9 1 -13c0 -1 0 -3 -1 -4c-2 -6 -4 -10 -6 -15
l-27 -3h-14h-44v-31c-1 -13 -2 -26 -4 -39c-1 -6 -1 -11 -2 -17h17c6 0 11 2 16 1c8 0 17 -1 25 -1c7 -1 13 -1 20 -1c1 0 2 1 3 1c4 3 7 2 10 -4c1 -3 2 -7 3 -10c2 -4 2 -9 5 -11c1 0 2 -3 2 -4c1 -5 1 -9 1 -14c0 -1 0 -3 -1 -4l-6 -15c-9 -1 -18 -2 -26 -3h-15h-58
c-1 -17 0 -33 1 -50c3 -32 8 -63 18 -94c4 -11 15 -20 13 -33c14 -8 14 -31 36 -35c13 19 32 34 42 55c2 3 3 5 4 8c5 13 11 25 14 38c5 18 8 36 12 54c1 8 2 15 4 23c22 10 34 8 50 -7c8 -7 10 -17 9 -26c-3 -26 -7 -52 -17 -77c-6 -15 -11 -30 -16 -45c-1 -2 -2 -4 -3 -5
c-4 -5 -9 -10 -11 -15c-7 -15 -16 -25 -31 -32c-5 -2 -8 -6 -11 -12c-6 -12 -18 -19 -31 -24c-10 -4 -20 -7 -31 -8c-8 0 -17 3 -26 5c-15 4 -30 9 -45 13c-34 11 -61 31 -84 58c-7 8 -12 17 -16 26c-9 21 -20 39 -25 62c-4 24 -10 48 -13 72c-2 15 -2 30 -2 45
c-5 0 -11 1 -17 1c-12 0 -24 0 -36 -1c-7 0 -14 -1 -22 -1c-2 0 -5 1 -8 2c-2 6 -3 12 -5 18c0 2 -1 4 0 5c4 13 3 28 3 43c0 12 3 18 12 16c2 0 5 1 7 2c5 2 10 3 16 2c5 0 11 2 17 2c11 0 23 1 34 -1v7c2 19 2 37 3 56c-8 0 -17 1 -25 1c-12 1 -24 0 -36 0
c-7 0 -15 -1 -22 -1c-3 0 -5 1 -8 1c-2 7 -4 13 -5 19c-1 1 -1 3 -1 4c5 14 3 29 3 43c0 13 4 18 12 17c3 0 6 0 8 1c5 3 10 4 15 3c6 -1 12 1 18 1c12 1 24 2 36 -1l18 -3c1 4 1 9 2 14c5 28 16 55 24 82s23 50 40 72c5 8 10 16 14 24c1 1 2 3 3 4c16 13 30 27 47 38
c19 14 41 19 65 21c8 1 16 -4 25 -4c17 -1 33 -6 49 -15c28 -16 54 -36 66 -68c9 -24 14 -51 20 -76c2 -10 3 -21 4 -31z" />
    <glyph glyph-name="F" unicode="F" horiz-adv-x="302" 
d="M155 416c8 1 14 3 20 4c10 1 19 2 29 3c6 1 12 2 17 4c19 8 36 0 51 -10c5 -3 7 -10 10 -16c-7 -10 -14 -21 -21 -31c-37 8 -72 -1 -105 -6c-2 -46 -4 -89 -5 -132c-1 -30 -1 -60 -1 -90c0 -39 1 -78 1 -117c0 -5 -2 -10 -3 -15c-6 -14 -6 -13 -20 -13c-17 1 -34 0 -52 1
c-27 1 -45 19 -46 46c0 11 1 22 2 33c0 2 1 5 1 7c-5 27 4 53 3 80c-1 26 0 53 1 79v47c0 30 1 59 2 88c0 25 -1 49 0 73c0 10 2 19 2 28c2 27 3 54 4 81c2 58 3 117 -4 175c-2 10 -3 19 -4 30c3 5 9 8 16 7c31 0 62 -1 93 -1c17 0 35 1 52 1c12 1 24 2 36 4s22 -4 32 -10
c9 -5 11 -15 9 -24c-2 -7 -7 -14 -16 -17c-12 -4 -25 -3 -37 -3c-19 0 -38 1 -57 2c-10 0 -11 -1 -11 -12c0 -47 2 -93 2 -140c0 -23 -1 -46 -1 -69c-1 -26 -1 -52 -2 -77c0 -3 1 -5 2 -10z" />
    <glyph glyph-name="G" unicode="G" horiz-adv-x="414" 
d="M301 697c-12 3 -20 0 -28 -4c-26 -11 -42 -31 -54 -55c-11 -23 -23 -47 -32 -71c-7 -17 -11 -36 -14 -54c-3 -24 -5 -48 -7 -72c-1 -11 -4 -23 -4 -34c-2 -35 -4 -70 -4 -106c1 -31 2 -64 6 -95c5 -29 11 -59 29 -84c7 -10 17 -19 27 -26c12 -9 31 -8 43 1
c8 6 15 14 20 22c25 35 37 75 35 119c0 24 -1 48 -2 74c-15 -1 -27 -1 -40 -2c-12 -1 -23 -1 -33 7c-6 5 -14 6 -19 12c-8 10 -5 18 6 21c14 2 27 4 41 7c15 3 31 6 47 9c13 2 26 3 39 4c15 0 26 -8 33 -21c-4 -10 -9 -20 -13 -29c8 -27 9 -55 11 -82c1 -17 -2 -33 3 -49
c4 -10 2 -20 -2 -31c-7 -16 -13 -34 -19 -50c-9 -21 -20 -39 -36 -55c-8 -8 -17 -14 -27 -20c-4 -3 -8 -6 -13 -8c-3 -2 -8 -4 -11 -3c-9 3 -16 0 -23 -2c-10 -2 -20 -3 -31 -5s-23 -2 -35 1c-10 2 -20 2 -31 4c-2 0 -5 3 -8 4c-6 5 -10 13 -19 12c-3 0 -6 7 -9 9
c-21 14 -36 35 -51 55c-10 13 -20 28 -21 47c-1 12 -6 24 -9 35c-7 31 -10 62 -11 93c-1 9 -3 19 -4 28c0 3 -1 6 -1 9c2 19 4 38 5 57c1 12 -1 24 0 36c2 22 3 44 7 65c6 32 14 63 22 93c5 18 11 36 17 53c6 16 13 31 21 46c4 7 10 13 15 20c16 22 31 47 58 58
c23 11 47 24 74 25c20 1 37 -2 55 -11c8 -3 17 -4 25 -8c5 -1 10 -4 14 -7c6 -8 10 -16 15 -24c12 -16 20 -34 22 -54c2 -32 7 -65 0 -97c-4 -17 -4 -36 -4 -54c0 -14 -9 -20 -19 -25c-10 -6 -20 -4 -29 4c-6 5 -12 9 -17 15c-6 6 -8 13 -7 21c3 24 8 48 9 72
c2 25 0 50 -2 75c-1 9 -7 17 -10 25z" />
    <glyph glyph-name="H" unicode="H" horiz-adv-x="432" 
d="M155 364v-62c0 -26 3 -52 0 -78c-3 -44 -1 -88 -4 -132c-1 -11 -1 -23 2 -35c3 -13 0 -26 -2 -38c0 -7 -6 -13 -11 -21c-10 0 -21 1 -32 2h-11c-17 0 -34 0 -50 1c-9 0 -15 5 -16 13c-3 11 -6 22 -6 34c0 32 2 65 2 97c1 56 1 111 1 166c0 26 1 52 1 77c0 31 -1 61 -1 92
c0 42 1 84 1 126c1 31 1 61 2 92c0 20 0 39 1 59c0 10 2 11 11 10c13 0 25 0 37 -3c11 -2 23 1 35 2c22 2 28 -9 28 -28c0 -30 0 -59 3 -88c3 -26 5 -52 4 -77c-2 -40 4 -80 7 -119c1 -12 1 -25 1 -37c0 -2 1 -5 1 -9c30 -3 59 4 88 3s57 5 88 11c0 15 1 31 1 47
c2 54 4 108 5 161c0 20 -2 40 -2 60c0 17 0 34 1 51c0 4 3 9 5 13c1 2 3 2 4 3c3 14 14 14 25 17c10 3 18 0 25 -5c13 -10 12 -82 12 -98c1 -13 1 -27 0 -40c-2 -46 -8 -91 -5 -137c1 -19 -2 -38 -3 -58c0 -18 1 -35 2 -53c2 -47 1 -93 -2 -140c-2 -38 -1 -77 -1 -115
c0 -29 2 -58 2 -86c1 -6 0 -11 -1 -16c-3 -11 -11 -18 -23 -19c-10 0 -21 -1 -31 1c-12 2 -16 9 -15 20c2 10 0 19 -2 28c-2 12 -2 25 1 36c4 19 2 37 2 55c1 30 1 60 1 90c-1 28 -2 56 -3 83c-1 15 0 29 0 45c-10 0 -19 1 -27 1c-35 0 -70 -1 -105 -2h-46z" />
    <glyph glyph-name="I" unicode="I" horiz-adv-x="177" 
d="M155 418h1c-1 -24 -5 -49 -1 -73c-2 -38 -3 -75 -4 -111c-1 -30 -1 -60 -1 -90c0 -39 1 -78 1 -117c0 -5 -2 -10 -3 -15c-6 -14 -6 -14 -20 -13c-17 0 -34 0 -52 1c-27 0 -45 18 -46 45c0 11 1 22 2 33c0 3 1 6 1 8c-5 27 4 53 3 80c-1 26 0 52 1 79v47c0 29 1 59 2 88
c0 24 -1 49 0 73c0 9 2 19 2 28c2 27 3 54 4 80c2 59 3 117 -4 176c-2 9 -3 19 -4 30c3 5 9 7 16 7c30 0 73 -1 103 -1c1 -23 -1 -44 -2 -67c1 -44 2 -88 2 -133c0 -23 -1 -46 -1 -69c-1 -25 -1 -51 -2 -77c0 -2 1 -5 2 -9z" />
    <glyph glyph-name="J" unicode="J" horiz-adv-x="335" 
d="M184 726c-13 -2 -25 -3 -36 -7c-12 -5 -23 1 -31 6c-10 6 -18 18 -26 28c-2 3 -1 8 -2 12c10 4 18 5 28 2s22 0 33 0c4 0 8 0 12 1c10 1 21 1 31 3c11 1 21 6 32 5c4 -1 9 0 12 3c10 7 23 5 33 5s20 -6 30 -11c7 -4 8 -12 9 -20c3 -34 6 -68 4 -102c-1 -26 1 -52 2 -78
c0 -15 -1 -31 -4 -47c-2 -16 -2 -32 -3 -48c-1 -27 -2 -53 -2 -79c0 -11 2 -22 2 -33c0 -26 -1 -52 -2 -78c-1 -17 -1 -35 -3 -52c-2 -19 -5 -37 -9 -56c-3 -20 -6 -40 -12 -60c-5 -20 -15 -39 -23 -58c-2 -6 -7 -11 -9 -17c-11 -22 -32 -31 -55 -35c-7 -2 -14 -5 -21 -6
c-17 -5 -35 -5 -52 -2c-19 3 -36 12 -52 21c-14 8 -32 17 -37 36c-4 17 -5 34 4 51c2 3 3 7 4 11c5 11 13 15 24 15c17 1 29 -9 23 -31c-3 -11 -5 -21 -2 -32c6 -22 23 -27 42 -24c6 0 13 10 15 16c8 22 16 45 21 68c9 39 8 79 8 119v91c1 33 1 65 2 98c1 17 3 34 4 51
c1 14 0 28 1 41c3 55 9 109 5 164v29z" />
    <glyph glyph-name="K" unicode="K" horiz-adv-x="443" 
d="M172 427c2 2 4 3 5 4c6 10 12 19 17 29c20 34 38 69 58 103c12 21 25 42 38 63c16 27 31 55 47 83c5 10 13 19 20 28c1 3 4 5 7 5c14 1 28 6 43 -1c13 -7 19 -19 13 -32c0 -1 -1 -3 -2 -4c-18 -27 -32 -56 -46 -84c-7 -15 -18 -29 -26 -43c-20 -36 -40 -72 -59 -107
c7 -22 14 -44 20 -66c9 -38 17 -77 27 -116c6 -24 13 -47 21 -71c11 -39 22 -77 34 -115c6 -17 11 -34 19 -51c7 -14 11 -33 -1 -48c-9 -1 -18 -1 -28 -2h-1c-10 1 -39 28 -42 38c-4 18 -8 36 -13 53c-17 59 -33 117 -51 175c-11 35 -18 71 -26 107c-1 5 -3 11 -5 20
c-7 -9 -12 -15 -16 -22c-5 -8 -10 -17 -14 -27c-5 -11 -14 -16 -27 -17c-3 0 -6 -1 -10 -1v-60c2 -34 4 -68 6 -101c1 -25 3 -50 4 -74c0 -25 -1 -49 -1 -73c0 -8 -4 -12 -11 -15c-12 -5 -26 -4 -40 -4c-8 0 -17 -1 -26 -1c-14 -1 -29 -1 -42 6c-12 5 -16 13 -17 26
c0 4 -3 9 -4 13c-3 8 -7 16 -7 24c-1 34 0 67 0 101c1 13 -1 27 -1 41c0 16 2 33 2 49l-3 102v105c-1 29 -2 58 -3 88c0 17 -1 35 -1 53c0 25 2 49 1 74c0 20 0 41 2 61c2 16 7 22 23 24c17 1 33 3 49 5c23 2 51 -17 54 -40c5 -26 6 -51 8 -77c3 -35 2 -70 3 -106
c1 -38 1 -77 1 -116c0 -1 1 -3 1 -6z" />
    <glyph glyph-name="L" unicode="L" horiz-adv-x="363" 
d="M167 41c4 -1 7 -1 10 -1c28 2 56 7 85 6c10 0 20 12 20 23c-1 23 -2 47 -3 70c-1 9 1 12 12 16c23 9 44 -3 49 -27c0 -1 1 -3 0 -4c-6 -24 5 -50 0 -74c7 -12 -1 -23 -2 -35c-1 -8 -5 -17 -18 -17c-10 0 -19 -4 -28 -7c-9 -1 -17 -1 -27 1c-9 2 -19 0 -29 -1
c-33 -2 -65 -3 -98 -5c-16 0 -32 -2 -47 1c-13 2 -28 4 -36 20c-4 8 -11 14 -18 22c12 5 12 14 11 24l-3 120c0 13 -1 27 -1 40c0 8 2 15 1 22c0 34 1 67 -3 101c-3 24 2 47 0 72c-3 21 -4 43 -6 64c-1 14 0 28 -1 42c-3 47 -2 93 0 139c1 26 -3 53 -4 79c-1 15 -1 30 -1 46
c0 5 3 8 9 8h5c22 -5 44 -4 66 -5c9 0 18 -5 26 -9c7 -4 8 -12 9 -19c0 -23 1 -45 2 -67l3 -138c0 -18 -2 -37 -2 -55c-1 -22 -3 -44 -3 -67c1 -33 2 -67 4 -101c2 -45 6 -90 8 -136c2 -24 1 -49 2 -74c0 -18 2 -35 3 -53c1 -7 3 -14 5 -21z" />
    <glyph glyph-name="M" unicode="M" horiz-adv-x="526" 
d="M105 503c-1 0 -2 -1 -3 -1c-1 -4 -2 -9 -2 -13c0 -24 0 -49 1 -73c1 -25 2 -51 3 -77l3 -75c0 -23 1 -45 1 -68c0 -10 2 -21 1 -31c0 -15 -2 -29 -2 -44v-35c0 -6 -1 -12 1 -16c4 -10 1 -21 1 -32c0 -6 -4 -13 -8 -17c-17 -13 -37 -21 -59 -16c-1 2 -1 4 -2 5
c-7 12 -2 26 -4 38c-4 24 -2 48 -1 73c1 27 1 55 1 83c1 8 -1 17 0 25c0 17 1 35 1 52c-2 52 -6 103 -7 155c0 35 2 71 3 106c0 12 0 23 1 35c1 49 3 97 5 146c1 10 3 22 10 28c9 10 22 20 38 16c8 -2 16 -3 24 -3c6 0 14 -6 17 -11c11 -20 20 -42 30 -62c3 -8 6 -16 9 -23
c8 -17 15 -34 22 -51c6 -15 9 -31 15 -45c17 -38 35 -76 52 -114c3 -6 6 -10 10 -16c9 18 19 33 27 50c19 38 36 77 58 114c2 2 2 5 4 7c12 22 23 45 35 67c10 17 20 34 29 52c12 22 33 29 54 35c7 2 15 -3 22 -4s10 -5 10 -11c0 -16 1 -32 0 -47c-1 -33 -3 -65 -3 -97
c-1 -25 1 -50 1 -75c0 -24 -2 -48 -2 -72c-1 -36 0 -73 0 -110c0 -52 -1 -103 -1 -155c0 -18 1 -36 1 -54c0 -29 -2 -59 -3 -88c0 -23 -11 -36 -32 -42c-4 0 -7 -2 -11 -2c-18 -2 -36 -5 -54 -5c-12 0 -25 3 -39 6c-6 15 -10 31 -9 49c2 24 6 48 5 72c-1 35 -2 71 1 107
c1 3 1 6 1 9c-1 28 -2 57 3 85c4 30 -2 61 9 91c1 1 0 2 0 3c3 21 5 43 7 64c2 11 2 23 2 35c-7 -3 -8 -8 -10 -13c-16 -38 -32 -75 -51 -111c-2 -4 -3 -10 -1 -13c5 -13 3 -23 -8 -32c-20 -16 -38 -36 -62 -47c-6 -2 -13 -3 -19 -3c-14 0 -17 2 -22 17c-1 2 -2 4 -4 6
c-4 9 -9 17 -13 26c-14 27 -26 56 -47 79c-2 2 -3 4 -4 6c-6 18 -19 30 -24 48c-2 5 -7 9 -11 14z" />
    <glyph glyph-name="N" unicode="N" horiz-adv-x="415" 
d="M104 503c-2 -2 -3 -2 -3 -3l-3 -69v-137c0 -47 -1 -93 0 -139c0 -32 1 -63 3 -95c1 -13 0 -26 -3 -39c0 -3 -2 -8 -5 -9c-15 -6 -31 -15 -49 -5c-9 6 -14 12 -14 21c1 16 3 31 3 46v52c-1 22 -1 44 -1 66c0 13 1 26 1 39c1 32 1 63 1 95c0 38 -2 76 1 113
c5 75 7 150 9 225c1 22 2 45 4 68c1 16 7 20 24 19c19 0 37 -4 54 -11c4 -2 9 -6 12 -11c18 -37 33 -76 53 -113c25 -48 53 -94 80 -141c11 -18 24 -34 31 -54c4 -9 12 -16 19 -26v34c0 25 1 51 0 76c0 23 -2 45 -2 68c0 34 1 68 0 103c0 24 -1 49 -3 74c0 6 2 11 9 13
c18 7 36 7 55 3c6 -2 8 -6 8 -12c-4 -59 1 -119 1 -178c1 -27 1 -55 2 -82c1 -26 3 -51 3 -77c-1 -30 -3 -60 -5 -90v-56c2 -57 4 -114 5 -171c1 -25 0 -51 -1 -77c0 -3 -2 -7 -3 -11c-20 -2 -40 -3 -59 1c-8 2 -12 7 -12 16v114c0 9 -2 19 -1 28c0 8 -3 14 -8 20
c-6 8 -10 18 -15 27c-7 12 -16 23 -25 34c-5 8 -11 15 -16 23c-8 12 -15 25 -24 38s-19 25 -28 38c-21 33 -41 67 -62 100c-8 13 -16 26 -24 38c-4 5 -8 10 -12 14z" />
    <glyph glyph-name="O" unicode="O" horiz-adv-x="444" 
d="M31 211v50c0 25 0 50 1 75c2 30 4 60 7 90c1 16 2 32 4 48c5 39 8 78 15 116c4 21 12 41 21 61c7 17 16 33 25 49c9 17 23 31 40 41c11 6 21 15 32 21c12 5 25 8 38 10c20 1 41 1 61 1c5 0 12 1 15 -6c0 -2 8 1 11 -1c6 -5 14 -6 22 -6c3 0 6 -3 9 -5c7 -6 12 -13 20 -17
c17 -10 28 -25 34 -42c9 -24 17 -49 22 -73c5 -23 5 -47 7 -71c3 -25 5 -50 6 -75c1 -29 4 -58 2 -87c-2 -21 0 -42 -1 -64c-2 -30 -5 -60 -7 -91c-2 -27 -10 -52 -15 -78c-4 -22 -13 -42 -24 -60c-15 -23 -31 -47 -51 -67c-17 -15 -37 -24 -60 -23c-12 1 -23 0 -34 -5
c-8 -4 -18 -4 -27 -1c-18 6 -35 11 -53 15c-17 4 -29 17 -45 24c-24 11 -32 36 -50 53c-8 7 -11 22 -14 34c-8 27 -14 55 -11 84zM237 58c5 5 11 10 15 15c13 17 20 36 26 56c12 33 12 66 16 99c3 24 3 47 4 71c1 13 2 25 3 37c2 37 6 73 4 109c-1 8 -2 16 -1 24
c2 60 -2 121 -7 182c-1 18 -4 37 -13 53c-9 15 -26 17 -36 4c-11 -13 -22 -27 -30 -42c-19 -34 -30 -71 -31 -111c-1 -35 0 -70 -6 -106c-7 -44 -11 -89 -8 -135c3 -43 2 -86 4 -129c2 -25 5 -50 10 -75c4 -16 10 -32 25 -41c8 -4 16 -7 25 -11z" />
    <glyph glyph-name="P" unicode="P" horiz-adv-x="370" 
d="M33 762c7 3 14 4 18 12c1 2 7 4 11 4c32 1 64 2 97 3c9 0 18 -1 26 0c21 3 40 -5 58 -13c16 -8 32 -17 46 -27c20 -15 33 -35 42 -58c22 -61 25 -122 6 -182c-10 -31 -28 -58 -49 -82c-14 -16 -33 -24 -51 -32c-13 -7 -30 -7 -46 -4c-8 1 -17 2 -27 3c0 -19 0 -36 1 -53
c1 -30 4 -60 4 -90c1 -19 -1 -39 -2 -59c0 -23 2 -46 0 -69c-2 -31 0 -62 2 -93c1 -13 -7 -21 -17 -24c-16 -5 -32 -10 -49 -4c-2 1 -5 1 -7 1c-14 0 -29 -1 -43 1c-17 1 -23 8 -23 26c0 13 1 26 2 39c1 33 2 67 3 100c0 25 0 50 -1 74v113c0 21 1 41 1 62c1 29 2 58 2 88
c1 29 2 58 2 86c-1 21 -2 41 -3 62c-2 31 -4 62 -5 93c0 8 1 15 2 23zM165 732c1 -17 2 -31 3 -46c0 -22 3 -44 1 -66c-4 -59 -3 -119 -5 -178c0 -6 1 -12 1 -20c9 2 16 3 22 5c20 7 38 19 53 33c4 4 8 8 11 13c11 24 22 49 32 73c3 8 3 18 3 26c1 13 1 26 1 39
c0 29 -4 57 -18 83c-11 21 -28 31 -50 34c-3 0 -6 -1 -8 0c-14 7 -28 1 -46 4z" />
    <glyph glyph-name="Q" unicode="Q" horiz-adv-x="449" 
d="M336 76c12 -18 25 -39 38 -58c8 -13 16 -26 25 -38c5 -7 11 -13 17 -20c11 -12 14 -27 12 -42c0 -3 -4 -6 -6 -8c-8 -4 -15 -9 -24 -14c-11 6 -21 13 -30 23c-19 21 -30 48 -45 71c-5 9 -12 17 -18 26c-4 5 -10 7 -15 1c-9 -8 -17 -17 -27 -25c-8 -6 -16 -10 -25 -13
c-10 -3 -20 -3 -30 -4h-11s-8 -1 -12 0c-28 10 -59 14 -80 39c-13 15 -32 24 -39 44c-6 14 -13 29 -18 44c-14 45 -16 91 -16 136c0 18 -2 36 -2 54c1 22 2 43 3 65v58c1 27 1 54 6 81c5 29 6 59 13 88c8 35 12 71 29 103c15 28 31 56 55 77c11 10 25 17 39 23
c15 6 32 9 48 13c21 5 42 -2 63 -4c18 -1 31 -12 46 -17c7 -3 14 -9 19 -16c21 -27 34 -58 40 -91c7 -38 12 -75 11 -113c0 -37 1 -74 -1 -111c-3 -47 -8 -94 -13 -141c-5 -41 -10 -83 -15 -124c-3 -18 -5 -37 -16 -52c-3 -2 -3 -7 -4 -10c-5 -14 -11 -28 -17 -45zM292 153
c2 6 5 9 6 13c3 17 7 35 9 52c7 43 13 85 19 128c1 2 1 3 1 5c-5 31 1 62 4 92c2 28 3 57 4 86c0 25 -1 51 -3 77s-5 52 -9 78c-2 17 -8 34 -21 47c-8 8 -10 10 -17 1c-11 -13 -20 -26 -29 -40c-5 -6 -10 -13 -13 -20c-7 -14 -11 -29 -17 -43c-13 -32 -23 -64 -28 -98
c-7 -41 -12 -82 -18 -123c-6 -37 -2 -75 -3 -113c-1 -19 2 -39 2 -58c2 -37 1 -74 4 -111c2 -23 9 -46 14 -68c4 -14 16 -23 31 -9c9 8 16 17 24 26c5 5 5 11 3 17c-6 11 -11 22 -17 32c-16 30 -33 61 -49 91c-4 7 -2 10 4 14c10 6 23 6 34 6c11 -1 22 -6 28 -17
c11 -17 20 -36 29 -54c2 -3 5 -6 8 -11z" />
    <glyph glyph-name="R" unicode="R" horiz-adv-x="424" 
d="M126 -9c-4 2 -9 5 -15 7c-4 1 -9 2 -13 0c-11 -3 -22 -2 -31 7c-8 8 -21 13 -24 27c-1 3 -2 6 -2 9c0 29 1 57 2 85c0 13 2 25 2 38c0 34 1 67 0 101c0 41 -2 82 -3 124c-1 38 -2 77 -3 115c0 29 1 58 1 87c-1 23 -1 45 -3 67c-1 23 -4 45 -6 67c-1 19 -1 19 -11 35
c6 19 23 18 37 20c11 1 22 -2 32 -2h65c28 0 56 -6 84 -11c39 -8 71 -30 102 -55c25 -19 38 -47 50 -74c13 -27 11 -55 13 -83c2 -25 -8 -46 -16 -69c-8 -21 -22 -38 -33 -57c-3 -6 -9 -10 -14 -15h-2c-14 -18 -29 -33 -50 -41l22 -66c4 -11 8 -20 12 -30
c5 -13 10 -25 14 -38c5 -16 9 -31 12 -47c6 -39 20 -76 29 -114c2 -5 2 -11 3 -17c4 -20 8 -40 13 -61c-21 -7 -43 1 -64 2c-8 8 -10 17 -7 25c6 16 -1 30 -4 45c-5 22 -10 45 -16 67c-14 51 -22 102 -40 151c-5 17 -11 33 -17 49c-6 19 -10 22 -29 19c-4 -1 -9 -2 -13 -1
c-5 0 -9 1 -14 1c0 -6 1 -12 1 -18c3 -58 5 -115 10 -173c2 -30 0 -59 1 -88c1 -18 -1 -35 -2 -52c0 -6 -1 -11 -2 -16c-4 -13 -8 -16 -22 -16c-8 1 -17 3 -25 2s-15 -4 -24 -6zM187 400c18 -1 25 1 45 10c21 9 40 22 55 38c17 20 30 43 40 68c4 8 7 17 10 26
c8 21 5 44 3 67c-3 40 -22 70 -56 90c-8 5 -16 10 -24 13c-27 9 -55 12 -82 14c-9 0 -11 -2 -10 -11c1 -10 3 -20 4 -30c7 -52 7 -103 9 -155c1 -40 2 -80 4 -120c0 -4 1 -7 2 -10z" />
    <glyph glyph-name="S" unicode="S" horiz-adv-x="468" 
d="M294 738c-4 -1 -8 -4 -10 -3c-13 4 -19 -6 -26 -12c-8 -7 -13 -16 -13 -26c1 -19 2 -38 4 -57c1 -9 6 -18 12 -26c7 -11 12 -24 17 -36c11 -32 29 -61 49 -89c8 -11 17 -20 25 -30c16 -20 33 -40 48 -62c22 -31 40 -65 44 -104c3 -37 7 -75 0 -112
c-5 -27 -17 -51 -29 -75c-12 -22 -26 -43 -41 -63c-12 -18 -27 -34 -50 -39c-26 -6 -52 -13 -78 -18c-13 -2 -27 -1 -40 0s-26 3 -39 6c-10 2 -20 6 -29 11c-15 8 -30 18 -45 27c-12 7 -20 18 -28 29c-11 14 -19 29 -24 46c-7 25 -14 51 -9 77c11 55 53 81 106 77
c21 -1 29 -21 19 -43c-7 -15 -14 -31 -21 -47c-5 -11 -1 -22 1 -33c6 -30 22 -56 43 -77c13 -13 30 -24 50 -20c7 1 14 6 20 9c17 8 29 21 40 35c11 12 12 29 14 44c2 17 3 34 4 52c2 27 -1 53 -10 79c-4 9 -6 19 -11 28s-13 17 -20 25c-8 11 -17 22 -26 32s-16 22 -29 28
c-6 3 -8 13 -12 19c-14 23 -32 42 -48 62c-20 23 -36 49 -41 80c-1 8 -2 17 -5 26c-3 12 -3 25 -1 38c4 27 5 55 17 81c15 33 35 61 69 77c25 12 48 24 75 29c44 8 84 3 121 -24c7 -5 13 -12 18 -19c12 -17 20 -35 25 -56c6 -20 6 -38 1 -57c-7 -25 -27 -40 -52 -41
c-7 0 -14 1 -21 1c-12 0 -14 12 -21 17c-5 4 -3 10 -2 16c2 9 1 18 1 26c0 3 -1 5 -1 7c5 16 -1 31 -5 46c-5 19 -20 30 -36 39zM263 397l1 1c-2 4 -5 7 -8 11c0 -1 -1 -2 -2 -2c3 -3 6 -7 9 -10z" />
    <glyph glyph-name="T" unicode="T" horiz-adv-x="463" 
d="M171 712c-10 1 -18 2 -26 2c-18 1 -37 1 -56 3c-17 2 -35 6 -48 19c-4 3 -8 9 -10 14c-1 3 0 10 2 11c9 3 17 10 28 7c13 -3 26 0 40 0c21 1 41 4 62 2c6 -1 12 -1 18 4s10 0 11 -7c9 2 16 5 25 0c4 -2 10 1 15 1s10 -1 14 -1c3 0 5 -1 8 -1c26 2 53 5 79 6
c27 1 55 4 81 -6c9 -3 17 -9 24 -16c8 -7 5 -20 -4 -27c-5 -3 -10 -5 -15 -7c-20 -5 -40 -1 -60 -2c-20 0 -40 -1 -62 -2c0 -14 -1 -27 -1 -40c1 -52 2 -104 4 -156c0 -28 1 -57 2 -85c1 -33 2 -66 2 -99c1 -50 1 -100 0 -149c0 -22 -3 -44 -3 -66c0 -16 1 -32 1 -48
c1 -11 -1 -21 -2 -32c-2 -28 -2 -29 -31 -30c-22 -1 -45 -1 -67 -2c-10 0 -19 4 -27 10s-13 13 -13 24c0 52 -2 105 2 158c1 15 -1 31 -1 46c1 23 3 46 3 69c1 28 1 56 2 84l3 72c0 12 -1 25 -1 38c-3 45 -3 91 0 137c2 22 1 45 1 69z" />
    <glyph glyph-name="U" unicode="U" horiz-adv-x="459" 
d="M258 66c25 7 41 21 51 41c8 16 15 32 19 49c6 29 11 58 16 87c4 19 8 38 10 57c3 31 3 62 5 92c1 29 4 57 4 85c1 27 0 54 0 80c1 24 3 47 4 71c2 43 3 85 4 129c15 6 30 6 45 3c10 -2 23 -19 23 -29v-28c-1 -18 -2 -37 -3 -55c-1 -15 -2 -29 -1 -44c2 -18 -2 -36 -2 -54
c-1 -28 -2 -56 -3 -83v-35c-1 -13 -1 -27 -2 -40c-1 -21 -2 -41 -3 -61c0 -1 -1 -1 0 -2c5 -30 -6 -59 -8 -88c-2 -20 -6 -40 -10 -60c-4 -19 -9 -38 -15 -57c-5 -19 -13 -37 -26 -52c-5 -6 -8 -13 -12 -19c-5 -9 -13 -14 -23 -18c-7 -2 -13 -9 -19 -14c-5 -4 -11 -8 -18 -7
c-2 0 -4 0 -5 -1c-12 -9 -26 -5 -39 -6c-7 0 -13 -2 -20 -2s-16 2 -23 4c-14 5 -28 10 -42 16c-5 2 -11 7 -16 9c-15 5 -24 16 -35 26s-22 18 -29 32c-7 15 -19 29 -23 47c-2 8 -8 16 -12 24c-7 18 -7 37 -9 56c-2 22 -4 45 -6 67c-4 33 -7 66 -3 99c1 8 -2 18 -1 26
c1 28 3 56 4 85c0 14 -1 28 1 41c5 38 -1 77 0 115c2 32 0 65 9 96c5 16 6 19 22 20c35 3 70 4 105 -3c11 -2 18 -10 19 -22c0 -20 0 -40 -1 -59c-2 -38 -4 -76 -3 -113c1 -40 1 -79 1 -119c0 -29 1 -58 1 -88c0 -22 -1 -44 -1 -67c0 -14 0 -28 1 -42c3 -25 5 -50 9 -75
c4 -21 8 -41 15 -61c7 -24 25 -40 45 -53z" />
    <glyph glyph-name="V" unicode="V" horiz-adv-x="559" 
d="M30 759c14 2 28 4 42 5c5 1 7 2 11 3c16 7 33 11 51 10c7 -1 11 -3 13 -9c5 -15 11 -30 16 -44c14 -46 29 -92 44 -138c7 -23 16 -45 23 -67c8 -25 14 -50 20 -75c1 -2 1 -4 2 -6c11 -27 17 -55 25 -82c9 -30 20 -59 30 -89c4 -12 7 -24 11 -37c8 2 8 9 9 14
c11 44 22 89 33 133c5 21 12 40 17 61c3 10 6 21 8 32c9 33 16 67 25 101c6 22 13 44 20 66c7 25 15 50 22 76c4 11 8 23 11 35c3 9 30 22 41 17c4 -1 8 -2 12 -4c17 -7 25 -20 22 -36c-3 -11 -6 -23 -9 -34c-1 -4 -2 -8 -5 -11c-15 -22 -24 -47 -29 -74
c-2 -12 -6 -23 -9 -35c-7 -26 -12 -54 -22 -79c-12 -32 -16 -67 -27 -99c-8 -25 -10 -52 -16 -78c-5 -19 -11 -37 -16 -55c-4 -14 -7 -28 -11 -42c-6 -19 -12 -38 -17 -58c-7 -22 -14 -44 -17 -67c-4 -24 -13 -46 -20 -69c-5 -17 -15 -21 -34 -19c-6 1 -12 1 -18 0
c-16 -3 -32 2 -47 7c-5 2 -10 5 -12 9c-7 14 -17 28 -21 44c-8 37 -17 74 -26 112c-2 5 -4 11 -7 16c-2 5 -4 9 -5 13l-30 108c-5 18 -10 35 -14 53c-2 8 -4 15 -6 23c-7 24 -13 49 -20 74l-21 75c-6 25 -13 51 -19 76c-2 10 -4 21 -6 31l-9 39c-1 2 -2 4 -2 6
c-4 22 -8 44 -13 68z" />
    <glyph glyph-name="W" unicode="W" horiz-adv-x="853" 
d="M285 259c11 26 22 48 30 71c10 28 17 56 27 84c7 23 17 45 25 68c3 9 6 20 9 30c8 21 16 42 23 63c3 7 3 16 2 23c-6 28 -12 57 -19 85c-4 18 -9 35 -14 53c-4 12 -2 17 10 19h10c8 1 16 1 25 1c1 0 3 1 4 1c14 -13 30 -3 45 -4c25 0 34 -5 41 -29c7 -25 13 -50 19 -75
l33 -132c8 -37 15 -74 23 -111c3 -16 7 -32 10 -48c5 -24 9 -48 14 -72c1 -6 3 -12 5 -18h3l9 21c6 20 12 39 18 59c7 27 13 54 22 80c7 24 17 48 26 71c5 15 9 30 14 45l15 42c16 44 31 88 42 133c1 4 2 8 2 12c0 13 6 19 18 22c9 2 18 5 30 8c19 -9 27 -25 27 -48
c0 -3 0 -5 -1 -8c-15 -32 -21 -67 -35 -100c-16 -37 -26 -75 -38 -114c-4 -13 -10 -26 -15 -39c-9 -28 -20 -56 -27 -84c-8 -34 -19 -66 -29 -98c-9 -29 -14 -60 -20 -89c-4 -18 -8 -35 -12 -52c-1 -3 -2 -5 -4 -7c-4 -6 -5 -13 -3 -20c3 -13 8 -26 11 -39c2 -8 3 -17 4 -25
s-5 -15 -14 -16c-30 -5 -60 -9 -90 -7c-5 0 -10 3 -15 5s-10 5 -16 6c-12 5 -16 8 -15 20c1 18 -3 33 -9 49c0 2 -1 4 -1 5c4 9 -1 17 -6 25c-8 15 -6 31 -11 47c-6 18 -11 37 -16 56c-1 5 -3 10 -4 15c-3 18 -5 37 -9 55c-3 14 -8 29 -11 43c-3 18 -5 36 -8 53
c-2 15 -6 31 -11 46c-5 -12 -9 -23 -14 -35c-5 -16 -11 -32 -16 -47c-10 -30 -21 -60 -31 -89c-9 -26 -18 -51 -27 -76c-7 -21 -15 -42 -22 -63c-2 -6 -1 -13 1 -20c3 -17 8 -34 12 -52c5 -21 1 -26 -19 -34c-26 -10 -52 -7 -78 -5c-10 1 -20 3 -30 5c-13 3 -22 9 -24 24
c-6 26 -11 52 -17 78c-6 31 -13 62 -20 94c-8 38 -16 77 -25 115c-10 48 -19 95 -29 142c-3 12 -6 23 -9 34c-9 31 -18 61 -26 93c-4 18 -6 38 -10 57c-4 21 -8 41 -12 62c-1 4 -1 9 -2 15c17 5 33 9 51 4c7 -3 16 0 24 0c10 1 19 3 28 2c13 -2 23 -9 29 -22
c13 -33 24 -67 33 -102c6 -23 12 -47 18 -70l24 -93c1 -4 2 -7 3 -11c2 -12 4 -23 7 -35c6 -25 13 -50 20 -75c4 -17 7 -35 11 -52c2 -8 4 -15 7 -25z" />
    <glyph glyph-name="X" unicode="X" horiz-adv-x="493" 
d="M248 544c10 24 17 45 26 66c9 18 19 35 29 53c3 5 5 11 9 15c16 20 22 44 31 67c7 16 17 29 32 36c3 1 7 1 10 1c9 -1 17 -2 26 -3c6 -1 13 0 18 -1c11 -4 22 -9 33 -14c8 -4 13 -19 10 -28c-1 -3 -2 -7 -4 -10c-20 -36 -35 -74 -49 -112c0 -3 -1 -6 -3 -7
c-21 -23 -30 -53 -43 -80c-13 -24 -23 -50 -38 -74c-11 -19 -19 -40 -27 -60c-2 -5 -1 -12 1 -17c9 -22 15 -45 25 -67c8 -17 12 -35 19 -52c9 -21 15 -44 28 -63c6 -8 9 -20 13 -30c11 -23 21 -48 31 -72c5 -11 9 -23 13 -35c4 -14 4 -28 -10 -38c-10 -1 -19 1 -27 9
c-3 3 -7 5 -12 7c-17 7 -25 20 -27 37c0 10 -4 18 -9 27c-4 7 -5 16 -8 25l-12 27c-1 1 -2 2 -2 4c-3 22 -16 39 -23 59c-9 23 -19 45 -28 67c-2 4 -5 8 -7 13c-12 -11 -13 -26 -18 -38c-6 -16 -11 -32 -19 -47c-4 -7 -6 -15 -9 -23c-12 -29 -24 -57 -36 -86
c-9 -20 -17 -41 -26 -61c-7 -16 -16 -32 -25 -48c-5 -10 -9 -11 -20 -7c-18 8 -39 10 -57 19c-12 6 -24 13 -32 26c-1 3 -1 9 1 13c11 20 17 41 24 63c6 22 18 42 25 64c5 20 13 38 22 57c17 36 33 72 51 108c14 30 30 58 44 87c6 13 11 27 15 40c1 5 0 12 -2 17
c-5 12 -11 24 -16 36c-7 18 -13 36 -20 53c-14 33 -29 65 -43 98c-9 22 -16 46 -24 70c-1 4 -3 9 -4 13c-3 9 -6 18 -9 28c18 1 33 1 48 2c5 0 18 -15 20 -21c9 -28 19 -56 29 -83c6 -17 12 -33 19 -49c12 -26 24 -52 37 -81z" />
    <glyph glyph-name="Y" unicode="Y" horiz-adv-x="466" 
d="M441 807c5 -13 7 -24 1 -36c-7 -14 -10 -29 -15 -44c-6 -20 -11 -40 -18 -59c-3 -11 -9 -22 -14 -33l-45 -117c-3 -6 -42 -116 -51 -127c-1 -1 -1 -2 -1 -3c2 -206 1 -67 -3 -178c-1 -33 -2 -67 -2 -101v-84c0 -9 -4 -17 -12 -21c-3 -2 -6 -4 -9 -4c-28 -6 -56 -2 -84 5
c-14 4 -16 11 -14 25c3 15 2 30 4 45c3 24 0 47 -2 71c-3 28 -4 57 -3 86c2 48 4 80 5 133l-40 111c-12 36 -24 73 -38 109c-15 40 -32 79 -48 119c-7 18 -13 36 -19 55c-2 4 -2 10 -3 15c3 1 5 3 7 3c16 2 32 2 48 3c1 1 2 0 3 1c11 8 23 2 34 3c7 0 14 -3 20 -7
c8 -6 17 -13 22 -23c8 -19 17 -38 26 -56c4 -9 9 -17 12 -25c7 -16 12 -32 18 -48c1 -4 2 -8 4 -10c15 -19 22 -42 30 -64c3 -9 6 -18 10 -27c3 -8 6 -15 10 -23c2 4 5 8 6 12c14 35 26 71 40 106c3 10 8 20 12 31c3 5 5 10 7 16c14 40 28 81 42 122c3 10 11 16 21 17
c13 1 26 1 39 2z" />
    <glyph glyph-name="Z" unicode="Z" horiz-adv-x="517" 
d="M189 68c10 0 19 -1 27 0c39 2 79 4 118 6c18 1 37 1 55 3c8 1 17 3 24 7c3 1 5 6 5 10c1 14 2 27 1 41c-2 22 -6 45 -9 68c12 3 23 7 37 0c5 -2 10 -2 15 -3c11 -2 17 -9 20 -18c5 -19 10 -37 10 -57s3 -41 5 -62c0 -5 -1 -10 -1 -16c-8 -1 -12 -4 -16 -10
c-5 -8 -14 -14 -28 -13c-23 1 -45 0 -67 0c-19 0 -38 0 -57 -1c0 0 -1 1 -1 0c-19 -5 -40 0 -60 -1c-26 -2 -52 -3 -78 -6c-19 -2 -38 -6 -57 -7c-18 -2 -36 -1 -54 0c-3 0 -7 2 -10 3c-17 6 -26 21 -40 31c-10 8 -9 15 -3 24c3 5 6 10 8 14c14 33 29 66 43 100
c4 9 6 19 10 28c5 13 12 25 18 38s13 26 18 40c10 26 23 52 39 76c5 8 9 17 13 25l42 90c2 5 6 9 8 13c5 8 8 16 7 27c-1 8 3 17 7 25c17 38 32 78 55 114c8 13 12 28 19 44c-71 3 -140 6 -209 8c-4 -17 1 -34 2 -51c2 -25 5 -50 7 -75v-14c2 -14 -9 -17 -20 -20
c-10 -3 -20 1 -28 7c-7 6 -14 12 -25 21c-1 11 -4 26 -5 41c-2 31 -3 63 -5 94c0 13 -1 25 -15 34c-7 5 -3 15 5 16h3c28 -3 56 -2 83 -2c27 1 55 -2 82 -2c44 0 88 -1 131 1c24 1 47 1 72 -2c2 0 6 0 8 1c14 6 30 1 45 1c8 0 18 -7 26 -11c4 -2 7 -4 11 -6
c14 -9 17 -19 6 -28c-6 -5 -8 -11 -10 -17c-14 -34 -27 -68 -41 -103c-8 -20 -16 -40 -25 -59c-6 -13 -15 -25 -22 -37c-3 -5 -5 -11 -7 -16c-9 -19 -16 -39 -26 -57c-12 -20 -17 -42 -26 -62c-16 -35 -31 -70 -50 -103c-16 -29 -27 -60 -41 -89c-11 -24 -23 -48 -35 -72
c-5 -9 -12 -17 -14 -31z" />
    <glyph glyph-name="a" unicode="a" 
d="M208 211c-15 0 -29 -1 -42 0c-13 0 -26 2 -40 3c-1 -3 -3 -5 -3 -8c-3 -20 -6 -39 -8 -59c-4 -30 -7 -59 -10 -89c-1 -9 -2 -18 -3 -26c-1 -21 -9 -29 -30 -31c-6 0 -12 -1 -18 -1c-12 0 -22 7 -23 18c-2 10 -2 19 -1 29c3 17 6 34 8 52c5 35 10 70 14 105
c7 50 13 99 19 149l15 117c6 42 13 83 19 125c3 17 8 35 10 52c4 36 6 72 10 108c1 7 4 15 7 24c18 -3 34 -5 51 -7c4 -1 8 -2 11 -1c9 5 15 1 21 -6c13 9 29 7 44 6c14 -1 24 -12 26 -28l12 -93c3 -18 4 -37 6 -56c4 -45 8 -91 12 -136c2 -21 7 -42 11 -62
c4 -29 8 -58 13 -87c5 -31 12 -63 14 -95c3 -27 8 -54 12 -81c5 -28 12 -56 17 -85c2 -9 2 -19 2 -29c0 -3 -3 -7 -6 -8c-8 -3 -16 -5 -24 -5c-31 0 -62 1 -93 2c-4 0 -7 0 -10 1c-4 3 -11 7 -12 11c-4 15 -13 29 -13 45c0 15 -1 29 -2 44c0 8 0 15 -2 23
c-3 23 -7 46 -11 69c0 3 -1 6 -3 10zM203 257c-3 42 -8 84 -16 125c-4 21 -6 42 -7 62c-2 27 -2 53 -2 79c0 24 1 48 1 72c0 3 -2 6 -3 9c-23 -114 -27 -231 -44 -347c24 -3 47 -2 71 0zM255 401h1c0 3 -1 5 -1 8h-1c0 -3 0 -5 1 -8z" />
    <glyph glyph-name="acute" unicode="&#xb4;" horiz-adv-x="205" 
d="M29 845c0 3 0 8 1 10c19 28 34 58 51 87c1 2 1 3 3 5l7 7c11 7 22 11 35 9c11 -2 21 -3 31 -6c6 -1 10 -4 15 -6c5 -3 8 -7 11 -12c2 -4 1 -11 -3 -14c-9 -8 -20 -15 -28 -23c-9 -9 -16 -19 -25 -28c-3 -4 -7 -8 -11 -11c-14 -11 -28 -21 -43 -31c-10 -6 -20 -6 -31 -2
c-7 2 -11 8 -13 15z" />
    <glyph glyph-name="ampersand" unicode="&#x26;" horiz-adv-x="591" 
d="M571 429c-2 -7 -4 -14 -5 -22c-9 -19 -21 -35 -38 -48c-3 -3 -6 -5 -10 -8c-6 -6 -13 -11 -22 -13s-16 -8 -24 -11c-18 -7 -35 -14 -56 -22c4 -6 8 -12 11 -18c15 -27 21 -55 16 -85c-4 -23 -9 -45 -21 -64c-15 -22 -30 -44 -52 -58c-7 -4 -11 -12 -17 -17
c-16 -10 -31 -21 -48 -29c-20 -9 -42 -13 -65 -9c-24 4 -49 8 -74 12c-7 2 -14 6 -21 10c-8 3 -15 7 -22 12c-5 3 -11 7 -16 11s-9 8 -14 10c-29 15 -43 40 -52 70c-6 21 -8 43 -10 65c-3 24 6 47 11 70c4 16 10 32 17 47c6 14 16 26 24 40c7 11 14 21 20 32
c5 10 12 17 21 23c26 17 52 32 83 40c1 1 2 2 4 3c-7 7 -14 14 -20 21c-5 6 -6 13 -10 18c-15 21 -16 45 -20 69c-2 9 -1 18 -3 26c-6 29 2 53 18 76c9 11 15 24 25 34c2 2 3 5 5 6c14 6 28 12 41 18c18 8 36 11 55 9c5 0 10 0 16 -1c13 -2 27 -4 39 -8c16 -6 31 -15 43 -27
c6 -6 12 -11 18 -16c13 -12 20 -28 24 -45c8 -27 0 -53 -6 -79c0 -2 -1 -4 -2 -6c-3 -9 -4 -20 -17 -20s-27 -1 -36 13c-4 6 -11 11 -16 16c4 14 9 26 11 39c3 13 3 27 4 40s-7 22 -13 32c-3 6 -10 7 -17 4c-5 -2 -10 -5 -15 -8c-21 -18 -41 -38 -54 -63
c-10 -20 -12 -43 -11 -65c1 -16 4 -32 7 -48c3 -19 13 -31 31 -38c10 -4 18 -11 26 -17c8 -7 6 -18 -2 -25c-10 -9 -20 -14 -34 -8c-6 2 -26 -4 -32 -9c-9 -8 -19 -15 -27 -24c-16 -16 -31 -35 -40 -57c-4 -10 -12 -19 -17 -30c-12 -31 -25 -62 -21 -97c2 -17 3 -34 8 -50
c9 -30 24 -58 51 -76c10 -7 23 -7 35 -4c7 2 14 6 20 10c16 12 32 25 48 38c16 14 28 30 36 51c5 13 11 25 14 40c4 15 5 29 0 44c-3 11 -3 22 -12 31c-15 4 -30 2 -44 -7c-15 -9 -30 -17 -45 -26c-12 -7 -31 -4 -40 5c-2 3 -3 7 -2 10c5 20 8 40 25 55c10 7 16 18 25 25
c7 6 17 9 26 12c2 1 5 1 7 3c11 10 26 10 39 14c17 6 35 12 53 14c1 1 2 1 3 1c24 13 49 24 64 48c5 7 8 14 10 21c6 28 16 35 44 30c25 -6 45 -34 45 -60z" />
    <glyph glyph-name="asciicircum" unicode="^" horiz-adv-x="486" 
d="M391 522c-13 18 -28 35 -43 52c-11 12 -20 26 -35 38c-3 4 -7 9 -12 14c-11 11 -21 23 -32 34c-7 8 -14 15 -21 23c-7 -8 -14 -15 -22 -23c-11 -11 -21 -23 -32 -34c-4 -5 -9 -10 -12 -14c-15 -12 -23 -26 -35 -38c-15 -17 -29 -34 -43 -52c-7 -9 -15 -17 -24 -25
c-6 -5 -20 -4 -31 7c-6 5 -11 10 -15 16c-3 5 -4 10 -3 14c1 6 4 12 8 16c16 19 33 38 50 57c14 15 27 31 42 45c19 17 35 36 52 55c11 12 20 23 31 35c2 3 4 6 7 9c2 1 3 2 5 4l8 8s4 3 5 4c2 1 5 1 9 1c3 0 6 0 8 -1c1 -1 3 -2 5 -4l8 -8c2 -2 4 -3 5 -4c3 -3 6 -6 7 -9
c11 -12 21 -23 31 -35c17 -19 33 -38 52 -55c15 -14 28 -30 42 -45c17 -19 34 -38 50 -57c4 -4 7 -10 9 -16c1 -4 -1 -9 -4 -14c-4 -6 -9 -11 -14 -16c-12 -11 -26 -12 -31 -7c-9 8 -18 16 -25 25z" />
    <glyph glyph-name="asciitilde" unicode="~" horiz-adv-x="422" 
d="M379 443c5 -4 10 -8 14 -12c9 -8 11 -18 6 -29c-3 -7 -5 -14 -8 -21c-10 -25 -30 -38 -54 -46c-23 -8 -47 -6 -70 -2c-15 3 -29 13 -43 20c-13 7 -24 16 -36 22c-16 8 -33 7 -49 -3c-14 -8 -28 -15 -37 -29c-5 -7 -13 -8 -23 -7c-13 1 -24 8 -37 9s-14 6 -9 17
c3 7 6 14 9 20c6 14 18 21 30 28c9 7 19 14 29 18c12 3 25 4 37 5c15 0 28 -5 42 -9c32 -9 57 -31 86 -44c5 -2 8 -3 13 -1c11 4 23 6 34 10c15 6 26 18 32 33c6 14 16 18 29 20c1 0 3 1 5 1z" />
    <glyph glyph-name="asterisk" unicode="*" horiz-adv-x="361" 
d="M245 690c14 9 27 18 41 27c6 4 14 3 21 -1c5 -2 10 -5 15 -7c10 -4 12 -13 16 -21c1 -4 2 -8 2 -13c2 -9 -2 -16 -11 -21c-14 -7 -28 -13 -42 -20c-8 -4 -15 -9 -23 -14c-7 -4 -15 -8 -23 -12c5 -8 10 -15 15 -22c2 -3 3 -7 5 -10c5 -7 10 -14 14 -22
c7 -10 14 -20 20 -31c5 -10 2 -20 -7 -26c-9 -8 -18 -15 -27 -23c-10 -9 -28 -6 -36 9c-7 12 -13 24 -20 37c-3 5 -6 9 -9 14c-6 10 -13 21 -19 31c-4 6 -6 7 -11 2c-6 -6 -12 -12 -17 -18c-17 -18 -34 -35 -51 -52c-6 -7 -13 -13 -20 -18c-13 -9 -26 -4 -32 11
c-1 4 -4 8 -6 11c-7 13 -5 28 6 38c19 19 39 38 59 57c1 1 2 3 4 5c-5 4 -10 7 -15 11c-14 10 -28 19 -39 33c-3 5 -9 8 -14 11c-7 4 -10 10 -11 18c-4 20 7 30 23 38c4 2 9 4 14 5c9 3 18 0 21 -7c5 -10 13 -14 21 -20c6 -4 12 -8 19 -12c1 14 1 29 1 44c1 8 2 16 4 24
c5 13 14 22 27 26c15 6 29 1 43 -5c10 -6 15 -14 14 -26c-1 -20 0 -40 -1 -59v-11c11 7 20 13 29 19z" />
    <glyph glyph-name="at" unicode="@" horiz-adv-x="657" 
d="M372 340c-6 -9 -11 -15 -16 -21c-21 -26 -46 -46 -78 -55c-9 -3 -18 -4 -28 0c-7 3 -16 4 -24 5c-16 3 -27 14 -37 25c-6 6 -12 12 -15 19c-4 10 -6 20 -7 31c-1 10 0 20 0 31v6c-3 23 3 43 14 63c8 13 13 29 22 41c13 18 24 37 42 50c16 11 32 21 51 24c3 0 7 0 9 1
c13 11 28 5 42 7c2 1 4 0 6 -1c23 -7 48 -11 68 -27c7 -5 19 -3 28 -4c14 -2 27 1 40 -5c13 -7 18 -12 16 -26c-3 -17 -5 -33 -13 -49c-13 -26 -18 -55 -21 -85c-1 -13 6 -31 17 -46c3 2 7 3 10 6c26 19 43 46 58 73c9 16 12 35 17 53c8 33 11 67 6 101c-3 19 -9 38 -14 57
c0 3 -1 5 -1 8c-3 27 -17 47 -39 61c-17 10 -33 21 -50 30c-20 11 -40 16 -62 6c-3 -2 -7 -1 -11 -2c-20 -1 -41 -1 -61 -5c-21 -4 -41 -14 -62 -20c-26 -7 -45 -25 -64 -43c-15 -14 -30 -27 -43 -42c-12 -12 -22 -27 -32 -41c-16 -22 -32 -45 -37 -72
c-4 -29 -13 -57 -12 -86c0 -9 0 -18 1 -27c4 -32 3 -65 12 -97c5 -15 7 -31 10 -47c6 -26 19 -48 33 -70c19 -32 43 -59 77 -78c17 -9 32 -21 50 -22c26 -1 51 -8 77 -3c17 3 34 4 51 8c12 3 24 8 35 13c14 7 29 14 42 24c17 14 34 29 49 46c10 11 16 27 25 40
c4 7 9 14 15 19c11 8 38 -1 44 -13c2 -3 2 -7 1 -10c-3 -8 -7 -16 -11 -24c-10 -23 -25 -44 -44 -61c-10 -10 -22 -18 -33 -26c-5 -4 -10 -7 -14 -10c-20 -15 -39 -30 -64 -35c-27 -5 -53 -15 -81 -15c-9 0 -18 -2 -28 -3c-14 0 -28 -1 -43 2c-10 2 -22 2 -33 5
c-24 8 -50 16 -73 27c-14 6 -26 18 -38 29c-10 9 -18 20 -28 29c-20 17 -33 41 -44 64c-16 33 -29 67 -35 104c-5 30 -10 59 -10 89c0 28 -2 56 -4 83c0 4 0 7 1 10c8 26 14 53 24 79c5 14 15 25 23 37c10 15 19 29 29 44c4 6 8 12 13 17c13 14 26 27 40 40
c22 18 44 35 67 51c6 4 15 4 22 7c21 10 44 14 66 18s43 6 65 9c9 1 18 1 28 2c28 3 54 -2 79 -17c1 0 2 0 3 -1c23 -8 43 -22 63 -37c9 -6 20 -12 28 -20c23 -23 36 -51 40 -83c2 -14 5 -28 10 -42c8 -23 6 -48 5 -72c-1 -19 -4 -39 -9 -59c-7 -29 -19 -56 -37 -81
c-11 -17 -23 -34 -39 -47c-19 -17 -40 -31 -68 -31c-14 0 -28 -2 -42 -1c-29 2 -46 20 -58 44c-4 7 -7 14 -11 24zM261 309c3 0 5 0 6 1c12 9 25 18 36 29c16 18 30 39 40 62c9 22 18 45 28 68c2 4 3 11 7 13c12 8 16 21 22 34c-8 5 -15 8 -22 13c-5 -11 -15 -8 -22 -11
c-19 -8 -35 -20 -47 -37c-18 -24 -34 -50 -45 -78c-3 -7 -6 -15 -8 -22c-4 -25 1 -48 5 -72z" />
    <glyph glyph-name="b" unicode="b" horiz-adv-x="381" 
d="M36 768c19 1 39 1 58 3c27 3 55 1 83 0c16 -1 32 -5 47 -10c21 -7 42 -16 58 -33c5 -4 9 -8 9 -14c0 -4 2 -8 3 -11c18 -35 21 -72 20 -109c0 -24 -7 -45 -11 -68c-1 -1 -1 -3 -2 -4c-9 -15 -17 -31 -27 -45c-13 -17 -27 -34 -41 -50c18 -8 35 -16 53 -24
c15 -6 27 -16 36 -28c18 -24 33 -49 37 -80c4 -21 0 -41 0 -62c1 -19 -1 -38 -3 -58c0 -5 -1 -11 -3 -16c-5 -22 -14 -42 -25 -62c-1 -1 -2 -4 -3 -5c-17 -17 -33 -35 -54 -47c-20 -10 -39 -20 -59 -27c-15 -6 -32 -7 -48 -10c-12 -2 -25 -4 -38 -4s-26 3 -37 12
c-2 1 -5 3 -7 3c-18 6 -32 19 -48 29c-9 6 -11 14 -11 23c1 24 3 47 5 70c1 22 2 43 3 65c1 54 2 109 3 164c0 51 -1 103 -2 154c-1 19 -3 39 -3 58c0 21 2 42 3 63c0 23 -1 46 -1 69c-1 18 -1 36 5 54zM139 51c7 0 12 -1 16 0l30 12c29 14 57 29 78 55c20 24 31 52 34 83
c3 24 2 47 4 70c4 34 -6 62 -28 88c-11 13 -27 22 -44 26c-18 5 -38 4 -56 0c-6 -1 -12 0 -20 0c-1 -110 -9 -221 -14 -334zM164 727c-2 -9 -5 -17 -5 -26c-1 -37 -3 -74 -3 -111c0 -42 1 -83 -2 -124c-1 -6 -2 -12 2 -19c9 7 17 13 24 19c12 13 25 25 35 39
c17 24 28 50 33 80c5 29 8 57 1 86c-6 21 -9 45 -37 50l-12 3c-12 1 -23 2 -36 3z" />
    <glyph glyph-name="backslash" unicode="\" horiz-adv-x="412" 
d="M392 -2c-5 -7 -11 -15 -18 -23c-1 -2 -4 -3 -6 -4c-8 -2 -15 -4 -22 -5c-3 0 -7 0 -9 2c-5 7 -13 5 -20 6s-13 1 -19 2c-11 3 -15 10 -14 21c1 3 2 6 1 8c-5 15 -10 30 -15 44c-7 19 -15 38 -21 58c-4 12 -6 24 -10 36c-13 42 -27 84 -41 126c-12 39 -30 75 -43 113
c-9 30 -25 57 -38 85c-11 25 -22 50 -34 75c-13 26 -20 54 -28 81c-4 14 -5 28 -10 41c-5 12 -7 24 -7 37c0 6 -1 12 -3 18c-8 19 -2 31 17 37c23 8 47 12 66 29c1 1 5 2 7 2c11 -1 22 -2 33 -2c3 -6 7 -12 8 -18c5 -17 9 -34 14 -52c8 -27 16 -55 25 -82
c7 -22 16 -43 23 -64c5 -15 9 -30 14 -45c7 -20 15 -39 21 -58c9 -32 17 -63 25 -95c13 -46 24 -93 38 -140c13 -46 28 -92 43 -138c3 -11 7 -22 9 -33c5 -21 10 -41 14 -62z" />
    <glyph glyph-name="braceleft" unicode="{" horiz-adv-x="279" 
d="M258 735c1 -7 3 -14 -5 -20c-17 -13 -26 -33 -32 -53c-7 -25 -11 -50 -12 -75c0 -14 -4 -29 -6 -43c-1 -7 -2 -13 -1 -19c1 -10 0 -19 -1 -28c-6 -34 -17 -67 -42 -91c-3 -2 -6 -3 -9 -5c-13 -6 -10 -25 0 -32c9 -5 16 -12 22 -21h-1c14 -23 18 -51 18 -79
c1 -26 4 -52 5 -77c0 -13 -2 -26 -1 -38c1 -20 2 -40 6 -60c4 -19 14 -34 36 -38c5 -1 10 -3 15 -4c-1 -24 -11 -32 -32 -27s-42 11 -58 24c-17 15 -35 29 -42 52c-3 11 -4 23 -6 34c-4 34 -9 68 -14 103c0 1 -1 3 -1 4v13c0 1 0 2 -1 3c-2 17 -2 34 -4 51
c-2 18 -8 28 -23 37l-1 -1c-7 5 -15 9 -22 14c-6 5 -11 11 -15 18c-1 1 0 4 1 7c2 2 3 4 5 6c34 12 45 42 58 71c13 31 17 63 17 95c0 36 8 70 19 104c7 22 18 44 32 63c8 10 19 18 31 24c15 7 32 10 50 3c7 -2 13 -7 14 -15z" />
    <glyph glyph-name="braceright" unicode="}" horiz-adv-x="279" 
d="M31 735c1 8 7 13 14 15c18 7 35 4 51 -3c11 -6 23 -14 30 -24c14 -19 25 -41 32 -63c11 -34 19 -68 19 -104c0 -32 4 -64 17 -95c13 -29 24 -59 58 -71l6 -6c1 -3 1 -6 0 -7c-4 -7 -9 -13 -15 -18s-14 -9 -22 -14l-1 1c-15 -9 -20 -19 -23 -37c-2 -17 -2 -34 -4 -51
c0 -1 -1 -2 -1 -3v-13c0 -1 -1 -3 -1 -4c-5 -35 -9 -69 -14 -103c-2 -11 -3 -23 -6 -34c-7 -23 -25 -37 -42 -52c-16 -13 -37 -19 -57 -24c-22 -5 -32 3 -33 27c5 1 10 3 15 4c22 4 33 19 36 38c4 20 5 40 6 60c1 12 -1 25 0 38c1 25 3 51 4 77c1 28 4 56 18 79v0
c6 9 13 16 21 21c10 7 13 26 0 32c-3 2 -6 3 -9 5c-25 24 -36 57 -42 91c-1 9 -1 18 -1 28c1 6 0 12 -1 19c-2 14 -6 29 -6 43c-1 25 -5 50 -12 75c-6 20 -15 40 -32 53c-8 6 -6 13 -5 20z" />
    <glyph glyph-name="bracketleft" unicode="[" horiz-adv-x="308" 
d="M286 851c0 -5 -5 -11 -11 -11c-13 2 -26 3 -39 3c-30 -5 -64 -4 -96 -4v-4c0 -7 0 -14 -1 -21c-6 -44 -5 -88 -8 -132c-1 -7 -1 -14 0 -21c1 -25 0 -49 -1 -74c0 -16 -1 -32 1 -48c3 -42 2 -84 -1 -126c-1 -15 -1 -29 -2 -43c-2 -23 -3 -45 0 -68c3 -16 2 -32 1 -48
c-1 -30 -1 -60 1 -90c3 -39 4 -77 1 -116c-1 -16 -1 -32 -1 -48c1 -23 0 -46 -3 -68c-1 -5 -1 -9 -1 -14c9 1 19 1 29 2c31 4 63 5 95 4h2c5 0 10 1 15 2c6 0 12 -6 11 -11c-1 -19 -2 -37 -3 -56c-1 -6 -5 -11 -11 -11c-9 1 -18 1 -26 1c-5 -1 -11 -2 -18 -2l-180 3
c-10 0 -13 11 -8 18c0 14 1 29 2 44v11c6 35 4 70 2 105c-1 16 -1 32 -2 48c-3 28 -2 56 1 84c2 21 3 42 -1 64c-2 12 -3 24 0 36c6 37 5 74 4 111c0 11 -2 21 -1 32c1 28 0 56 -6 84c-3 16 -3 32 -1 48c5 42 5 84 2 126c-1 20 -1 39 0 58c2 43 5 85 5 127c-1 11 1 21 2 32
c0 9 1 17 2 26c1 -1 3 -1 5 -1c0 6 4 11 11 11c69 -1 138 6 207 7c32 0 22 -53 22 -70z" />
    <glyph glyph-name="bracketright" unicode="]" horiz-adv-x="309" 
d="M53 921c69 -1 138 -8 207 -7c7 0 11 -5 11 -11c2 0 4 0 5 1c1 -9 2 -17 2 -26c1 -11 3 -21 2 -32c0 -42 3 -84 5 -127c1 -19 1 -38 0 -58c-3 -42 -3 -84 2 -126c2 -16 2 -32 -1 -48c-6 -28 -7 -56 -6 -84c1 -11 -1 -21 -1 -32c-1 -37 -2 -74 4 -111c3 -12 2 -24 0 -36
c-4 -22 -3 -43 -1 -64c3 -28 4 -56 1 -84c-1 -16 -1 -32 -2 -48c-2 -35 -4 -70 2 -105v-11c1 -15 2 -30 2 -44c5 -7 2 -18 -8 -18l-180 -3c-7 0 -13 1 -18 2c-8 0 -17 0 -26 -1c-6 0 -10 5 -11 11c-1 19 -2 37 -3 56c-1 5 5 11 11 11c5 -1 10 -2 15 -2h2c32 1 64 0 95 -4
c10 -1 20 -1 29 -2c0 5 0 9 -1 14c-3 22 -4 45 -3 68c0 16 0 32 -1 48c-3 39 -2 77 1 116c2 30 2 60 1 90c-1 16 -2 32 1 48c3 23 2 45 0 68c-1 14 -1 28 -2 43c-3 42 -4 84 -1 126c2 16 1 32 1 48c-1 25 -2 49 -1 74c1 7 1 14 0 21c-3 44 -2 88 -8 132c-1 7 -1 14 -1 21v4
c-32 0 -66 -1 -96 4c-13 0 -26 -1 -39 -3c-6 0 -11 6 -11 11c0 17 -10 70 22 70z" />
    <glyph glyph-name="breve" unicode="&#x2d8;" horiz-adv-x="351" 
d="M244 1015c15 10 31 12 48 7c3 -1 6 -4 10 -7c5 -4 9 -9 14 -12c13 -8 17 -14 13 -29c-5 -17 -8 -35 -22 -49c-15 -17 -27 -36 -41 -53c-3 -5 -9 -9 -14 -12c-27 -15 -53 -31 -85 -33c-16 0 -32 1 -48 7c-31 10 -49 34 -68 58c-5 7 -11 15 -15 23c-5 10 -8 21 -4 33
c4 15 5 31 9 46c1 4 3 10 6 11c15 6 29 9 44 2c8 -4 12 -10 14 -19c3 -16 6 -33 12 -48c10 -27 39 -44 69 -29c17 9 31 21 40 38c10 21 18 42 18 66z" />
    <glyph glyph-name="bullet" unicode="&#x2022;" horiz-adv-x="244" 
d="M32 409c3 28 13 62 47 82c9 5 16 13 26 16c11 3 20 4 31 5c32 3 54 -15 71 -38c14 -19 19 -41 16 -64c-1 -3 0 -7 -2 -8c-14 -7 -14 -24 -23 -34c-19 -21 -40 -38 -67 -44c-26 -6 -51 -1 -72 16c-18 16 -28 36 -27 69z" />
    <glyph glyph-name="c" unicode="c" horiz-adv-x="427" 
d="M257 73c13 19 32 34 43 55c1 3 2 5 3 8c5 13 11 25 14 38c5 18 8 36 12 54c1 8 3 15 4 23c23 10 34 8 50 -7c9 -7 11 -17 9 -26c-3 -26 -7 -52 -17 -77c-5 -15 -10 -30 -16 -45c-1 -2 -2 -4 -3 -5c-4 -5 -9 -10 -11 -15c-6 -15 -16 -25 -31 -32c-5 -2 -8 -6 -11 -12
c-6 -12 -18 -19 -30 -24c-10 -4 -21 -7 -32 -8c-8 0 -17 3 -25 5c-16 4 -31 9 -46 13c-33 11 -61 31 -83 58c-7 8 -13 17 -17 26c-9 21 -20 39 -24 62c-5 24 -10 48 -14 72c-3 22 -1 45 -1 68c0 24 -1 48 1 72c2 42 2 84 13 125c3 10 3 20 4 30c5 28 16 55 25 82
c8 27 23 50 39 72c6 8 10 16 15 24c1 1 1 3 2 4c16 13 31 27 47 38c19 14 42 19 65 21c8 1 17 -4 25 -4c18 -1 34 -6 49 -15c28 -16 54 -36 66 -68c9 -24 14 -51 20 -76c2 -10 4 -21 4 -31c1 -14 1 -28 -1 -41c0 -7 -5 -14 -9 -19c-4 -6 -14 -6 -19 -2c-10 8 -19 18 -29 26
c-6 5 -6 11 -6 17v25s-1 16 -1 24c-1 24 -6 48 -16 70c-4 9 -11 17 -17 25c-4 6 -11 7 -16 2c-7 -5 -16 -9 -18 -19c-17 -10 -22 -29 -30 -45c-7 -15 -11 -31 -17 -46c-4 -12 -9 -23 -12 -35c-2 -7 -2 -14 -3 -20c-1 -4 0 -7 -1 -10c-10 -41 -12 -82 -12 -124
c0 -13 -2 -26 -4 -39c-5 -44 -9 -88 -5 -132c3 -32 9 -63 19 -94c3 -11 14 -20 12 -33c15 -8 14 -31 36 -35z" />
    <glyph glyph-name="caron" unicode="&#x2c7;" horiz-adv-x="346" 
d="M149 912c8 7 18 14 26 22c15 14 29 30 45 44c12 11 26 20 43 19c1 0 2 1 3 1c17 5 30 0 39 -15c2 -3 6 -6 10 -8c13 -8 15 -25 3 -36c-14 -13 -27 -27 -41 -40c-9 -9 -19 -17 -28 -25c-17 -14 -34 -28 -52 -41c-11 -8 -24 -14 -37 -20s-27 -3 -38 7c-13 13 -27 26 -40 39
s-19 29 -29 44c-10 17 -16 36 -23 56c7 7 9 19 21 24c8 3 16 5 24 -1c1 0 2 -2 4 -2c15 -2 24 -12 33 -23c12 -15 24 -29 37 -45z" />
    <glyph glyph-name="cedilla" unicode="&#xb8;" horiz-adv-x="303" 
d="M87 -270c3 -8 8 -16 11 -26c6 -18 23 -21 39 -23c19 -3 32 9 47 18c6 4 10 10 16 15c19 14 21 34 17 55c-1 3 -2 5 -3 8c-7 27 -8 23 -33 22c-13 0 -26 -5 -40 -6c-9 -1 -19 1 -29 3c-7 2 -14 5 -21 7c-19 6 -28 19 -23 39c3 11 1 22 8 33c18 28 34 58 51 87
c5 7 11 14 17 20c3 3 9 6 14 6c11 -1 23 1 34 -6c10 -7 14 -15 10 -27c-8 -26 -22 -49 -36 -72l-12 -18c3 -1 4 -2 5 -2c30 7 55 -1 76 -23c18 -18 32 -37 41 -59c18 -45 0 -104 -44 -124c-21 -9 -42 -17 -63 -25c-2 -1 -3 -1 -5 -1c-18 1 -38 -3 -55 8c-2 2 -4 3 -7 3
c-24 6 -41 22 -59 37c-11 8 -17 33 -12 46c1 2 3 5 6 6c6 2 13 4 20 4c9 -1 18 -3 30 -5z" />
    <glyph glyph-name="cent" unicode="&#xa2;" horiz-adv-x="419" 
d="M388 273c9 -5 11 -12 10 -19c-1 -21 -4 -41 -13 -61c-5 -12 -9 -24 -14 -36c0 -1 -1 -3 -2 -4c-4 -4 -8 -8 -11 -12c-5 -12 -14 -21 -29 -27c-4 -2 -7 -5 -10 -10c-5 -10 -17 -16 -29 -21c-10 -3 -21 -6 -31 -7c-4 -1 -9 -1 -13 0v-10l3 -30v-55c1 -9 -5 -13 -11 -12
c-15 1 -33 -1 -45 13c1 11 -1 22 -7 33c-4 9 -5 20 -6 30c-1 14 -1 28 0 41c-31 7 -57 20 -79 37c-8 6 -14 13 -18 20c-10 15 -22 29 -28 46c-6 18 -12 37 -17 55c-4 17 -4 35 -5 52c-1 19 -3 38 -3 56c1 33 -2 66 7 98c2 8 2 16 3 23c3 23 13 44 20 65c7 22 21 41 36 59
c5 6 9 13 13 19c1 1 1 3 3 3c14 12 29 23 44 33c9 6 18 10 28 13c0 10 -1 21 -1 31c-1 10 -3 20 -3 30c0 18 0 37 -1 55c0 9 6 13 12 12c15 -1 32 1 45 -13c-1 -11 1 -22 6 -33c5 -9 6 -20 7 -30c1 -16 0 -31 0 -46c16 0 31 -3 46 -8c29 -11 56 -25 69 -48
c10 -19 17 -39 24 -58c3 -8 5 -16 6 -24c1 -10 2 -21 1 -32c0 -5 -5 -10 -9 -15c-3 -5 -13 -6 -18 -3c-10 6 -20 13 -31 19c-6 3 -6 7 -6 13s-1 12 -2 19c0 6 -1 12 -2 18c-2 19 -9 37 -20 53c-4 7 -11 13 -17 19c-5 4 -12 4 -17 0c-7 -5 -15 -8 -17 -16
c-16 -9 -20 -24 -27 -37c-7 -11 -10 -24 -15 -37c-3 -9 -8 -18 -10 -27c-2 -6 -2 -11 -2 -16v-8c-9 -32 -8 -64 -6 -97c0 -10 -1 -20 -2 -30c-3 -34 -4 -68 2 -102c4 -25 12 -49 23 -72c4 -8 16 -14 14 -25c15 -5 16 -22 38 -24c12 15 30 28 39 45c2 2 3 4 4 7
c4 10 9 20 12 30c4 14 6 28 9 42c1 6 2 12 2 18c23 10 34 9 51 -2z" />
    <glyph glyph-name="circumflex" unicode="&#x2c6;" horiz-adv-x="346" 
d="M149 898c-13 -16 -25 -30 -37 -45c-9 -11 -18 -21 -33 -23c-2 -1 -3 -2 -4 -3c-8 -5 -16 -3 -24 0c-12 5 -14 16 -21 24c7 20 13 38 23 56c10 15 16 31 29 44s27 26 40 39c11 10 25 13 38 7s26 -12 37 -20c18 -13 35 -27 52 -41c9 -8 19 -16 28 -25c14 -13 27 -27 41 -40
c12 -11 10 -29 -3 -36c-4 -3 -8 -5 -10 -8c-9 -15 -22 -21 -39 -15c-1 0 -2 1 -3 1c-17 -1 -31 8 -43 19c-16 14 -30 30 -45 44c-8 8 -18 15 -26 22z" />
    <glyph glyph-name="colon" unicode=":" horiz-adv-x="131" 
d="M76 286c16 1 29 -7 33 -18c5 -17 -1 -32 -15 -41c-10 -6 -21 -7 -32 -7c-1 0 -3 0 -4 1c-9 11 -23 18 -27 33c-3 14 4 27 18 29c9 2 18 2 27 3zM76 589c16 1 29 -7 33 -18c5 -18 -1 -32 -15 -41c-10 -6 -21 -7 -32 -7c-1 0 -3 0 -4 1c-9 11 -23 18 -27 33
c-3 14 4 26 18 29c9 2 18 2 27 3z" />
    <glyph glyph-name="comma" unicode="," horiz-adv-x="163" 
d="M86 -83c-10 11 -18 19 -27 29c15 15 28 29 27 51c-21 2 -37 12 -50 28c-6 8 -9 15 -6 25c2 4 2 8 4 12c2 5 6 11 10 13c14 4 29 7 43 8c14 0 25 -8 31 -21c6 -12 14 -23 19 -36c13 -34 2 -74 -26 -97c-7 -5 -16 -7 -25 -12z" />
    <glyph glyph-name="copyright" unicode="&#xa9;" horiz-adv-x="689" 
d="M444 504c1 -5 2 -11 2 -16c0 -7 1 -14 0 -21c-1 -3 -3 -7 -5 -10s-7 -3 -10 -1c-5 5 -10 9 -15 14c-3 2 -3 5 -3 9v12s-1 9 -1 13c0 12 -3 24 -8 36c-2 5 -5 9 -8 13c-3 3 -6 3 -9 1c-3 -3 -8 -5 -9 -10c-9 -5 -11 -15 -15 -23s-6 -16 -9 -24c-2 -6 -5 -12 -7 -18
c-1 -3 -1 -7 -1 -11v-4c-6 -21 -7 -43 -7 -64c0 -7 -1 -14 -2 -21c-2 -22 -4 -45 -2 -67c1 -17 4 -33 9 -49c2 -6 8 -10 7 -17c7 -4 7 -16 18 -18c7 10 17 17 22 28c1 2 2 3 2 4c3 7 5 13 7 20c3 9 4 19 6 28c1 4 2 8 2 12c12 5 18 4 26 -4c5 -4 6 -9 5 -13
c-2 -14 -4 -27 -9 -40c-3 -8 -5 -16 -8 -23c-1 -1 -1 -2 -2 -3c-2 -3 -4 -5 -5 -8c-4 -7 -9 -13 -16 -16c-3 -1 -4 -3 -6 -6c-3 -6 -9 -10 -16 -13c-5 -2 -10 -3 -16 -4c-4 0 -9 2 -13 3c-8 2 -16 4 -24 7c-17 5 -31 15 -43 29c-3 4 -6 9 -8 14c-5 10 -11 20 -13 32
s-5 25 -7 37c-1 11 -1 23 -1 35s0 25 1 37c1 22 1 44 7 65c1 5 1 10 2 15c2 15 8 28 13 42c4 14 11 26 20 38c3 3 5 8 8 12c0 0 0 1 1 2c8 6 16 14 24 20c10 7 21 9 33 11c5 0 9 -3 13 -3c9 0 18 -3 26 -8c14 -8 28 -18 34 -34c4 -13 7 -27 10 -40zM668 456
c1 -22 0 -44 -3 -67c0 -14 -2 -28 -5 -42c-5 -37 -13 -74 -28 -108c-4 -15 -11 -28 -19 -40v-1c1 -2 1 -6 0 -8c-3 -8 -7 -16 -11 -24c-10 -23 -25 -43 -44 -61c-10 -10 -22 -17 -33 -26c-5 -3 -10 -6 -14 -10c-20 -15 -39 -30 -64 -35c-27 -5 -53 -15 -81 -14
c-9 0 -18 -3 -28 -3c-14 -1 -28 -1 -43 1c-10 3 -22 2 -33 5c-24 8 -50 16 -73 27c-14 6 -26 19 -38 29c-10 9 -18 20 -28 29c-20 18 -33 41 -44 64c-16 33 -29 67 -35 104c-5 30 -10 59 -10 89c0 28 -2 56 -4 84c0 3 0 6 1 9c8 27 14 54 24 80c5 13 15 24 23 37
c10 14 19 29 29 43c4 6 8 12 13 17c13 14 26 28 40 40c22 18 44 35 67 51c6 5 15 5 22 8c21 9 44 14 66 18s43 5 65 8c9 1 18 1 28 2c28 3 54 -2 79 -16c1 -1 2 -1 3 -1c23 -9 43 -23 63 -37c9 -7 20 -13 28 -21c3 -3 6 -7 9 -10c55 -52 75 -154 78 -221zM535 169
c67 101 92 241 78 365l-3 21c-1 2 -1 3 -1 5h-1c-6 21 -18 41 -31 59c-7 14 -16 26 -30 36c-2 1 -3 2 -5 3c-10 8 -18 19 -27 27c-29 22 -56 33 -88 37c-5 -1 -9 -2 -14 -4c-3 -2 -7 -1 -11 -1c-20 -2 -41 -2 -61 -6c-21 -4 -41 -13 -62 -19c-26 -8 -45 -26 -64 -44
c-15 -14 -30 -27 -43 -41c-12 -13 -22 -27 -32 -41c-16 -23 -32 -45 -37 -73c-4 -29 -13 -57 -12 -86c0 -9 0 -18 1 -27c4 -32 3 -65 12 -96c5 -16 7 -32 10 -48c6 -26 19 -48 33 -70c19 -31 43 -59 77 -78c17 -9 32 -21 50 -22c26 -1 51 -8 77 -3c17 3 34 4 51 8
c12 3 24 8 35 13c14 7 29 14 42 24c17 14 34 29 49 46c2 2 3 5 5 7c0 3 0 6 2 8z" />
    <glyph glyph-name="d" unicode="d" horiz-adv-x="406" 
d="M21 765c4 3 9 4 11 7c9 12 18 9 28 4c11 -6 21 -4 32 -3c11 0 22 1 33 3c4 0 9 2 14 3c7 -9 18 -8 28 -9c19 0 37 -2 55 -3h2c13 -9 27 -17 40 -25c5 -3 9 -9 14 -12c14 -6 22 -19 31 -30c5 -6 12 -12 17 -18c4 -5 8 -10 11 -15c9 -23 18 -46 25 -69
c13 -39 14 -78 17 -118c1 -23 5 -45 5 -67c-1 -37 5 -75 -4 -111c-5 -18 -8 -37 -15 -54c-7 -15 -9 -32 -14 -48c-3 -13 -8 -26 -11 -40c-6 -22 -22 -39 -31 -59c-4 -8 -14 -13 -22 -19c-11 -10 -22 -19 -32 -30c-14 -15 -33 -23 -53 -29c-4 -1 -8 -2 -12 -4
c-12 -5 -24 -12 -37 -16c-7 -3 -15 -3 -23 -3c-9 1 -18 3 -27 4c-8 2 -16 4 -24 3c-8 0 -15 2 -22 7c-6 4 -14 9 -21 13c-6 4 -9 9 -9 17c1 16 1 32 1 48c1 34 1 67 2 101c1 39 3 79 3 119c0 32 -1 64 -1 96c0 27 1 55 0 82c0 33 -1 65 -1 98c0 39 1 78 1 118
c0 11 -3 22 -5 33c-2 9 -4 17 -6 26zM166 67c5 2 9 2 11 4c8 6 16 12 24 17c36 24 58 58 72 97c8 24 14 49 22 74c11 36 19 73 17 111c-1 17 5 35 -3 52c6 21 2 41 0 62c-3 38 -5 76 -14 113c-9 34 -24 65 -52 88c-8 6 -19 10 -27 16c-18 13 -39 14 -61 12v-10l3 -63l3 -111
c1 -30 2 -60 2 -89c0 -30 -2 -59 -3 -88c0 -26 2 -51 2 -76c1 -20 -1 -40 -1 -60c1 -43 4 -86 5 -129v-20z" />
    <glyph glyph-name="dieresis" unicode="&#xa8;" horiz-adv-x="240" 
d="M76 892c16 1 29 -7 33 -18c5 -17 -1 -32 -15 -41c-10 -6 -21 -7 -32 -7c-1 0 -4 0 -4 1c-10 11 -23 18 -27 33c-4 14 4 27 18 29c9 2 18 2 27 3zM185 892c16 1 30 -7 33 -18c5 -17 0 -32 -15 -41c-10 -6 -20 -7 -31 -7c-2 0 -4 0 -5 1c-9 11 -22 18 -26 33
c-4 14 3 27 18 29c9 2 17 2 26 3z" />
    <glyph glyph-name="divide" unicode="&#xf7;" horiz-adv-x="656" 
d="M275 500c-18 16 -28 36 -27 69c3 28 13 62 47 82c9 5 15 13 26 16s20 5 31 5c32 3 54 -15 71 -38c14 -19 19 -41 16 -64c-1 -3 0 -7 -2 -8c-14 -7 -14 -23 -23 -34c-19 -21 -40 -38 -67 -44c-26 -6 -51 -1 -72 16zM352 298c32 3 54 -15 71 -38c14 -19 19 -41 16 -64
c-1 -3 0 -7 -2 -8c-14 -7 -14 -23 -23 -34c-19 -21 -40 -38 -67 -44c-26 -6 -51 -1 -72 16c-18 16 -28 36 -27 69c3 28 13 62 47 82c9 5 15 13 26 16s20 5 31 5zM635 380c1 -19 -14 -32 -28 -33c-21 -2 -42 -3 -63 -2c-41 2 -81 2 -122 2c-30 -1 -60 3 -93 -1h-34
c-28 -1 -56 -1 -85 -2c-47 -2 -95 -1 -143 0c-5 0 -10 1 -15 1c-12 2 -22 14 -22 26c0 9 1 18 2 27c0 7 10 16 18 17c3 1 7 2 10 2c18 1 35 1 53 2h85c46 0 91 -1 137 3c37 2 74 2 111 3h138c11 0 21 -2 31 -5c7 -3 12 -8 15 -14c4 -8 5 -17 5 -26z" />
    <glyph glyph-name="dollar" unicode="$" horiz-adv-x="376" 
d="M179 720c-1 19 -2 37 -3 56c0 10 -2 20 -2 30c-1 18 0 37 -1 55c0 9 6 13 12 12c15 -1 32 1 45 -13c-1 -11 1 -22 6 -33c5 -9 6 -20 7 -30c1 -17 0 -34 0 -51v-15c12 -7 23 -13 34 -19c2 0 4 -2 4 -4c1 -16 15 -25 23 -36c11 -15 19 -29 22 -47c4 -23 0 -42 -11 -61
c-7 -14 -22 -19 -37 -13c-12 5 -24 11 -23 27c1 5 3 10 4 15c1 6 3 12 3 18c1 9 0 18 -1 26c-1 16 -17 34 -38 40c-25 -26 -46 -53 -45 -93c1 -19 5 -37 8 -55c1 -5 4 -11 7 -15c20 -29 39 -58 59 -87c20 -27 39 -56 61 -81c23 -26 31 -58 39 -90c5 -18 3 -39 2 -58
c0 -15 -2 -30 -4 -45c-2 -9 -5 -17 -9 -25c-10 -23 -19 -47 -36 -66c-11 -13 -24 -25 -38 -35c-12 -9 -25 -20 -41 -22c-3 0 -6 -4 -9 -6c0 -3 -1 -6 0 -8c12 -22 5 -44 7 -67c0 -7 1 -13 2 -20c2 -12 -3 -23 -11 -30s-20 -8 -30 -1c-5 3 -10 6 -15 10c-6 4 -9 10 -10 18
c-1 29 -4 58 -6 87c0 2 -1 5 -2 8h-9c-21 -1 -39 8 -57 17c-9 4 -17 10 -25 15c-13 7 -20 16 -22 31s-8 30 -9 45c0 26 4 53 25 73c1 1 3 2 3 4c9 21 29 22 47 25c9 1 19 -8 18 -17c-1 -4 -1 -7 -3 -9c-6 -13 -13 -25 -18 -38c-8 -23 -11 -46 5 -68c10 -13 24 -20 39 -25
c1 0 4 0 5 1c14 5 27 12 41 16c19 7 30 20 38 38c10 23 13 48 16 72c1 17 -3 35 -4 53c-2 21 -7 40 -16 58c-9 16 -18 31 -28 46c-14 22 -31 43 -44 66c-9 17 -25 28 -37 44c-11 14 -18 30 -26 46c-2 6 -5 12 -7 19c-4 9 -8 18 -10 28c-6 27 -5 55 -2 82c1 15 11 26 19 37
c9 11 19 21 29 32c1 2 4 3 6 4c17 10 34 19 53 29z" />
    <glyph glyph-name="dotaccent" unicode="&#x2d9;" horiz-adv-x="180" 
d="M29 901c1 15 7 27 22 32c14 6 27 11 43 10c8 0 16 5 24 0c30 -16 51 -50 38 -84c-7 -19 -24 -27 -42 -31c-26 -5 -47 9 -67 22c-4 3 -7 8 -8 13c-4 13 -7 25 -10 38z" />
    <glyph glyph-name="e" unicode="e" horiz-adv-x="326" 
d="M155 428c8 1 15 0 21 2c18 7 37 4 56 4c4 0 9 -2 13 -4c18 -14 14 -34 -7 -42c-7 -2 -15 -4 -23 -4c-21 1 -43 -4 -63 -7c-12 -50 -10 -287 -7 -330c13 -6 26 1 38 2c17 1 33 4 49 11c19 8 45 1 58 -15c4 -5 8 -11 1 -18c-2 -1 -2 -4 -3 -5c-7 -14 -19 -19 -35 -16
c-4 1 -9 0 -13 0c-21 -3 -41 -7 -61 -9c-17 -2 -33 -3 -50 -4c-9 -1 -18 -1 -27 -2c-4 0 -10 2 -14 0c-14 -8 -24 2 -33 9c-11 7 -16 19 -18 32c0 7 -3 13 -3 20c-2 13 -5 25 -1 38c2 8 1 16 2 24c7 49 4 99 5 149c1 47 3 93 4 139c1 43 0 85 2 127c1 30 3 59 5 88
c1 40 3 80 4 120c1 9 2 17 3 26c1 7 5 11 12 12c13 0 25 -1 38 -1c35 1 70 2 105 2c21 1 42 1 63 1c10 0 19 -6 26 -14c2 -3 4 -9 3 -13c-6 -16 -16 -23 -32 -24c-5 0 -10 1 -15 1c-23 -1 -47 -1 -70 -1c-8 0 -17 1 -26 1c-12 1 -15 -2 -15 -13c0 -14 1 -28 1 -42
c1 -37 2 -75 3 -112l3 -120c0 -4 1 -7 1 -12z" />
    <glyph glyph-name="eight" unicode="8" horiz-adv-x="353" 
d="M248 395c17 -20 34 -38 48 -58c8 -12 14 -26 18 -40c7 -21 11 -42 16 -63c6 -22 1 -44 1 -66c0 -36 -13 -68 -35 -96c-9 -11 -21 -19 -32 -28c-5 -4 -10 -10 -16 -11c-23 -4 -46 -9 -70 -4c-15 2 -30 5 -43 13c-8 4 -17 7 -26 9c-16 4 -26 15 -36 25
c-16 15 -25 36 -31 58c-8 29 -8 57 -12 86c-1 9 2 19 2 28c1 29 13 54 24 79c6 13 14 26 20 39c6 11 17 17 27 23c11 8 13 10 7 22s-12 25 -20 36c-11 17 -17 35 -17 56c-1 10 -2 21 -6 31c-5 11 -9 23 -12 35c-6 19 -5 37 -1 56c0 1 1 2 1 3c-2 25 13 43 28 61c1 2 3 4 4 7
c8 17 23 27 39 37c22 13 45 9 68 7c11 -2 21 -5 31 -8c18 -5 33 -15 46 -28c18 -19 27 -43 33 -68c6 -22 7 -45 4 -67c-2 -24 -10 -47 -16 -70c-3 -11 -6 -21 -12 -31c-6 -12 -15 -22 -23 -33c-4 -7 -8 -13 -7 -22c0 -7 -2 -13 -2 -18zM143 348c-9 -3 -12 -11 -15 -18
c-8 -17 -15 -35 -23 -52c-9 -21 -11 -43 -12 -66c0 -27 4 -54 15 -81c8 -18 18 -33 34 -44c7 -5 14 -6 22 -3c15 6 33 7 40 25c22 15 23 39 22 61c-1 23 -5 46 -15 67c-10 25 -20 51 -36 73c-9 13 -21 25 -32 38zM205 474c9 6 14 12 19 23c18 38 25 79 22 121
c-1 25 -11 46 -23 67c-8 14 -22 17 -30 6c-11 -16 -21 -32 -24 -52c-4 -28 -1 -55 4 -82c1 -6 3 -12 4 -18c3 -24 10 -47 28 -65z" />
    <glyph glyph-name="ellipsis" unicode="&#x2026;" horiz-adv-x="339" 
d="M76 66c16 1 29 -7 33 -18c5 -18 -1 -32 -15 -41c-10 -6 -21 -7 -32 -7c-1 0 -3 0 -4 1c-9 11 -23 18 -27 33c-3 14 4 26 18 29c9 2 18 2 27 3zM180 66c16 1 29 -7 33 -18c5 -18 -1 -32 -15 -41c-10 -6 -21 -7 -32 -7c-1 0 -3 0 -4 1c-9 11 -23 18 -27 33
c-3 14 4 26 18 29c9 2 18 2 27 3zM284 66c16 1 29 -7 33 -18c5 -18 -1 -32 -15 -41c-10 -6 -21 -7 -32 -7c-1 0 -3 0 -4 1c-9 11 -23 18 -27 33c-3 14 4 26 18 29c9 2 18 2 27 3z" />
    <glyph glyph-name="emdash" unicode="&#x2014;" horiz-adv-x="656" 
d="M295 361c-28 -1 -56 -1 -85 -2c-47 -2 -95 -1 -143 0c-5 0 -10 1 -15 1c-12 2 -22 14 -22 26c0 9 1 18 2 27c0 7 10 16 18 17c3 1 7 2 10 2c18 1 35 1 53 2h85c46 0 91 -1 137 3c37 2 74 2 111 3h138c11 0 21 -2 31 -5c7 -3 12 -8 15 -14c4 -8 5 -17 5 -26
c1 -19 -14 -32 -28 -33c-21 -2 -42 -3 -63 -2c-41 2 -81 2 -122 2c-30 -1 -60 3 -93 -1h-34z" />
    <glyph glyph-name="endash" unicode="&#x2013;" horiz-adv-x="656" 
d="M295 361c-28 -1 -56 -1 -85 -2c-47 -2 -95 -1 -143 0c-5 0 -10 1 -15 1c-12 2 -22 14 -22 26c0 9 1 18 2 27c0 7 10 16 18 17c3 1 7 2 10 2c18 1 35 1 53 2h85c46 0 91 -1 137 3c37 2 74 2 111 3h138c11 0 21 -2 31 -5c7 -3 12 -8 15 -14c4 -8 5 -17 5 -26
c1 -19 -14 -32 -28 -33c-21 -2 -42 -3 -63 -2c-41 2 -81 2 -122 2c-30 -1 -60 3 -93 -1h-34z" />
    <glyph glyph-name="exclam" unicode="!" horiz-adv-x="193" 
d="M173 590v-13c-1 -27 0 -54 -1 -82c-1 -24 -3 -48 -5 -72c-2 -29 -5 -58 -8 -88c-2 -23 -5 -46 -5 -69c-2 -36 -1 -73 -2 -110c-1 -32 -3 -64 -3 -96c0 -11 -1 -21 -7 -30c-3 -5 -5 -11 -9 -13s-10 -2 -16 -1c-18 1 -37 4 -56 5c-16 1 -26 10 -27 26c-1 28 -1 57 -2 85
c0 7 -1 15 -1 22c-3 50 6 98 9 148c1 39 3 78 3 117c1 28 1 56 1 85v101c-1 35 0 71 5 107c1 12 0 25 0 39c13 2 24 4 35 7c10 2 19 5 28 8c14 4 21 -4 31 -9c1 0 1 0 1 -1c16 -11 23 -25 25 -44c1 -20 3 -40 3 -60c-1 -21 0 -42 1 -62zM123 -50c8 -16 10 -15 9 -33
c3 -13 -4 -25 -11 -37c-9 -13 -26 -19 -45 -13c-16 6 -26 17 -35 32c-11 22 5 53 26 56c4 1 8 4 11 6c12 7 36 5 45 -11z" />
    <glyph glyph-name="exclamdown" unicode="&#xa1;" horiz-adv-x="193" 
d="M173 156v-12c-1 -21 -2 -42 -1 -63c0 -20 -2 -40 -3 -59c-2 -20 -9 -34 -25 -45c0 0 0 -1 -1 -1c-10 -5 -17 -13 -31 -9c-9 3 -18 6 -28 8c-11 3 -22 5 -35 7c0 14 1 27 0 40c-5 35 -6 71 -5 106v101c0 29 0 57 -1 86c0 39 -2 78 -3 117c-3 49 -12 98 -9 147
c0 7 1 15 1 22c1 28 1 57 2 85c1 16 11 25 27 26c19 2 38 4 56 5c6 1 12 1 16 -1s6 -8 9 -12c6 -10 7 -20 7 -30c0 -33 2 -65 3 -97c1 -37 0 -73 2 -110c0 -23 3 -46 5 -69c3 -30 6 -59 8 -88c2 -24 4 -48 5 -72c1 -27 0 -55 1 -82zM132 816c1 -18 -1 -17 -9 -33
c-9 -16 -33 -17 -45 -10c-3 2 -7 4 -11 5c-21 3 -37 35 -26 56c9 15 19 26 35 32c19 6 36 0 45 -13c7 -12 14 -23 11 -37z" />
    <glyph glyph-name="f" unicode="f" horiz-adv-x="302" 
d="M155 416c8 1 14 3 20 4c10 1 19 2 29 3c6 1 12 2 17 4c19 8 36 0 51 -10c5 -3 7 -10 10 -16c-7 -10 -14 -21 -21 -31c-37 8 -72 -1 -105 -6c-2 -46 -4 -89 -5 -132c-1 -30 -1 -60 -1 -90c0 -39 1 -78 1 -117c0 -5 -2 -10 -3 -15c-6 -14 -6 -13 -20 -13c-17 1 -34 0 -52 1
c-27 1 -45 19 -46 46c0 11 1 22 2 33c0 2 1 5 1 7c-5 27 4 53 3 80c-1 26 0 53 1 79v47c0 30 1 59 2 88c0 25 -1 49 0 73c0 10 2 19 2 28c2 27 3 54 4 81c2 58 3 117 -4 175c-2 10 -3 19 -4 30c3 5 9 8 16 7c31 0 62 -1 93 -1c17 0 35 1 52 1c12 1 24 2 36 4s22 -4 32 -10
c9 -5 11 -15 9 -24c-2 -7 -7 -14 -16 -17c-12 -4 -25 -3 -37 -3c-19 0 -38 1 -57 2c-10 0 -11 -1 -11 -12c0 -47 2 -93 2 -140c0 -23 -1 -46 -1 -69c-1 -26 -1 -52 -2 -77c0 -3 1 -5 2 -10z" />
    <glyph glyph-name="five" unicode="5" horiz-adv-x="401" 
d="M138 715c3 -26 4 -49 8 -71c5 -20 3 -39 1 -58c0 -4 -1 -7 0 -11c2 -31 5 -62 6 -93c1 -14 1 -29 1 -44c7 3 15 7 24 9c35 9 70 10 106 4c21 -3 35 -14 47 -31l3 -3c18 -15 22 -37 26 -58c1 -4 1 -8 3 -12c8 -18 11 -36 12 -55c1 -17 4 -33 5 -50c1 -22 -4 -44 -9 -65
c-3 -10 -5 -21 -7 -31c-5 -28 -19 -51 -39 -71c-4 -4 -8 -7 -12 -11c-6 -7 -13 -11 -22 -14s-18 -8 -26 -13c-20 -13 -42 -21 -65 -24c-3 0 -6 -1 -9 0c-13 3 -27 7 -39 11c-37 11 -67 33 -94 60c-6 6 -10 15 -12 23c-5 20 -9 40 -13 60c-3 12 14 28 28 28c2 -1 5 -1 7 -1
c16 0 27 -10 26 -25c-3 -20 5 -39 10 -58c4 -16 17 -27 32 -33c19 -7 39 -9 58 4c8 5 18 8 25 14c30 28 43 65 45 104c1 35 2 70 -4 105c-4 21 -5 43 -7 64c-2 12 -3 24 -15 31c-2 1 -3 5 -4 6c-26 1 -43 -17 -60 -32c-6 -4 -10 -10 -15 -15c-9 -9 -20 -11 -33 -7
c-10 4 -19 5 -29 2c-5 -1 -12 0 -17 2c-10 4 -19 8 -28 13s-12 14 -12 23c0 30 -3 60 -1 89c2 33 -1 64 -7 96c0 2 -1 3 -1 5c0 35 0 71 -1 107c0 15 0 30 1 45c0 5 1 11 4 14c6 8 15 13 25 13c13 0 27 -2 40 -2c15 0 31 1 46 3c28 3 57 5 86 1c13 -1 26 2 39 2
c7 0 14 -2 21 -3c4 -1 7 -4 10 -4c10 -1 16 -6 17 -15c2 -11 1 -22 -8 -29c-4 -4 -12 -4 -18 -3c-29 6 -59 9 -88 9c-21 0 -42 -3 -67 -5z" />
    <glyph glyph-name="four" unicode="4" horiz-adv-x="416" 
d="M134 758c13 1 25 3 37 2c13 -1 22 -10 22 -23c0 -25 1 -50 -1 -74c-4 -35 -8 -70 -15 -105s-12 -71 -32 -102c-10 -16 -18 -34 -26 -50c-1 -2 -1 -4 -2 -8c50 -5 100 -6 151 6v41c-2 38 -5 75 -2 113c2 26 -1 53 0 79c0 24 0 48 1 72c1 11 2 21 4 32c1 8 5 12 14 11
c13 0 26 4 40 0c7 -2 15 3 23 2c13 0 26 -1 39 -3c5 0 10 -13 8 -18c-3 -8 -8 -14 -12 -22c1 -18 1 -37 2 -56c0 -18 1 -36 2 -54v-58c-1 -37 -8 -74 -6 -112c1 -27 -3 -55 -4 -82c-1 -20 -1 -41 -3 -61c-2 -17 3 -33 -2 -50c-2 -8 2 -18 3 -27c1 -7 2 -14 2 -21
c0 -34 0 -69 1 -103c0 -10 2 -20 4 -30c3 -10 -2 -16 -8 -22c-8 -11 -21 -13 -34 -16c-8 -3 -16 -3 -24 -6c-23 -8 -40 4 -57 17c-3 2 -4 8 -4 12c-2 11 -3 22 -3 34c0 9 1 18 2 26c1 13 3 26 4 38c2 17 4 35 5 52c0 21 0 42 -2 62c-2 23 -1 46 1 69c1 7 2 14 2 20
c-14 3 -28 5 -41 7c-2 0 -5 0 -8 -1c-20 -5 -40 -3 -60 0c-12 2 -23 1 -35 1h-26c-19 -1 -34 6 -47 19c-6 5 -12 10 -17 14c2 12 6 21 12 28c8 8 12 18 16 28c7 17 17 32 24 48c7 17 12 35 17 52c6 20 11 41 16 61c4 20 6 40 9 60c2 9 2 18 5 27c5 17 5 34 3 51
c0 6 1 13 2 20z" />
    <glyph glyph-name="fraction" unicode="&#x2044;" horiz-adv-x="413" 
d="M31 -2c5 21 9 41 14 62c3 11 7 22 10 33c14 46 30 92 43 138c13 47 25 94 37 140c9 32 17 63 26 95c6 19 14 38 20 58c5 15 9 30 14 45c8 21 16 42 23 64c9 27 17 55 26 82c5 18 8 35 13 52c2 6 6 12 9 18c11 0 22 1 33 2c2 0 5 -1 7 -2c18 -17 43 -21 65 -29
c20 -6 26 -18 18 -37c-2 -6 -3 -12 -4 -18c0 -13 -1 -25 -6 -37c-6 -13 -7 -27 -11 -41c-8 -27 -14 -55 -27 -81c-13 -25 -23 -50 -34 -75c-13 -28 -29 -55 -39 -85c-12 -38 -30 -74 -43 -113c-14 -42 -27 -84 -41 -126c-4 -12 -5 -24 -9 -36c-6 -20 -14 -39 -21 -58
c-6 -14 -11 -29 -16 -44c0 -2 1 -5 1 -8c2 -11 -3 -18 -13 -21c-7 -1 -13 -1 -19 -2c-7 -1 -15 1 -21 -6c-1 -2 -6 -2 -8 -2c-8 1 -15 3 -22 5c-2 1 -5 2 -7 4c-6 8 -12 16 -18 23z" />
    <glyph glyph-name="g" unicode="g" horiz-adv-x="414" 
d="M301 697c-12 3 -20 0 -28 -4c-26 -11 -42 -31 -54 -55c-11 -23 -23 -47 -32 -71c-7 -17 -11 -36 -14 -54c-3 -24 -5 -48 -7 -72c-1 -11 -4 -23 -4 -34c-2 -35 -4 -70 -4 -106c1 -31 2 -64 6 -95c5 -29 11 -59 29 -84c7 -10 17 -19 27 -26c12 -9 31 -8 43 1
c8 6 15 14 20 22c25 35 37 75 35 119c0 24 -1 48 -2 74c-15 -1 -27 -1 -40 -2c-12 -1 -23 -1 -33 7c-6 5 -14 6 -19 12c-8 10 -5 18 6 21c14 2 27 4 41 7c15 3 31 6 47 9c13 2 26 3 39 4c15 0 26 -8 33 -21c-4 -10 -9 -20 -13 -29c8 -27 9 -55 11 -82c1 -17 -2 -33 3 -49
c4 -10 2 -20 -2 -31c-7 -16 -13 -34 -19 -50c-9 -21 -20 -39 -36 -55c-8 -8 -17 -14 -27 -20c-4 -3 -8 -6 -13 -8c-3 -2 -8 -4 -11 -3c-9 3 -16 0 -23 -2c-10 -2 -20 -3 -31 -5s-23 -2 -35 1c-10 2 -20 2 -31 4c-2 0 -5 3 -8 4c-6 5 -10 13 -19 12c-3 0 -6 7 -9 9
c-21 14 -36 35 -51 55c-10 13 -20 28 -21 47c-1 12 -6 24 -9 35c-7 31 -10 62 -11 93c-1 9 -3 19 -4 28c0 3 -1 6 -1 9c2 19 4 38 5 57c1 12 -1 24 0 36c2 22 3 44 7 65c6 32 14 63 22 93c5 18 11 36 17 53c6 16 13 31 21 46c4 7 10 13 15 20c16 22 31 47 58 58
c23 11 47 24 74 25c20 1 37 -2 55 -11c8 -3 17 -4 25 -8c5 -1 10 -4 14 -7c6 -8 10 -16 15 -24c12 -16 20 -34 22 -54c2 -32 7 -65 0 -97c-4 -17 -4 -36 -4 -54c0 -14 -9 -20 -19 -25c-10 -6 -20 -4 -29 4c-6 5 -12 9 -17 15c-6 6 -8 13 -7 21c3 24 8 48 9 72
c2 25 0 50 -2 75c-1 9 -7 17 -10 25z" />
    <glyph glyph-name="grave" unicode="`" horiz-adv-x="204" 
d="M171 830c-11 -4 -21 -4 -31 2c-15 10 -29 20 -43 31c-4 3 -8 7 -11 11c-9 9 -16 19 -25 28c-8 8 -19 15 -28 23c-4 3 -5 10 -3 14c3 5 6 9 11 12c5 2 9 5 15 6c10 3 20 4 31 6c13 2 24 -2 35 -9l7 -7s2 -3 3 -5c17 -29 32 -59 51 -87c1 -2 1 -7 1 -10
c-2 -7 -6 -13 -13 -15z" />
    <glyph glyph-name="greater" unicode="&#x3e;" horiz-adv-x="324" 
d="M58 243c18 13 35 28 52 43c12 11 26 20 38 35c4 3 9 7 14 12c11 11 23 21 34 32c8 7 15 14 23 21c-8 7 -15 14 -23 22c-11 11 -23 21 -34 32c-5 4 -10 9 -14 12c-12 15 -26 23 -38 35c-17 15 -34 29 -52 43c-9 7 -17 15 -25 24c-5 6 -4 20 7 31c5 6 10 11 16 15
c5 3 10 4 14 3c6 -1 12 -4 16 -8c19 -16 38 -33 57 -50c15 -14 31 -27 45 -42c17 -19 36 -35 55 -52c12 -11 23 -20 35 -31c3 -2 6 -4 9 -7c1 -2 2 -3 4 -5l8 -8s3 -4 4 -5c1 -2 1 -5 1 -9c0 -3 0 -6 -1 -8c-1 -1 -2 -3 -4 -5l-8 -8c-2 -2 -3 -4 -4 -5c-3 -3 -6 -6 -9 -7
c-12 -11 -23 -21 -35 -31c-19 -17 -38 -33 -55 -52c-14 -15 -30 -28 -45 -42c-19 -17 -38 -34 -57 -50c-4 -4 -10 -7 -16 -9c-4 -1 -9 1 -14 4c-6 4 -11 9 -16 14c-11 12 -12 26 -7 31c8 9 16 18 25 25z" />
    <glyph glyph-name="guillemotleft" unicode="&#xab;" horiz-adv-x="476" 
d="M301 218c5 -5 4 -19 -7 -31c-5 -5 -10 -10 -16 -14c-5 -3 -10 -5 -14 -4c-6 2 -12 5 -16 9c-19 16 -38 33 -57 50c-15 14 -31 27 -45 42c-17 19 -36 35 -55 52c-12 10 -23 20 -35 31c-3 1 -6 4 -9 7c-1 1 -2 3 -4 5l-8 8s-3 4 -4 5c-1 2 -1 5 -1 8c0 4 0 7 1 9
c1 1 2 3 4 5l8 8c2 2 3 3 4 5c3 3 6 5 9 7c12 11 23 20 35 31c19 17 38 33 55 52c14 15 30 28 45 42c19 17 38 34 57 50c4 4 10 7 16 8c4 1 9 0 14 -3c6 -4 11 -9 16 -15c11 -11 12 -25 7 -31c-8 -9 -16 -17 -25 -24c-18 -14 -35 -28 -52 -43c-12 -12 -26 -20 -38 -35
c-4 -3 -9 -8 -14 -12c-11 -11 -23 -21 -34 -32c-8 -8 -15 -15 -23 -22c8 -7 15 -14 23 -21c11 -11 23 -21 34 -32c5 -5 10 -9 14 -12c12 -15 26 -24 38 -35c17 -15 34 -30 52 -43c9 -7 17 -16 25 -25zM453 218c5 -5 4 -19 -7 -31c-5 -5 -10 -10 -16 -14c-5 -3 -10 -5 -14 -4
c-6 2 -12 5 -16 9c-19 16 -38 33 -57 50c-15 14 -31 27 -45 42c-17 19 -36 35 -55 52c-12 10 -23 20 -35 31c-3 1 -6 4 -9 7c-1 1 -2 3 -4 5l-8 8s-3 4 -4 5c-1 2 -1 5 -1 8c0 4 0 7 1 9c1 1 2 3 4 5l8 8c2 2 3 3 4 5c3 3 6 5 9 7c12 11 23 20 35 31c19 17 38 33 55 52
c14 15 30 28 45 42c19 17 38 34 57 50c4 4 10 7 16 8c4 1 9 0 14 -3c6 -4 11 -9 16 -15c11 -11 12 -25 7 -31c-8 -9 -16 -17 -25 -24c-18 -14 -35 -28 -52 -43c-12 -12 -26 -20 -38 -35c-4 -3 -9 -8 -14 -12c-11 -11 -23 -21 -34 -32c-8 -8 -15 -15 -23 -22
c8 -7 15 -14 23 -21c11 -11 23 -21 34 -32c5 -5 10 -9 14 -12c12 -15 26 -24 38 -35c17 -15 34 -30 52 -43c9 -7 17 -16 25 -25z" />
    <glyph glyph-name="guillemotright" unicode="&#xbb;" horiz-adv-x="476" 
d="M210 243c18 13 35 28 52 43c12 11 26 20 38 35c4 3 9 7 14 12c11 11 23 21 34 32c8 7 15 14 23 21c-8 7 -15 14 -23 22c-11 11 -23 21 -34 32c-5 4 -10 9 -14 12c-12 15 -26 23 -38 35c-17 15 -34 29 -52 43c-9 7 -17 15 -25 24c-5 6 -4 20 7 31c5 6 10 11 16 15
c5 3 10 4 14 3c6 -1 12 -4 16 -8c19 -16 38 -33 57 -50c15 -14 31 -27 45 -42c17 -19 36 -35 55 -52c12 -11 23 -20 35 -31c3 -2 6 -4 9 -7c1 -2 2 -3 4 -5l8 -8s3 -4 4 -5c1 -2 1 -5 1 -9c0 -3 0 -6 -1 -8c-1 -1 -2 -3 -4 -5l-8 -8c-2 -2 -3 -4 -4 -5c-3 -3 -6 -6 -9 -7
c-12 -11 -23 -21 -35 -31c-19 -17 -38 -33 -55 -52c-14 -15 -30 -28 -45 -42c-19 -17 -38 -34 -57 -50c-4 -4 -10 -7 -16 -9c-4 -1 -9 1 -14 4c-6 4 -11 9 -16 14c-11 12 -12 26 -7 31c8 9 16 18 25 25zM58 243c18 13 35 28 52 43c12 11 26 20 38 35c4 3 9 7 14 12
c11 11 23 21 34 32c8 7 15 14 23 21c-8 7 -15 14 -23 22c-11 11 -23 21 -34 32c-5 4 -10 9 -14 12c-12 15 -26 23 -38 35c-17 15 -34 29 -52 43c-9 7 -17 15 -25 24c-5 6 -4 20 7 31c5 6 10 11 16 15c5 3 10 4 14 3c6 -1 12 -4 16 -8c19 -16 38 -33 57 -50
c15 -14 31 -27 45 -42c17 -19 36 -35 55 -52c12 -11 23 -20 35 -31c3 -2 6 -4 9 -7c1 -2 2 -3 4 -5l8 -8s3 -4 4 -5c1 -2 1 -5 1 -9c0 -3 0 -6 -1 -8c-1 -1 -2 -3 -4 -5l-8 -8c-2 -2 -3 -4 -4 -5c-3 -3 -6 -6 -9 -7c-12 -11 -23 -21 -35 -31c-19 -17 -38 -33 -55 -52
c-14 -15 -30 -28 -45 -42c-19 -17 -38 -34 -57 -50c-4 -4 -10 -7 -16 -9c-4 -1 -9 1 -14 4c-6 4 -11 9 -16 14c-11 12 -12 26 -7 31c8 9 16 18 25 25z" />
    <glyph glyph-name="guilsinglleft" unicode="&#x2039;" horiz-adv-x="324" 
d="M301 218c5 -5 4 -19 -7 -31c-5 -5 -10 -10 -16 -14c-5 -3 -10 -5 -14 -4c-6 2 -12 5 -16 9c-19 16 -38 33 -57 50c-15 14 -31 27 -45 42c-17 19 -36 35 -55 52c-12 10 -23 20 -35 31c-3 1 -6 4 -9 7c-1 1 -2 3 -4 5l-8 8s-3 4 -4 5c-1 2 -1 5 -1 8c0 4 0 7 1 9
c1 1 2 3 4 5l8 8c2 2 3 3 4 5c3 3 6 5 9 7c12 11 23 20 35 31c19 17 38 33 55 52c14 15 30 28 45 42c19 17 38 34 57 50c4 4 10 7 16 8c4 1 9 0 14 -3c6 -4 11 -9 16 -15c11 -11 12 -25 7 -31c-8 -9 -16 -17 -25 -24c-18 -14 -35 -28 -52 -43c-12 -12 -26 -20 -38 -35
c-4 -3 -9 -8 -14 -12c-11 -11 -23 -21 -34 -32c-8 -8 -15 -15 -23 -22c8 -7 15 -14 23 -21c11 -11 23 -21 34 -32c5 -5 10 -9 14 -12c12 -15 26 -24 38 -35c17 -15 34 -30 52 -43c9 -7 17 -16 25 -25z" />
    <glyph glyph-name="guilsinglright" unicode="&#x203a;" horiz-adv-x="324" 
d="M58 243c18 13 35 28 52 43c12 11 26 20 38 35c4 3 9 7 14 12c11 11 23 21 34 32c8 7 15 14 23 21c-8 7 -15 14 -23 22c-11 11 -23 21 -34 32c-5 4 -10 9 -14 12c-12 15 -26 23 -38 35c-17 15 -34 29 -52 43c-9 7 -17 15 -25 24c-5 6 -4 20 7 31c5 6 10 11 16 15
c5 3 10 4 14 3c6 -1 12 -4 16 -8c19 -16 38 -33 57 -50c15 -14 31 -27 45 -42c17 -19 36 -35 55 -52c12 -11 23 -20 35 -31c3 -2 6 -4 9 -7c1 -2 2 -3 4 -5l8 -8s3 -4 4 -5c1 -2 1 -5 1 -9c0 -3 0 -6 -1 -8c-1 -1 -2 -3 -4 -5l-8 -8c-2 -2 -3 -4 -4 -5c-3 -3 -6 -6 -9 -7
c-12 -11 -23 -21 -35 -31c-19 -17 -38 -33 -55 -52c-14 -15 -30 -28 -45 -42c-19 -17 -38 -34 -57 -50c-4 -4 -10 -7 -16 -9c-4 -1 -9 1 -14 4c-6 4 -11 9 -16 14c-11 12 -12 26 -7 31c8 9 16 18 25 25z" />
    <glyph glyph-name="h" unicode="h" horiz-adv-x="432" 
d="M155 364v-62c0 -26 3 -52 0 -78c-3 -44 -1 -88 -4 -132c-1 -11 -1 -23 2 -35c3 -13 0 -26 -2 -38c0 -7 -6 -13 -11 -21c-10 0 -21 1 -32 2h-11c-17 0 -34 0 -50 1c-9 0 -15 5 -16 13c-3 11 -6 22 -6 34c0 32 2 65 2 97c1 56 1 111 1 166c0 26 1 52 1 77c0 31 -1 61 -1 92
c0 42 1 84 1 126c1 31 1 61 2 92c0 20 0 39 1 59c0 10 2 11 11 10c13 0 25 0 37 -3c11 -2 23 1 35 2c22 2 28 -9 28 -28c0 -30 0 -59 3 -88c3 -26 5 -52 4 -77c-2 -40 4 -80 7 -119c1 -12 1 -25 1 -37c0 -2 1 -5 1 -9c30 -3 59 4 88 3s57 5 88 11c0 15 1 31 1 47
c2 54 4 108 5 161c0 20 -2 40 -2 60c0 17 0 34 1 51c0 4 3 9 5 13c1 2 3 2 4 3c3 14 14 14 25 17c10 3 18 0 25 -5c13 -10 12 -82 12 -98c1 -13 1 -27 0 -40c-2 -46 -8 -91 -5 -137c1 -19 -2 -38 -3 -58c0 -18 1 -35 2 -53c2 -47 1 -93 -2 -140c-2 -38 -1 -77 -1 -115
c0 -29 2 -58 2 -86c1 -6 0 -11 -1 -16c-3 -11 -11 -18 -23 -19c-10 0 -21 -1 -31 1c-12 2 -16 9 -15 20c2 10 0 19 -2 28c-2 12 -2 25 1 36c4 19 2 37 2 55c1 30 1 60 1 90c-1 28 -2 56 -3 83c-1 15 0 29 0 45c-10 0 -19 1 -27 1c-35 0 -70 -1 -105 -2h-46z" />
    <glyph glyph-name="hungarumlaut" unicode="&#x2dd;" horiz-adv-x="301" 
d="M201 623c-21 6 -34 19 -41 39c16 29 31 58 47 87c6 11 13 22 26 23c12 2 25 1 37 0c9 -2 13 -12 8 -22c-3 -8 -8 -17 -13 -25c-9 -14 -19 -28 -28 -43c-5 -8 -9 -16 -12 -25c-6 -14 -6 -16 -24 -34zM30 659c17 33 33 66 49 99c6 11 13 14 25 12c2 0 5 -2 6 -1
c10 5 14 -2 20 -8c11 -11 12 -23 4 -36c-15 -25 -30 -51 -45 -76c-8 -14 -21 -20 -32 -17c-10 3 -20 12 -27 27z" />
    <glyph glyph-name="hyphen" unicode="-" horiz-adv-x="656" 
d="M295 349c-28 -1 -56 -1 -85 -2c-47 -2 -95 -1 -143 0c-5 0 -10 1 -15 1c-12 2 -22 14 -22 26c0 9 1 18 2 27c0 7 10 16 18 17c3 1 7 2 10 2c18 1 35 1 53 2h85c46 0 91 -1 137 3c37 2 74 2 111 3h138c11 0 21 -2 31 -5c7 -3 12 -8 15 -14c4 -8 5 -17 5 -26
c1 -19 -14 -32 -28 -33c-21 -2 -42 -3 -63 -2c-41 2 -81 2 -122 2c-30 -1 -60 3 -93 -1h-34z" />
    <glyph glyph-name="i" unicode="i" horiz-adv-x="177" 
d="M155 418h1c-1 -24 -5 -49 -1 -73c-2 -38 -3 -75 -4 -111c-1 -30 -1 -60 -1 -90c0 -39 1 -78 1 -117c0 -5 -2 -10 -3 -15c-6 -14 -6 -14 -20 -13c-17 0 -34 0 -52 1c-27 0 -45 18 -46 45c0 11 1 22 2 33c0 3 1 6 1 8c-5 27 4 53 3 80c-1 26 0 52 1 79v47c0 29 1 59 2 88
c0 24 -1 49 0 73c0 9 2 19 2 28c2 27 3 54 4 80c2 59 3 117 -4 176c-2 9 -3 19 -4 30c3 5 9 7 16 7c30 0 73 -1 103 -1c1 -23 -1 -44 -2 -67c1 -44 2 -88 2 -133c0 -23 -1 -46 -1 -69c-1 -25 -1 -51 -2 -77c0 -2 1 -5 2 -9z" />
    <glyph glyph-name="j" unicode="j" horiz-adv-x="335" 
d="M184 726c-13 -2 -25 -3 -36 -7c-12 -5 -23 1 -31 6c-10 6 -18 18 -26 28c-2 3 -1 8 -2 12c10 4 18 5 28 2s22 0 33 0c4 0 8 0 12 1c10 1 21 1 31 3c11 1 21 6 32 5c4 -1 9 0 12 3c10 7 23 5 33 5s20 -6 30 -11c7 -4 8 -12 9 -20c3 -34 6 -68 4 -102c-1 -26 1 -52 2 -78
c0 -15 -1 -31 -4 -47c-2 -16 -2 -32 -3 -48c-1 -27 -2 -53 -2 -79c0 -11 2 -22 2 -33c0 -26 -1 -52 -2 -78c-1 -17 -1 -35 -3 -52c-2 -19 -5 -37 -9 -56c-3 -20 -6 -40 -12 -60c-5 -20 -15 -39 -23 -58c-2 -6 -7 -11 -9 -17c-11 -22 -32 -31 -55 -35c-7 -2 -14 -5 -21 -6
c-17 -5 -35 -5 -52 -2c-19 3 -36 12 -52 21c-14 8 -32 17 -37 36c-4 17 -5 34 4 51c2 3 3 7 4 11c5 11 13 15 24 15c17 1 29 -9 23 -31c-3 -11 -5 -21 -2 -32c6 -22 23 -27 42 -24c6 0 13 10 15 16c8 22 16 45 21 68c9 39 8 79 8 119v91c1 33 1 65 2 98c1 17 3 34 4 51
c1 14 0 28 1 41c3 55 9 109 5 164v29z" />
    <glyph glyph-name="l" unicode="l" horiz-adv-x="363" 
d="M167 41c4 -1 7 -1 10 -1c28 2 56 7 85 6c10 0 20 12 20 23c-1 23 -2 47 -3 70c-1 9 1 12 12 16c23 9 44 -3 49 -27c0 -1 1 -3 0 -4c-6 -24 5 -50 0 -74c7 -12 -1 -23 -2 -35c-1 -8 -5 -17 -18 -17c-10 0 -19 -4 -28 -7c-9 -1 -17 -1 -27 1c-9 2 -19 0 -29 -1
c-33 -2 -65 -3 -98 -5c-16 0 -32 -2 -47 1c-13 2 -28 4 -36 20c-4 8 -11 14 -18 22c12 5 12 14 11 24l-3 120c0 13 -1 27 -1 40c0 8 2 15 1 22c0 34 1 67 -3 101c-3 24 2 47 0 72c-3 21 -4 43 -6 64c-1 14 0 28 -1 42c-3 47 -2 93 0 139c1 26 -3 53 -4 79c-1 15 -1 30 -1 46
c0 5 3 8 9 8h5c22 -5 44 -4 66 -5c9 0 18 -5 26 -9c7 -4 8 -12 9 -19c0 -23 1 -45 2 -67l3 -138c0 -18 -2 -37 -2 -55c-1 -22 -3 -44 -3 -67c1 -33 2 -67 4 -101c2 -45 6 -90 8 -136c2 -24 1 -49 2 -74c0 -18 2 -35 3 -53c1 -7 3 -14 5 -21z" />
    <glyph glyph-name="less" unicode="&#x3c;" horiz-adv-x="324" 
d="M301 218c5 -5 4 -19 -7 -31c-5 -5 -10 -10 -16 -14c-5 -3 -10 -5 -14 -4c-6 2 -12 5 -16 9c-19 16 -38 33 -57 50c-15 14 -31 27 -45 42c-17 19 -36 35 -55 52c-12 10 -23 20 -35 31c-3 1 -6 4 -9 7c-1 1 -2 3 -4 5l-8 8s-3 4 -4 5c-1 2 -1 5 -1 8c0 4 0 7 1 9
c1 1 2 3 4 5l8 8c2 2 3 3 4 5c3 3 6 5 9 7c12 11 23 20 35 31c19 17 38 33 55 52c14 15 30 28 45 42c19 17 38 34 57 50c4 4 10 7 16 8c4 1 9 0 14 -3c6 -4 11 -9 16 -15c11 -11 12 -25 7 -31c-8 -9 -16 -17 -25 -24c-18 -14 -35 -28 -52 -43c-12 -12 -26 -20 -38 -35
c-4 -3 -9 -8 -14 -12c-11 -11 -23 -21 -34 -32c-8 -8 -15 -15 -23 -22c8 -7 15 -14 23 -21c11 -11 23 -21 34 -32c5 -5 10 -9 14 -12c12 -15 26 -24 38 -35c17 -15 34 -30 52 -43c9 -7 17 -16 25 -25z" />
    <glyph glyph-name="m" unicode="m" horiz-adv-x="526" 
d="M105 503c-1 0 -2 -1 -3 -1c-1 -4 -2 -9 -2 -13c0 -24 0 -49 1 -73c1 -25 2 -51 3 -77l3 -75c0 -23 1 -45 1 -68c0 -10 2 -21 1 -31c0 -15 -2 -29 -2 -44v-35c0 -6 -1 -12 1 -16c4 -10 1 -21 1 -32c0 -6 -4 -13 -8 -17c-17 -13 -37 -21 -59 -16c-1 2 -1 4 -2 5
c-7 12 -2 26 -4 38c-4 24 -2 48 -1 73c1 27 1 55 1 83c1 8 -1 17 0 25c0 17 1 35 1 52c-2 52 -6 103 -7 155c0 35 2 71 3 106c0 12 0 23 1 35c1 49 3 97 5 146c1 10 3 22 10 28c9 10 22 20 38 16c8 -2 16 -3 24 -3c6 0 14 -6 17 -11c11 -20 20 -42 30 -62c3 -8 6 -16 9 -23
c8 -17 15 -34 22 -51c6 -15 9 -31 15 -45c17 -38 35 -76 52 -114c3 -6 6 -10 10 -16c9 18 19 33 27 50c19 38 36 77 58 114c2 2 2 5 4 7c12 22 23 45 35 67c10 17 20 34 29 52c12 22 33 29 54 35c7 2 15 -3 22 -4s10 -5 10 -11c0 -16 1 -32 0 -47c-1 -33 -3 -65 -3 -97
c-1 -25 1 -50 1 -75c0 -24 -2 -48 -2 -72c-1 -36 0 -73 0 -110c0 -52 -1 -103 -1 -155c0 -18 1 -36 1 -54c0 -29 -2 -59 -3 -88c0 -23 -11 -36 -32 -42c-4 0 -7 -2 -11 -2c-18 -2 -36 -5 -54 -5c-12 0 -25 3 -39 6c-6 15 -10 31 -9 49c2 24 6 48 5 72c-1 35 -2 71 1 107
c1 3 1 6 1 9c-1 28 -2 57 3 85c4 30 -2 61 9 91c1 1 0 2 0 3c3 21 5 43 7 64c2 11 2 23 2 35c-7 -3 -8 -8 -10 -13c-16 -38 -32 -75 -51 -111c-2 -4 -3 -10 -1 -13c5 -13 3 -23 -8 -32c-20 -16 -38 -36 -62 -47c-6 -2 -13 -3 -19 -3c-14 0 -17 2 -22 17c-1 2 -2 4 -4 6
c-4 9 -9 17 -13 26c-14 27 -26 56 -47 79c-2 2 -3 4 -4 6c-6 18 -19 30 -24 48c-2 5 -7 9 -11 14z" />
    <glyph glyph-name="minus" unicode="&#x2212;" horiz-adv-x="655" 
d="M294 349c-28 -1 -56 -1 -85 -2c-47 -2 -95 -1 -143 0c-5 0 -10 1 -15 1c-12 2 -22 14 -22 26c0 9 1 18 2 27c0 7 10 16 18 17c3 1 7 2 10 2c18 1 35 1 53 2h85c46 0 91 -1 137 3c37 2 74 2 111 3h138c11 0 21 -2 31 -5c7 -3 12 -8 15 -14c4 -8 5 -17 5 -26
c1 -19 -14 -32 -28 -33c-21 -2 -42 -3 -63 -2c-41 2 -81 2 -122 2c-30 -1 -60 3 -93 -1h-34z" />
    <glyph glyph-name="multiply" unicode="&#xd7;" horiz-adv-x="833" 
 />
    <glyph glyph-name="n" unicode="n" horiz-adv-x="415" 
d="M104 503c-2 -2 -3 -2 -3 -3l-3 -69v-137c0 -47 -1 -93 0 -139c0 -32 1 -63 3 -95c1 -13 0 -26 -3 -39c0 -3 -2 -8 -5 -9c-15 -6 -31 -15 -49 -5c-9 6 -14 12 -14 21c1 16 3 31 3 46v52c-1 22 -1 44 -1 66c0 13 1 26 1 39c1 32 1 63 1 95c0 38 -2 76 1 113
c5 75 7 150 9 225c1 22 2 45 4 68c1 16 7 20 24 19c19 0 37 -4 54 -11c4 -2 9 -6 12 -11c18 -37 33 -76 53 -113c25 -48 53 -94 80 -141c11 -18 24 -34 31 -54c4 -9 12 -16 19 -26v34c0 25 1 51 0 76c0 23 -2 45 -2 68c0 34 1 68 0 103c0 24 -1 49 -3 74c0 6 2 11 9 13
c18 7 36 7 55 3c6 -2 8 -6 8 -12c-4 -59 1 -119 1 -178c1 -27 1 -55 2 -82c1 -26 3 -51 3 -77c-1 -30 -3 -60 -5 -90v-56c2 -57 4 -114 5 -171c1 -25 0 -51 -1 -77c0 -3 -2 -7 -3 -11c-20 -2 -40 -3 -59 1c-8 2 -12 7 -12 16v114c0 9 -2 19 -1 28c0 8 -3 14 -8 20
c-6 8 -10 18 -15 27c-7 12 -16 23 -25 34c-5 8 -11 15 -16 23c-8 12 -15 25 -24 38s-19 25 -28 38c-21 33 -41 67 -62 100c-8 13 -16 26 -24 38c-4 5 -8 10 -12 14z" />
    <glyph glyph-name="nine" unicode="9" horiz-adv-x="394" 
d="M241 390c-5 -5 -11 -11 -17 -15c-14 -11 -32 -13 -49 -13c-17 -1 -33 5 -47 14c-9 5 -18 9 -26 14c-10 7 -18 14 -27 21c-20 16 -32 36 -39 60c-2 11 -4 21 -5 32c-2 35 0 68 16 100c10 19 17 39 29 57c10 16 25 29 37 44c6 6 11 12 16 19c7 10 19 12 29 16
c32 12 65 12 98 10c8 -1 17 -2 26 -4c5 -1 9 -5 13 -8c15 -15 25 -33 35 -53c24 -46 31 -96 39 -147c4 -21 6 -43 4 -65c-3 -26 -6 -51 -8 -77c-1 -9 0 -18 -1 -26c-3 -25 -6 -50 -8 -76c-3 -22 -8 -44 -15 -66c-7 -24 -22 -44 -34 -66c-3 -4 -6 -9 -8 -14
c-12 -29 -32 -53 -55 -73c-20 -18 -42 -37 -70 -45c-4 -1 -9 -3 -12 -6c-8 -8 -16 -7 -25 -4c-16 7 -32 13 -47 21c-12 6 -22 15 -33 21c-4 3 -8 6 -7 11c1 6 6 9 12 10c16 4 32 9 47 14c13 3 19 15 28 23c6 5 13 10 19 16c10 11 21 22 29 35c13 23 26 46 29 74
c1 14 8 27 11 41c5 29 17 57 16 87c0 5 2 11 3 16c-1 1 -2 2 -3 2zM253 447c0 9 -1 16 0 23c5 31 3 61 0 91c-4 28 -9 55 -21 81c-14 30 -44 31 -64 14c-17 -15 -33 -31 -45 -51c-16 -26 -26 -52 -27 -83c-1 -28 3 -55 17 -79c9 -16 22 -26 38 -32c37 -16 68 10 102 36z" />
    <glyph glyph-name="numbersign" unicode="#" horiz-adv-x="771" 
d="M376 547c-1 -5 7 -13 12 -13c24 0 49 -2 74 1c7 1 16 7 17 13c2 6 4 11 6 16c3 14 6 28 10 43c6 23 14 45 24 68c1 3 3 7 5 10c5 9 13 15 23 18c16 4 32 5 48 4l9 -3c7 -2 13 -11 12 -19c-1 -7 -2 -14 -4 -21c-7 -28 -14 -57 -20 -85c-3 -10 -4 -21 -6 -32
c-1 -3 3 -10 7 -11c8 -1 17 -3 25 -3c34 0 66 -4 99 -7c5 0 10 -1 15 -2c10 -4 17 -10 18 -21c1 -14 -1 -28 -5 -42c-2 -7 -5 -14 -11 -20c-3 -5 -9 -8 -14 -9c-7 -2 -14 -2 -21 -2h-106c-7 0 -15 -1 -22 -2c-3 -1 -7 -4 -9 -7c-2 -5 -4 -10 -5 -16c-6 -23 -9 -46 -11 -68
c0 -4 5 -11 8 -11c16 -1 31 -2 47 -2c27 0 53 -2 77 -8c3 0 7 -1 10 -3c8 -3 12 -9 13 -18c1 -14 -1 -28 -4 -42c-2 -7 -5 -14 -11 -20c-5 -6 -12 -10 -19 -12c-7 -1 -15 -1 -22 -1c-28 0 -56 1 -84 1c-11 0 -22 -1 -32 -1c-5 0 -17 -8 -19 -13c-10 -26 -19 -52 -25 -79
c-5 -17 -9 -35 -14 -53c-1 -5 -4 -10 -7 -15c-3 -8 -15 -16 -22 -17c-20 -3 -39 -2 -57 3c-8 2 -16 13 -15 22c0 5 0 11 2 16c5 23 11 46 16 69c4 16 8 32 11 47c1 7 -4 14 -10 14c-7 1 -14 2 -21 1c-18 -1 -36 -3 -54 -5c-3 0 -11 -7 -13 -11c-11 -22 -19 -45 -25 -68
c-4 -17 -8 -35 -12 -53l-6 -15c-3 -9 -18 -20 -27 -21c-18 -1 -35 -1 -52 3c-8 2 -14 7 -16 16c-1 6 -2 13 -1 20c4 23 9 46 17 69c4 12 7 24 11 37c1 5 1 10 2 15c1 7 -4 14 -10 15c-28 3 -55 7 -83 7c-16 -1 -31 1 -47 2c-4 0 -7 1 -10 2c-7 2 -13 12 -12 19
c3 18 7 35 14 53c4 11 19 23 30 24c8 1 15 2 22 2c21 0 42 -1 63 -1h48c7 0 15 7 17 13c4 19 8 39 13 58c0 2 0 4 1 6c2 12 -2 20 -12 22c-20 5 -41 8 -62 8s-42 0 -63 1c-7 0 -13 3 -18 8c-3 3 -5 8 -5 13c2 17 7 35 14 52c3 10 10 17 19 21c9 5 18 8 27 8c23 0 46 1 68 -1
c16 -2 32 -2 48 0c5 0 15 8 17 14c4 11 7 21 10 32l27 90c3 10 10 20 20 27c3 3 7 5 10 6c16 3 33 5 48 4c4 -1 7 -2 10 -3c7 -2 10 -7 10 -14c1 -5 0 -11 -1 -16c-4 -19 -9 -39 -13 -58h-1zM416 326c4 0 13 6 14 10c8 24 13 48 17 73c0 1 0 3 -1 4c-2 3 -3 6 -6 7
c-25 4 -51 2 -78 -2c-2 0 -3 -2 -5 -4c-1 -1 -3 -2 -4 -4c-10 -24 -12 -48 -16 -72c-1 -6 4 -12 11 -13c13 0 25 0 38 -1c9 1 20 1 30 2z" />
    <glyph glyph-name="o" unicode="o" horiz-adv-x="444" 
d="M31 211v50c0 25 0 50 1 75c2 30 4 60 7 90c1 16 2 32 4 48c5 39 8 78 15 116c4 21 12 41 21 61c7 17 16 33 25 49c9 17 23 31 40 41c11 6 21 15 32 21c12 5 25 8 38 10c20 1 41 1 61 1c5 0 12 1 15 -6c0 -2 8 1 11 -1c6 -5 14 -6 22 -6c3 0 6 -3 9 -5c7 -6 12 -13 20 -17
c17 -10 28 -25 34 -42c9 -24 17 -49 22 -73c5 -23 5 -47 7 -71c3 -25 5 -50 6 -75c1 -29 4 -58 2 -87c-2 -21 0 -42 -1 -64c-2 -30 -5 -60 -7 -91c-2 -27 -10 -52 -15 -78c-4 -22 -13 -42 -24 -60c-15 -23 -31 -47 -51 -67c-17 -15 -37 -24 -60 -23c-12 1 -23 0 -34 -5
c-8 -4 -18 -4 -27 -1c-18 6 -35 11 -53 15c-17 4 -29 17 -45 24c-24 11 -32 36 -50 53c-8 7 -11 22 -14 34c-8 27 -14 55 -11 84zM237 58c5 5 11 10 15 15c13 17 20 36 26 56c12 33 12 66 16 99c3 24 3 47 4 71c1 13 2 25 3 37c2 37 6 73 4 109c-1 8 -2 16 -1 24
c2 60 -2 121 -7 182c-1 18 -4 37 -13 53c-9 15 -26 17 -36 4c-11 -13 -22 -27 -30 -42c-19 -34 -30 -71 -31 -111c-1 -35 0 -70 -6 -106c-7 -44 -11 -89 -8 -135c3 -43 2 -86 4 -129c2 -25 5 -50 10 -75c4 -16 10 -32 25 -41c8 -4 16 -7 25 -11z" />
    <glyph glyph-name="ogonek" unicode="&#x2db;" horiz-adv-x="303" 
d="M226 -270c11 2 20 4 30 5c6 0 13 -2 19 -4c3 -1 5 -4 6 -6c5 -13 -1 -38 -12 -46c-18 -15 -35 -31 -59 -37c-3 0 -5 -1 -7 -3c-17 -11 -37 -7 -55 -8c-1 0 -3 0 -5 1c-21 8 -42 16 -63 25c-44 20 -62 79 -44 124c10 22 23 41 41 59c22 22 46 30 76 23c1 0 2 1 5 2
c-4 6 -7 12 -11 18c-15 23 -29 46 -37 72c-4 12 0 20 11 27c10 7 22 5 33 6c5 0 11 -3 14 -6c7 -6 12 -13 17 -20c17 -29 34 -59 52 -87c6 -11 4 -22 7 -33c5 -20 -4 -33 -23 -39c-7 -2 -14 -5 -21 -7c-9 -2 -20 -4 -29 -3c-14 1 -27 6 -40 6c-25 1 -26 5 -33 -22
c-1 -3 -2 -5 -2 -8c-5 -21 -3 -41 16 -55c6 -5 11 -11 17 -15c14 -9 28 -21 47 -18c16 2 32 5 38 23c3 10 8 18 12 26z" />
    <glyph glyph-name="one" unicode="1" horiz-adv-x="265" 
d="M107 614c-8 -2 -15 -2 -18 -5c-7 -8 -17 -8 -25 -11c-8 4 -15 8 -22 12c-13 8 -15 15 -6 27c9 14 21 25 35 34s25 20 35 34c11 18 30 31 52 32c20 0 40 -3 60 -5c9 0 14 -6 16 -13c3 -11 4 -23 5 -34c0 -2 -1 -4 0 -5c10 -9 2 -19 2 -29s1 -20 0 -30
c-1 -17 -3 -34 -3 -52c-1 -24 1 -48 1 -72c0 -6 -1 -12 -1 -18c-2 -57 -3 -113 -5 -169c-1 -26 -4 -51 -4 -77c1 -20 -1 -39 3 -59c4 -15 3 -31 3 -46v-71c-1 -20 -9 -24 -28 -20c-15 2 -30 2 -45 3c-28 1 -35 9 -34 37c0 15 -2 29 -2 43c-1 14 -2 28 -2 42c0 27 -1 54 0 80
c2 25 -1 49 -1 74c-1 56 -4 112 -5 167c-1 29 -4 57 -9 85c-1 8 -1 17 -1 25c-1 6 -1 13 -1 21z" />
    <glyph glyph-name="p" unicode="p" horiz-adv-x="370" 
d="M33 762c7 3 14 4 18 12c1 2 7 4 11 4c32 1 64 2 97 3c9 0 18 -1 26 0c21 3 40 -5 58 -13c16 -8 32 -17 46 -27c20 -15 33 -35 42 -58c22 -61 25 -122 6 -182c-10 -31 -28 -58 -49 -82c-14 -16 -33 -24 -51 -32c-13 -7 -30 -7 -46 -4c-8 1 -17 2 -27 3c0 -19 0 -36 1 -53
c1 -30 4 -60 4 -90c1 -19 -1 -39 -2 -59c0 -23 2 -46 0 -69c-2 -31 0 -62 2 -93c1 -13 -7 -21 -17 -24c-16 -5 -32 -10 -49 -4c-2 1 -5 1 -7 1c-14 0 -29 -1 -43 1c-17 1 -23 8 -23 26c0 13 1 26 2 39c1 33 2 67 3 100c0 25 0 50 -1 74v113c0 21 1 41 1 62c1 29 2 58 2 88
c1 29 2 58 2 86c-1 21 -2 41 -3 62c-2 31 -4 62 -5 93c0 8 1 15 2 23zM165 732c1 -17 2 -31 3 -46c0 -22 3 -44 1 -66c-4 -59 -3 -119 -5 -178c0 -6 1 -12 1 -20c9 2 16 3 22 5c20 7 38 19 53 33c4 4 8 8 11 13c11 24 22 49 32 73c3 8 3 18 3 26c1 13 1 26 1 39
c0 29 -4 57 -18 83c-11 21 -28 31 -50 34c-3 0 -6 -1 -8 0c-14 7 -28 1 -46 4z" />
    <glyph glyph-name="parenleft" unicode="(" horiz-adv-x="244" 
d="M30 388c2 14 4 32 6 50c5 37 11 73 17 109c2 12 6 23 10 33c7 18 13 35 21 51c10 16 21 32 34 46c16 19 35 36 52 55c11 11 24 12 38 10c14 -3 20 -23 12 -37c-2 -3 -5 -5 -7 -8c-3 -3 -7 -6 -7 -9c1 -18 -15 -28 -21 -42c-6 -12 -14 -22 -20 -34c-4 -7 -5 -16 -8 -24
c-3 -11 -7 -22 -10 -33c-3 -15 -7 -31 -9 -46c-4 -30 -8 -60 -9 -90c-1 -28 -6 -56 0 -85c8 -34 13 -69 20 -104c2 -12 3 -26 6 -38c7 -29 14 -57 22 -86c3 -8 9 -16 14 -24c5 -6 9 -12 11 -21c1 -7 0 -12 -6 -16c-2 -1 -4 -3 -5 -5c-7 -13 -7 -12 -20 -10
c-21 4 -35 16 -47 32c-4 6 -9 11 -14 16c-7 7 -11 14 -14 23c-3 14 -7 28 -14 41c-8 14 -12 29 -16 44c-8 26 -17 51 -23 78c-5 26 -7 53 -10 81c-1 12 -2 26 -3 43z" />
    <glyph glyph-name="parenright" unicode=")" horiz-adv-x="244" 
d="M224 388c-1 -17 -2 -31 -3 -43c-3 -28 -5 -55 -10 -81c-6 -27 -15 -52 -23 -78c-4 -15 -8 -30 -16 -44c-7 -13 -11 -27 -14 -41c-3 -9 -7 -16 -14 -23c-5 -5 -10 -10 -14 -16c-12 -16 -26 -28 -47 -32c-13 -2 -13 -3 -20 10c-1 2 -3 4 -5 5c-7 4 -7 9 -6 16
c2 9 6 15 11 21c5 8 11 16 14 24c8 29 15 57 22 86c3 12 4 26 6 38c6 35 12 70 19 104c7 29 2 57 1 85c-1 30 -5 60 -9 90c-2 15 -6 31 -9 46c-3 11 -7 22 -10 33c-3 8 -4 17 -8 24c-6 12 -14 22 -20 34c-6 14 -22 24 -21 42c0 3 -4 6 -7 9c-2 3 -5 5 -7 8
c-8 14 -2 34 12 37c14 2 27 1 38 -10c17 -19 36 -36 52 -55c13 -14 24 -30 33 -46s15 -33 22 -51c4 -10 8 -21 10 -33c6 -36 12 -72 17 -109c2 -18 4 -36 6 -50z" />
    <glyph glyph-name="percent" unicode="%" horiz-adv-x="833" 
 />
    <glyph glyph-name="period" unicode="." horiz-adv-x="131" 
d="M76 66c16 1 29 -7 33 -18c5 -18 -1 -32 -15 -41c-10 -6 -21 -7 -32 -7c-1 0 -3 0 -4 1c-9 11 -23 18 -27 33c-3 14 4 26 18 29c9 2 18 2 27 3z" />
    <glyph glyph-name="periodcentered" unicode="&#xb7;" horiz-adv-x="131" 
d="M76 417c16 0 29 -7 33 -19c5 -17 -1 -31 -15 -41c-10 -6 -21 -6 -32 -6c-1 -1 -3 0 -4 1c-9 10 -23 17 -27 32c-3 15 4 27 18 30z" />
    <glyph glyph-name="plus" unicode="+" horiz-adv-x="656" 
d="M607 350c-21 -2 -42 -3 -63 -2c-41 2 -81 2 -122 1c-17 0 -33 1 -50 1c1 -26 1 -52 1 -78c1 -45 0 -91 0 -137c0 -11 -1 -21 -4 -31c-3 -7 -8 -12 -14 -15c-9 -4 -17 -5 -26 -5c-19 -1 -32 14 -33 28c-2 21 -3 42 -2 63c2 41 2 81 1 122c0 17 1 34 1 51h-1
c-28 0 -56 -1 -85 -2c-47 -2 -95 -1 -143 0c-5 0 -10 1 -15 2c-12 1 -22 13 -22 26c0 9 1 17 2 26c0 7 10 17 18 18c3 0 7 1 10 1c18 1 35 2 53 2h85c32 0 64 0 96 1v2c0 28 0 56 -1 84c-2 48 -1 96 -1 143c0 5 1 11 2 16c2 12 14 22 26 22c9 0 18 -1 26 -2
c7 -1 17 -11 18 -18c1 -3 2 -7 2 -10c0 -18 1 -36 1 -53c1 -28 0 -57 0 -85c1 -32 0 -63 1 -95c26 1 52 1 78 1h138c11 0 21 -1 31 -5c7 -2 12 -7 15 -14c4 -8 5 -17 5 -26c1 -19 -14 -31 -28 -32z" />
    <glyph glyph-name="plusminus" unicode="&#xb1;" horiz-adv-x="655" 
d="M606 418c-21 -2 -42 -3 -63 -2c-41 2 -81 2 -122 1c-17 0 -33 1 -50 1c1 -26 1 -52 1 -78c1 -45 0 -91 0 -137c0 -11 -1 -21 -4 -31c-3 -7 -8 -12 -14 -15c-9 -4 -17 -5 -26 -5c-19 -1 -32 14 -33 28c-2 21 -3 42 -2 63c2 41 2 81 1 122c0 17 1 34 1 51h-1
c-28 0 -56 -1 -85 -2c-47 -2 -95 -1 -143 0c-5 0 -10 1 -15 2c-12 1 -22 13 -22 26c0 9 1 17 2 26c0 7 10 17 18 18c3 0 7 1 10 1c18 1 35 2 53 2h85c32 0 64 0 96 1v2c0 28 0 56 -1 84c-2 48 -1 96 -1 143c0 5 1 11 2 16c2 12 14 22 26 22c9 0 18 -1 26 -2
c7 -1 17 -11 18 -18c1 -3 2 -7 2 -10c0 -18 1 -36 1 -53c1 -28 0 -57 0 -85c1 -32 0 -63 1 -95c26 1 52 1 78 1h138c11 0 21 -1 31 -5c7 -2 12 -7 15 -14c4 -8 5 -17 5 -26c1 -19 -14 -31 -28 -32zM294 27c-28 -1 -56 -1 -85 -2c-47 -2 -95 -1 -143 0c-5 0 -10 1 -15 1
c-12 2 -22 14 -22 26c0 9 1 18 2 27c0 7 10 16 18 17c3 1 7 2 10 2c18 1 35 1 53 2h85c46 0 91 -1 137 3c37 2 74 2 111 3h138c11 0 21 -2 31 -5c7 -3 12 -8 15 -14c4 -8 5 -17 5 -26c1 -19 -14 -32 -28 -33c-21 -2 -42 -3 -63 -2c-41 2 -81 2 -122 2c-30 -1 -60 3 -93 -1
h-34z" />
    <glyph glyph-name="q" unicode="q" horiz-adv-x="449" 
d="M336 76c12 -18 25 -39 38 -58c8 -13 16 -26 25 -38c5 -7 11 -13 17 -20c11 -12 14 -27 12 -42c0 -3 -4 -6 -6 -8c-8 -4 -15 -9 -24 -14c-11 6 -21 13 -30 23c-19 21 -30 48 -45 71c-5 9 -12 17 -18 26c-4 5 -10 7 -15 1c-9 -8 -17 -17 -27 -25c-8 -6 -16 -10 -25 -13
c-10 -3 -20 -3 -30 -4h-11s-8 -1 -12 0c-28 10 -59 14 -80 39c-13 15 -32 24 -39 44c-6 14 -13 29 -18 44c-14 45 -16 91 -16 136c0 18 -2 36 -2 54c1 22 2 43 3 65v58c1 27 1 54 6 81c5 29 6 59 13 88c8 35 12 71 29 103c15 28 31 56 55 77c11 10 25 17 39 23
c15 6 32 9 48 13c21 5 42 -2 63 -4c18 -1 31 -12 46 -17c7 -3 14 -9 19 -16c21 -27 34 -58 40 -91c7 -38 12 -75 11 -113c0 -37 1 -74 -1 -111c-3 -47 -8 -94 -13 -141c-5 -41 -10 -83 -15 -124c-3 -18 -5 -37 -16 -52c-3 -2 -3 -7 -4 -10c-5 -14 -11 -28 -17 -45zM292 153
c2 6 5 9 6 13c3 17 7 35 9 52c7 43 13 85 19 128c1 2 1 3 1 5c-5 31 1 62 4 92c2 28 3 57 4 86c0 25 -1 51 -3 77s-5 52 -9 78c-2 17 -8 34 -21 47c-8 8 -10 10 -17 1c-11 -13 -20 -26 -29 -40c-5 -6 -10 -13 -13 -20c-7 -14 -11 -29 -17 -43c-13 -32 -23 -64 -28 -98
c-7 -41 -12 -82 -18 -123c-6 -37 -2 -75 -3 -113c-1 -19 2 -39 2 -58c2 -37 1 -74 4 -111c2 -23 9 -46 14 -68c4 -14 16 -23 31 -9c9 8 16 17 24 26c5 5 5 11 3 17c-6 11 -11 22 -17 32c-16 30 -33 61 -49 91c-4 7 -2 10 4 14c10 6 23 6 34 6c11 -1 22 -6 28 -17
c11 -17 20 -36 29 -54c2 -3 5 -6 8 -11z" />
    <glyph glyph-name="question" unicode="?" horiz-adv-x="416" 
d="M394 670c2 -7 2 -15 1 -23c0 -16 -1 -31 -2 -47c-1 -26 -10 -50 -18 -74c-5 -13 -8 -27 -13 -39c-5 -13 -11 -25 -19 -36c-18 -26 -37 -52 -56 -77c-6 -8 -13 -14 -20 -20c-25 -21 -41 -48 -54 -77c-3 -8 -10 -15 -12 -23c-5 -13 -7 -26 -11 -38c-8 -30 -9 -60 -11 -91
c-1 -13 -6 -25 -7 -38c-1 -11 0 -22 0 -35c-7 -7 -15 -11 -27 -6c-6 2 -15 -4 -22 1c-2 2 -5 4 -7 5c-3 3 -6 9 -10 10c-16 3 -17 16 -17 28c-1 25 0 49 1 74c3 32 5 65 14 96c2 8 2 16 5 23c5 12 11 24 17 36c3 6 9 11 11 18c5 15 16 25 25 37c16 21 35 40 51 60
c16 19 32 39 44 60c16 27 21 57 24 88c3 21 5 42 5 63s0 41 -6 61c-11 37 -30 47 -70 47c-31 1 -55 -19 -78 -38c-20 -17 -29 -41 -36 -65c-2 -8 -2 -17 -2 -25c1 -21 -4 -43 3 -64c2 -5 5 -10 9 -14c7 -7 16 -12 23 -19c4 -4 7 -10 8 -15c2 -12 0 -23 -6 -34
c-6 -8 -12 -10 -22 -8c-19 5 -31 19 -43 33c-26 27 -33 61 -35 97c-1 15 -1 30 1 45c3 33 18 62 34 90c0 0 1 0 1 1c10 24 30 34 53 42c9 3 16 10 25 12c17 6 35 9 52 13c13 3 26 7 40 8c20 1 40 8 60 2c14 -3 25 -8 36 -17c11 -11 23 -21 32 -34c1 -2 3 -3 3 -5
c9 -29 18 -58 26 -88zM125 -35c17 -5 36 -10 48 -27c10 -14 4 -38 -11 -46c-4 -2 -9 -4 -14 -6c-3 -1 -6 -2 -7 -3c-8 -15 -21 -10 -32 -6c-8 2 -16 5 -24 10c-22 12 -28 32 -15 54c5 8 11 14 23 15c10 1 20 6 32 9z" />
    <glyph glyph-name="questiondown" unicode="&#xbf;" horiz-adv-x="416" 
d="M32 19c-2 7 -2 15 -2 23c1 16 2 31 2 47c2 26 11 50 19 75c4 13 8 26 13 39c5 12 11 25 18 35c19 27 38 52 57 78c6 7 13 13 20 20c25 21 41 47 53 77c4 8 10 14 13 23c5 12 7 25 10 38c8 29 10 60 12 90c1 13 5 26 7 39c1 10 0 22 0 34c6 7 14 11 26 7c7 -3 16 3 23 -2
c2 -2 5 -3 7 -5c3 -3 6 -8 10 -9c16 -4 17 -17 17 -29c1 -24 0 -49 -2 -74c-2 -32 -4 -64 -13 -96c-2 -7 -2 -16 -5 -23c-5 -12 -11 -24 -17 -35c-3 -7 -9 -12 -11 -19c-5 -15 -17 -25 -26 -37c-16 -21 -34 -39 -51 -60c-15 -19 -31 -38 -43 -60c-16 -26 -21 -57 -24 -88
c-3 -21 -5 -42 -5 -63c-1 -20 0 -41 6 -61c10 -37 30 -47 69 -47c32 0 56 19 79 39c20 17 29 40 36 65c2 7 2 16 2 24c-1 22 4 43 -4 64c-1 5 -5 10 -8 14c-8 7 -16 13 -23 20c-4 3 -8 9 -8 14c-2 12 0 24 6 34c5 8 12 10 22 8c19 -5 31 -19 43 -32c25 -28 33 -62 35 -98
c1 -15 1 -30 -1 -45c-4 -33 -18 -61 -34 -89c0 -1 -1 -1 -1 -2c-10 -24 -30 -34 -53 -42c-9 -2 -17 -9 -26 -12c-16 -5 -34 -9 -51 -13c-13 -3 -26 -7 -40 -8c-20 -1 -40 -8 -60 -2c-14 3 -26 8 -36 18c-12 10 -23 21 -32 33c-2 2 -3 4 -4 5c-8 30 -17 59 -25 88zM301 724
c-17 6 -36 11 -48 28c-10 13 -4 37 11 45c4 3 9 4 14 6c2 1 6 2 7 4c8 15 20 9 31 6c9 -3 17 -6 25 -11c22 -12 28 -32 14 -53c-5 -8 -11 -15 -22 -16c-10 -1 -20 -5 -32 -9z" />
    <glyph glyph-name="quotedbl" unicode="&#x22;" horiz-adv-x="213" 
d="M187 616c-21 -5 -39 0 -55 14c-1 33 -2 66 -2 99c0 12 1 25 11 33c10 7 21 13 33 17c8 4 17 -3 18 -14c1 -9 1 -19 1 -28c-1 -17 -3 -34 -4 -52c0 -9 1 -18 2 -28c2 -15 2 -17 -4 -41zM35 636c-1 37 -3 74 -5 110c0 13 5 19 16 23c2 1 5 1 6 2c6 10 13 5 21 3
c15 -4 22 -14 21 -30c-1 -29 -1 -59 -2 -88c0 -16 -9 -28 -20 -31c-10 -2 -23 2 -37 11z" />
    <glyph glyph-name="quotedblbase" unicode="&#x201e;" horiz-adv-x="286" 
d="M86 -85c-10 10 -18 19 -27 29c15 14 28 29 27 51c-21 2 -37 12 -50 28c-6 7 -9 15 -6 24c2 4 2 9 4 13s6 11 10 12c14 4 29 8 43 8c14 1 25 -7 31 -20c6 -12 14 -23 19 -36c13 -34 2 -74 -26 -97c-7 -5 -16 -8 -25 -12zM209 -85c-10 10 -18 19 -27 29c15 14 28 29 27 51
c-21 2 -37 12 -50 28c-6 7 -9 15 -6 24c2 4 2 9 4 13s6 11 10 12c14 4 29 8 43 8c14 1 25 -7 31 -20c6 -12 14 -23 19 -36c13 -34 2 -74 -26 -97c-7 -5 -16 -8 -25 -12z" />
    <glyph glyph-name="quotedblleft" unicode="&#x201c;" horiz-adv-x="286" 
d="M209 775c9 -10 17 -19 27 -29c-16 -14 -29 -29 -28 -50c21 -3 38 -12 51 -28c6 -8 8 -16 5 -25c-1 -4 -1 -9 -3 -12c-3 -5 -6 -12 -11 -13c-14 -4 -28 -7 -43 -8c-14 -1 -24 7 -31 20c-6 12 -14 24 -19 36c-12 35 -2 75 26 97c7 6 16 8 26 12zM86 775
c9 -10 17 -19 27 -29c-16 -14 -29 -29 -28 -50c21 -3 38 -12 51 -28c6 -8 8 -16 5 -25c-1 -4 -1 -9 -3 -12c-3 -5 -6 -12 -11 -13c-14 -4 -28 -7 -43 -8c-14 -1 -24 7 -31 20c-6 12 -14 24 -19 36c-12 35 -2 75 26 97c7 6 16 8 26 12z" />
    <glyph glyph-name="quotedblright" unicode="&#x201d;" horiz-adv-x="286" 
d="M86 610c-10 10 -18 19 -27 29c15 14 28 29 27 50c-21 3 -37 12 -50 28c-6 8 -9 16 -6 25c2 4 2 9 4 12c2 5 6 12 10 13c14 4 29 7 43 8s25 -7 31 -20c6 -12 14 -24 19 -36c13 -35 2 -75 -26 -97c-7 -6 -16 -8 -25 -12zM209 610c-10 10 -18 19 -27 29c15 14 28 29 27 50
c-21 3 -37 12 -50 28c-6 8 -9 16 -6 25c2 4 2 9 4 12c2 5 6 12 10 13c14 4 29 7 43 8s25 -7 31 -20c6 -12 14 -24 19 -36c13 -35 2 -75 -26 -97c-7 -6 -16 -8 -25 -12z" />
    <glyph glyph-name="quoteleft" unicode="&#x2018;" horiz-adv-x="163" 
d="M86 775c9 -10 17 -19 27 -29c-16 -14 -29 -29 -28 -50c21 -3 38 -12 51 -28c6 -8 8 -16 5 -25c-1 -4 -1 -9 -3 -12c-3 -5 -6 -12 -11 -13c-14 -4 -28 -7 -43 -8c-14 -1 -24 7 -31 20c-6 12 -14 24 -19 36c-12 35 -2 75 26 97c7 6 16 8 26 12z" />
    <glyph glyph-name="quoteright" unicode="&#x2019;" horiz-adv-x="163" 
d="M86 610c-10 10 -18 19 -27 29c15 14 28 29 27 50c-21 3 -37 12 -50 28c-6 8 -9 16 -6 25c2 4 2 9 4 12c2 5 6 12 10 13c14 4 29 7 43 8s25 -7 31 -20c6 -12 14 -24 19 -36c13 -35 2 -75 -26 -97c-7 -6 -16 -8 -25 -12z" />
    <glyph glyph-name="quotesinglbase" unicode="&#x201a;" horiz-adv-x="163" 
d="M86 -85c-10 10 -18 19 -27 29c15 14 28 29 27 51c-21 2 -37 12 -50 28c-6 7 -9 15 -6 24c2 4 2 9 4 13s6 11 10 12c14 4 29 8 43 8c14 1 25 -7 31 -20c6 -12 14 -23 19 -36c13 -34 2 -74 -26 -97c-7 -5 -16 -8 -25 -12z" />
    <glyph glyph-name="quotesingle" unicode="'" horiz-adv-x="113" 
d="M87 616c-21 -5 -39 0 -55 14c0 33 -1 66 -2 99c0 12 1 25 12 33c10 7 21 13 32 17c9 4 17 -3 18 -14c1 -9 1 -19 1 -28c-1 -17 -3 -34 -3 -52c-1 -9 0 -18 1 -28c3 -15 3 -17 -4 -41z" />
    <glyph glyph-name="r" unicode="r" horiz-adv-x="424" 
d="M126 -9c-4 2 -9 5 -15 7c-4 1 -9 2 -13 0c-11 -3 -22 -2 -31 7c-8 8 -21 13 -24 27c-1 3 -2 6 -2 9c0 29 1 57 2 85c0 13 2 25 2 38c0 34 1 67 0 101c0 41 -2 82 -3 124c-1 38 -2 77 -3 115c0 29 1 58 1 87c-1 23 -1 45 -3 67c-1 23 -4 45 -6 67c-1 19 -1 19 -11 35
c6 19 23 18 37 20c11 1 22 -2 32 -2h65c28 0 56 -6 84 -11c39 -8 71 -30 102 -55c25 -19 38 -47 50 -74c13 -27 11 -55 13 -83c2 -25 -8 -46 -16 -69c-8 -21 -22 -38 -33 -57c-3 -6 -9 -10 -14 -15h-2c-14 -18 -29 -33 -50 -41l22 -66c4 -11 8 -20 12 -30
c5 -13 10 -25 14 -38c5 -16 9 -31 12 -47c6 -39 20 -76 29 -114c2 -5 2 -11 3 -17c4 -20 8 -40 13 -61c-21 -7 -43 1 -64 2c-8 8 -10 17 -7 25c6 16 -1 30 -4 45c-5 22 -10 45 -16 67c-14 51 -22 102 -40 151c-5 17 -11 33 -17 49c-6 19 -10 22 -29 19c-4 -1 -9 -2 -13 -1
c-5 0 -9 1 -14 1c0 -6 1 -12 1 -18c3 -58 5 -115 10 -173c2 -30 0 -59 1 -88c1 -18 -1 -35 -2 -52c0 -6 -1 -11 -2 -16c-4 -13 -8 -16 -22 -16c-8 1 -17 3 -25 2s-15 -4 -24 -6zM187 400c18 -1 25 1 45 10c21 9 40 22 55 38c17 20 30 43 40 68c4 8 7 17 10 26
c8 21 5 44 3 67c-3 40 -22 70 -56 90c-8 5 -16 10 -24 13c-27 9 -55 12 -82 14c-9 0 -11 -2 -10 -11c1 -10 3 -20 4 -30c7 -52 7 -103 9 -155c1 -40 2 -80 4 -120c0 -4 1 -7 2 -10z" />
    <glyph glyph-name="registered" unicode="&#xae;" horiz-adv-x="689" 
d="M668 456c1 -22 0 -44 -3 -67c0 -14 -2 -28 -5 -42c-5 -37 -13 -74 -28 -108c-4 -15 -11 -28 -19 -40v-1c1 -2 1 -6 0 -8c-3 -8 -7 -16 -11 -24c-10 -23 -25 -43 -44 -61c-10 -10 -22 -17 -33 -26c-5 -3 -10 -6 -14 -10c-20 -15 -39 -30 -64 -35c-27 -5 -53 -15 -81 -14
c-9 0 -18 -3 -28 -3c-14 -1 -28 -1 -43 1c-10 3 -22 2 -33 5c-24 8 -50 16 -73 27c-14 6 -26 19 -38 29c-10 9 -18 20 -28 29c-20 18 -33 41 -44 64c-16 33 -29 67 -35 104c-5 30 -10 59 -10 89c0 28 -2 56 -4 84c0 3 0 6 1 9c8 27 14 54 24 80c5 13 15 24 23 37
c10 14 19 29 29 43c4 6 8 12 13 17c13 14 26 28 40 40c22 18 44 35 67 51c6 5 15 5 22 8c21 9 44 14 66 18s43 5 65 8c9 1 18 1 28 2c28 3 54 -2 79 -16c1 -1 2 -1 3 -1c23 -9 43 -23 63 -37c9 -7 20 -13 28 -21c3 -3 6 -7 9 -10c55 -52 75 -154 78 -221zM535 169
c67 101 92 241 78 365l-3 21c-1 2 -1 3 -1 5h-1c-6 21 -18 41 -31 59c-7 14 -16 26 -30 36c-2 1 -3 2 -5 3c-10 8 -18 19 -28 27c-28 22 -55 33 -87 37c-5 -1 -9 -2 -14 -4c-3 -2 -7 -1 -11 -1c-20 -2 -41 -2 -61 -6c-21 -4 -41 -13 -62 -19c-26 -8 -45 -26 -64 -44
c-15 -14 -30 -27 -43 -41c-12 -13 -22 -27 -32 -41c-16 -23 -32 -45 -37 -73c-4 -29 -13 -57 -12 -86c0 -9 0 -18 1 -27c4 -32 3 -65 12 -96c5 -16 7 -32 10 -48c6 -26 19 -48 33 -70c19 -31 43 -59 77 -78c17 -9 32 -21 50 -22c26 -1 51 -8 77 -3c17 3 34 4 51 8
c12 3 24 8 35 13c14 7 29 14 42 24c17 14 34 29 49 46c2 2 3 5 5 7c0 3 0 6 2 8zM415 404c-8 -9 -16 -17 -26 -21c4 -12 7 -23 11 -34c2 -5 4 -10 6 -16c3 -6 5 -13 7 -19c3 -8 5 -16 6 -24c3 -20 11 -39 16 -59c0 -3 0 -6 1 -9c2 -10 4 -20 7 -31c-11 -4 -23 0 -33 1
c-5 4 -6 9 -4 13c3 8 0 15 -2 23c-3 12 -5 23 -8 35c-7 26 -12 52 -21 77c-2 9 -5 17 -8 26c-4 9 -6 11 -15 9h-7h-8c1 -3 1 -6 1 -9c2 -30 2 -59 5 -89c1 -16 0 -30 1 -46c0 -9 -1 -17 -1 -26c0 -3 -1 -6 -1 -8c-2 -7 -4 -9 -12 -9c-4 1 -8 2 -12 1c-5 0 -8 -2 -13 -3
c-2 1 -5 3 -8 4c-2 0 -4 1 -6 0c-6 -2 -11 -1 -16 3c-5 5 -11 7 -13 14c0 2 -1 3 -1 5c1 15 1 29 1 44c1 6 1 13 1 19c0 18 1 35 0 52c0 22 -1 43 -1 64c-1 20 -1 40 -2 60c0 15 1 30 1 45c-1 11 -1 23 -2 34c0 11 -2 23 -3 34c0 10 0 10 -5 18c2 10 11 10 19 11
c5 0 11 -1 16 -1c11 -1 22 0 34 0c14 0 29 -3 43 -6c20 -4 36 -16 52 -28c13 -10 20 -24 26 -38c7 -14 6 -29 7 -43c1 -13 -4 -24 -8 -36c-5 -11 -12 -19 -17 -29c-2 -3 -5 -5 -8 -8v0zM388 422c9 10 16 22 21 35c2 4 3 8 5 13c4 11 2 23 1 34c-1 21 -11 36 -29 47
c-4 3 -8 5 -12 7c-14 5 -28 6 -42 7c-5 0 -6 -1 -5 -6c0 -5 1 -10 2 -15c3 -27 3 -53 4 -80c1 -21 2 -41 2 -62c0 -2 1 -4 1 -5c10 -1 13 0 24 5c11 4 20 11 28 20z" />
    <glyph glyph-name="ring" unicode="&#x2da;" horiz-adv-x="243" 
d="M30 890c4 28 13 62 48 82c9 5 15 13 26 16c10 3 20 5 31 5c32 3 54 -15 71 -38c14 -19 18 -41 16 -64c-1 -3 0 -7 -2 -8c-14 -7 -14 -23 -23 -34c-19 -21 -40 -38 -68 -44c-26 -5 -50 -1 -71 16c-18 16 -28 36 -28 69zM126 929c-7 -10 -18 -20 -13 -36c23 -3 37 13 32 35
c-6 0 -12 0 -19 1z" />
    <glyph glyph-name="s" unicode="s" horiz-adv-x="468" 
d="M294 738c-4 -1 -8 -4 -10 -3c-13 4 -19 -6 -26 -12c-8 -7 -13 -16 -13 -26c1 -19 2 -38 4 -57c1 -9 6 -18 12 -26c7 -11 12 -24 17 -36c11 -32 29 -61 49 -89c8 -11 17 -20 25 -30c16 -20 33 -40 48 -62c22 -31 40 -65 44 -104c3 -37 7 -75 0 -112
c-5 -27 -17 -51 -29 -75c-12 -22 -26 -43 -41 -63c-12 -18 -27 -34 -50 -39c-26 -6 -52 -13 -78 -18c-13 -2 -27 -1 -40 0s-26 3 -39 6c-10 2 -20 6 -29 11c-15 8 -30 18 -45 27c-12 7 -20 18 -28 29c-11 14 -19 29 -24 46c-7 25 -14 51 -9 77c11 55 53 81 106 77
c21 -1 29 -21 19 -43c-7 -15 -14 -31 -21 -47c-5 -11 -1 -22 1 -33c6 -30 22 -56 43 -77c13 -13 30 -24 50 -20c7 1 14 6 20 9c17 8 29 21 40 35c11 12 12 29 14 44c2 17 3 34 4 52c2 27 -1 53 -10 79c-4 9 -6 19 -11 28s-13 17 -20 25c-8 11 -17 22 -26 32s-16 22 -29 28
c-6 3 -8 13 -12 19c-14 23 -32 42 -48 62c-20 23 -36 49 -41 80c-1 8 -2 17 -5 26c-3 12 -3 25 -1 38c4 27 5 55 17 81c15 33 35 61 69 77c25 12 48 24 75 29c44 8 84 3 121 -24c7 -5 13 -12 18 -19c12 -17 20 -35 25 -56c6 -20 6 -38 1 -57c-7 -25 -27 -40 -52 -41
c-7 0 -14 1 -21 1c-12 0 -14 12 -21 17c-5 4 -3 10 -2 16c2 9 1 18 1 26c0 3 -1 5 -1 7c5 16 -1 31 -5 46c-5 19 -20 30 -36 39zM263 397l1 1c-2 4 -5 7 -8 11c0 -1 -1 -2 -2 -2c3 -3 6 -7 9 -10z" />
    <glyph glyph-name="semicolon" unicode=";" horiz-adv-x="164" 
d="M76 589c16 1 29 -7 33 -18c5 -18 -1 -32 -15 -41c-10 -6 -21 -7 -32 -7c-1 0 -3 0 -4 1c-9 11 -23 18 -27 33c-3 14 4 26 18 29c9 2 18 2 27 3zM87 130c-10 11 -18 19 -27 30c15 14 28 28 27 50c-21 2 -37 12 -50 28c-6 8 -9 15 -5 25c1 4 1 8 3 12c3 5 6 11 10 13
c14 4 29 7 43 8c14 0 25 -8 31 -21c6 -12 15 -23 19 -36c13 -34 2 -74 -26 -97c-6 -5 -15 -7 -25 -12z" />
    <glyph glyph-name="seven" unicode="7" horiz-adv-x="400" 
d="M47 42c-1 24 -2 48 -2 71c0 9 4 18 4 28c1 38 10 75 21 112c1 6 3 13 2 20c-1 29 7 57 14 85c6 24 14 47 21 71c3 9 5 18 7 27c5 32 17 62 30 91c14 34 32 65 54 94c8 11 15 23 23 34c5 7 11 14 18 22c-14 3 -25 7 -36 8c-20 2 -39 3 -59 4c-17 1 -35 2 -53 1
c-22 -1 -39 11 -56 22c-5 3 -6 8 -4 13c3 4 6 9 13 9c17 0 34 1 50 1c18 0 36 1 54 0c19 -1 37 -5 56 -6c20 -2 39 -9 60 -5h3c20 -6 40 -4 60 -3c13 0 25 -2 37 -7c9 -4 14 -11 15 -20c0 -9 1 -18 -11 -22c-4 -2 -8 -7 -10 -12c-15 -31 -28 -63 -43 -94
c-10 -19 -23 -38 -33 -57c-21 -37 -38 -76 -49 -117c-4 -16 -12 -31 -19 -47c-13 -27 -25 -55 -33 -84c-10 -31 -14 -63 -23 -94c-7 -26 -9 -53 -11 -80c-1 -13 -5 -25 -7 -37c-1 -8 3 -17 0 -25c-6 -14 -9 -22 -27 -21c-2 1 -4 2 -6 2c-22 -4 -40 7 -60 16z" />
    <glyph glyph-name="six" unicode="6" horiz-adv-x="413" 
d="M333 726c-4 -5 -7 -9 -10 -14c-12 6 -20 -3 -26 -11c-32 -40 -60 -82 -73 -132c-5 -20 -17 -38 -24 -57c-9 -25 -20 -49 -22 -77c-1 -15 -3 -30 -5 -47c4 0 8 -1 11 0c14 2 28 5 42 5c9 0 19 -4 29 -5c17 -3 32 -11 46 -23c3 -2 6 -3 10 -5c3 -1 7 -2 10 -4
c17 -17 38 -29 53 -49c12 -17 19 -36 19 -57c0 -27 0 -55 -2 -83c-3 -28 -12 -55 -28 -78c-6 -10 -17 -17 -26 -24c-6 -5 -12 -9 -19 -14c-13 -10 -29 -17 -45 -20c-36 -7 -72 -7 -109 -3c-29 4 -50 18 -71 35c-14 10 -20 24 -27 38c-7 17 -14 34 -20 51
c-9 25 -10 52 -13 78c-5 42 -3 84 2 126c4 34 9 68 15 101c3 18 10 36 15 54c7 24 14 49 22 74c8 27 22 51 37 75c11 17 24 32 38 47c15 16 35 26 53 39c20 16 43 17 66 17c7 0 14 -5 20 -8c7 -3 15 -4 13 -15c0 -1 4 -3 7 -5c4 -2 7 -5 12 -9zM170 339c-1 -8 -2 -15 -2 -22
v-62v-82c0 -6 2 -12 4 -18c4 -9 9 -18 12 -27c9 -24 31 -31 52 -39c2 -1 5 0 8 0c12 2 25 4 37 7c17 4 27 16 35 32c9 17 13 34 17 53c5 26 5 51 3 77c0 6 -3 13 -6 18c-8 15 -16 30 -29 42c-20 20 -45 30 -71 31c-18 1 -35 -5 -53 -8c-2 0 -4 -1 -7 -2z" />
    <glyph glyph-name="slash" unicode="/" horiz-adv-x="413" 
d="M31 -2c5 21 9 41 14 62c3 11 7 22 10 33c14 46 30 92 43 138c13 47 25 94 37 140c9 32 17 63 26 95c6 19 14 38 20 58c5 15 9 30 14 45c8 21 16 42 23 64c9 27 17 55 26 82c5 18 8 35 13 52c2 6 6 12 9 18c11 0 22 1 33 2c2 0 5 -1 7 -2c18 -17 43 -21 65 -29
c20 -6 26 -18 18 -37c-2 -6 -3 -12 -4 -18c0 -13 -1 -25 -6 -37c-6 -13 -7 -27 -11 -41c-8 -27 -14 -55 -27 -81c-13 -25 -23 -50 -34 -75c-13 -28 -29 -55 -39 -85c-12 -38 -30 -74 -43 -113c-14 -42 -27 -84 -41 -126c-4 -12 -5 -24 -9 -36c-6 -20 -14 -39 -21 -58
c-6 -14 -11 -29 -16 -44c0 -2 1 -5 1 -8c2 -11 -3 -18 -13 -21c-7 -1 -13 -1 -19 -2c-7 -1 -15 1 -21 -6c-1 -2 -6 -2 -8 -2c-8 1 -15 3 -22 5c-2 1 -5 2 -7 4c-6 8 -12 16 -18 23z" />
    <glyph glyph-name="space" unicode=" " horiz-adv-x="304" 
 />
    <glyph glyph-name="sterling" unicode="&#xa3;" horiz-adv-x="449" 
d="M310 729c-7 -17 -14 -32 -19 -47c-8 -25 -14 -51 -15 -79c0 -21 -5 -41 -7 -62c-2 -26 -3 -52 -5 -77l-3 -33v-18c21 2 40 4 59 6c18 1 35 4 53 5c15 0 26 -9 36 -20c2 -1 2 -6 1 -8c-5 -15 -21 -23 -37 -24c-29 -1 -57 -4 -86 -6c-8 -1 -17 -2 -27 -3
c-1 -21 -2 -41 -3 -61c-1 -27 -4 -54 -5 -81c-1 -22 -4 -44 -9 -65c-7 -26 -14 -53 -30 -75c-3 -5 -6 -9 -9 -15c15 1 28 1 41 3c17 2 34 3 51 6c20 4 39 12 54 27c7 8 11 16 13 27c1 15 12 23 27 22c7 0 13 0 20 1c6 1 10 -1 12 -7c6 -11 8 -23 4 -35
c-6 -18 -14 -34 -29 -46c-11 -10 -22 -20 -32 -30c-8 -8 -17 -10 -27 -10c-11 0 -21 -2 -31 -2c-11 -1 -21 1 -32 0c-37 -3 -75 -6 -112 -11c-22 -4 -44 -7 -66 -11c-13 -3 -25 3 -38 7c-3 1 -6 3 -9 2c-13 -1 -17 7 -20 18c2 2 4 4 6 5c25 8 34 31 48 49c12 14 18 31 22 48
c6 25 11 50 13 75c4 34 5 68 7 102c1 11 3 21 5 32c0 2 -1 4 -1 6c-2 0 -4 1 -5 1c-18 -5 -33 5 -48 12c-4 2 -8 6 -9 10c-4 8 -1 16 8 17c16 1 30 9 47 7c11 -1 14 4 13 15c-1 10 -1 21 -1 32c0 20 -1 40 0 60c0 11 1 22 2 33c6 33 14 65 17 98c3 24 16 43 26 64
c9 17 23 29 33 44c4 6 14 10 21 14c8 4 16 7 23 12c13 8 25 10 39 8c9 -1 18 0 26 -1c28 -1 49 -15 63 -38c26 -40 39 -84 31 -132c-2 -13 -4 -27 -6 -40c-4 -21 -21 -29 -37 -38c-2 -2 -5 -1 -7 0c-7 2 -13 4 -20 6c-14 6 -20 18 -12 30c21 34 19 70 14 107
c-2 17 -7 33 -15 48c-5 9 -12 14 -23 16z" />
    <glyph glyph-name="t" unicode="t" horiz-adv-x="463" 
d="M171 712c-10 1 -18 2 -26 2c-18 1 -37 1 -56 3c-17 2 -35 6 -48 19c-4 3 -8 9 -10 14c-1 3 0 10 2 11c9 3 17 10 28 7c13 -3 26 0 40 0c21 1 41 4 62 2c6 -1 12 -1 18 4s10 0 11 -7c9 2 16 5 25 0c4 -2 10 1 15 1s10 -1 14 -1c3 0 5 -1 8 -1c26 2 53 5 79 6
c27 1 55 4 81 -6c9 -3 17 -9 24 -16c8 -7 5 -20 -4 -27c-5 -3 -10 -5 -15 -7c-20 -5 -40 -1 -60 -2c-20 0 -40 -1 -62 -2c0 -14 -1 -27 -1 -40c1 -52 2 -104 4 -156c0 -28 1 -57 2 -85c1 -33 2 -66 2 -99c1 -50 1 -100 0 -149c0 -22 -3 -44 -3 -66c0 -16 1 -32 1 -48
c1 -11 -1 -21 -2 -32c-2 -28 -2 -29 -31 -30c-22 -1 -45 -1 -67 -2c-10 0 -19 4 -27 10s-13 13 -13 24c0 52 -2 105 2 158c1 15 -1 31 -1 46c1 23 3 46 3 69c1 28 1 56 2 84l3 72c0 12 -1 25 -1 38c-3 45 -3 91 0 137c2 22 1 45 1 69z" />
    <glyph glyph-name="three" unicode="3" horiz-adv-x="354" 
d="M37 178c12 2 22 4 33 5c17 3 31 -14 24 -30c-9 -21 -4 -41 1 -62c3 -9 7 -17 11 -26c6 -13 11 -14 26 -13c17 1 30 9 40 23c6 7 15 10 21 18c14 19 25 39 30 62c4 19 9 38 12 58c1 7 1 14 1 22c1 13 1 26 1 39c0 5 1 9 0 13l-15 72c-2 9 -4 17 -6 25c-3 16 -19 25 -33 23
c-10 -2 -20 -2 -31 -3c-12 -2 -20 7 -28 13c-6 4 -9 11 -12 16c2 5 4 10 7 15c1 2 2 3 4 4c11 6 21 11 32 16c11 4 16 10 19 22c3 14 13 27 19 41c2 2 4 5 5 8c5 28 14 56 10 85c-2 18 -5 36 -11 52c-4 11 -15 20 -23 29c-3 3 -9 4 -12 2c-12 -4 -25 -8 -36 -14
c-6 -4 -11 -11 -13 -17c-8 -16 -14 -33 -4 -51c8 -14 5 -22 -7 -32c-3 -3 -7 -6 -12 -9c-7 6 -15 11 -22 17c-4 5 -7 12 -10 19c-2 7 -4 15 -5 23c-2 18 -4 36 9 51c2 2 3 6 4 9c10 23 26 37 51 43c23 5 46 8 69 5c17 -3 35 -10 49 -23c4 -4 9 -7 13 -11c5 -4 10 -8 14 -14
c8 -9 15 -19 20 -29c11 -19 19 -40 21 -63s-2 -46 -11 -67c-6 -17 -15 -31 -23 -47l-3 -3c-6 -22 -22 -35 -39 -48c1 -8 5 -11 11 -11c11 1 18 -4 26 -10c7 -4 14 -7 21 -11c4 -2 8 -5 10 -9c19 -28 34 -58 35 -93c1 -25 2 -51 3 -77c1 -1 1 -3 1 -5c-5 -39 -8 -78 -13 -116
c-3 -23 -13 -43 -28 -59c-12 -13 -27 -22 -40 -33s-29 -12 -43 -18c-6 -3 -13 -2 -20 0c-11 4 -23 5 -35 5c-12 1 -24 0 -36 -1c-20 0 -38 4 -52 19c-7 7 -12 16 -16 25c-6 18 -13 36 -16 55c-5 24 -8 48 2 71z" />
    <glyph glyph-name="tilde" unicode="&#x2dc;" horiz-adv-x="422" 
d="M379 913c5 -4 10 -8 14 -12c9 -8 11 -18 6 -29c-3 -7 -5 -14 -8 -21c-10 -25 -30 -38 -54 -46c-23 -8 -47 -6 -70 -1c-15 2 -29 12 -43 20c-13 6 -24 15 -36 21c-16 8 -33 7 -49 -3c-14 -8 -28 -15 -37 -29c-5 -7 -13 -8 -23 -7c-13 1 -24 8 -37 9c-13 2 -14 6 -9 17
c3 7 6 14 9 20c6 14 18 21 30 29c9 6 19 13 29 17c12 3 25 4 37 5c15 0 28 -5 42 -9c32 -9 57 -31 86 -44c5 -2 8 -3 13 -1c11 4 23 6 34 10c15 6 26 18 32 33c6 14 16 18 29 20c1 0 3 1 5 1z" />
    <glyph glyph-name="two" unicode="2" horiz-adv-x="349" 
d="M156 61c23 2 42 -1 63 3c15 3 31 2 47 2c3 0 6 1 8 -1c13 -8 29 -10 43 -16c8 -3 14 -18 11 -28s-11 -14 -22 -14c-14 0 -28 3 -41 -6c-3 -2 -9 -1 -12 1c-11 5 -22 7 -35 7c-18 -1 -36 2 -54 4h-1c-14 -7 -28 3 -42 1c-2 0 -5 0 -7 1c-6 2 -11 1 -16 -3
c-15 -10 -30 -9 -44 2c-5 3 -9 6 -14 10c-11 8 -12 9 -7 22c6 19 15 38 20 57c8 28 19 55 18 84c0 4 3 8 4 12c2 6 4 13 6 19c1 4 2 8 4 11c12 12 16 28 20 43c7 29 14 57 27 85c12 24 19 51 30 76c17 34 26 72 42 107c17 36 31 75 28 116c-1 18 -5 35 -11 52
c-2 5 -11 11 -17 12c-43 4 -74 -30 -79 -65c-2 -8 0 -18 1 -26c1 -12 -2 -21 -9 -24c-9 -3 -22 1 -29 7c-5 7 -13 12 -17 20c-10 20 -12 40 0 60c4 7 6 15 10 21c12 23 30 36 54 47c21 9 42 10 64 5c4 0 9 -2 13 -1c13 2 23 -6 32 -12c12 -8 22 -18 33 -26
c13 -9 23 -20 28 -36c9 -32 15 -63 12 -96l-6 -33c-3 -13 -6 -26 -9 -40c-3 -11 -5 -23 -9 -34c-4 -16 -9 -31 -13 -47c-7 -25 -13 -51 -20 -76c-6 -16 -13 -33 -20 -49c-2 -6 -3 -11 -5 -17c-12 -36 -26 -72 -35 -109c-10 -37 -25 -72 -39 -108c-2 -5 -3 -11 -5 -20z" />
    <glyph glyph-name="u" unicode="u" horiz-adv-x="459" 
d="M258 66c25 7 41 21 51 41c8 16 15 32 19 49c6 29 11 58 16 87c4 19 8 38 10 57c3 31 3 62 5 92c1 29 4 57 4 85c1 27 0 54 0 80c1 24 3 47 4 71c2 43 3 85 4 129c15 6 30 6 45 3c10 -2 23 -19 23 -29v-28c-1 -18 -2 -37 -3 -55c-1 -15 -2 -29 -1 -44c2 -18 -2 -36 -2 -54
c-1 -28 -2 -56 -3 -83v-35c-1 -13 -1 -27 -2 -40c-1 -21 -2 -41 -3 -61c0 -1 -1 -1 0 -2c5 -30 -6 -59 -8 -88c-2 -20 -6 -40 -10 -60c-4 -19 -9 -38 -15 -57c-5 -19 -13 -37 -26 -52c-5 -6 -8 -13 -12 -19c-5 -9 -13 -14 -23 -18c-7 -2 -13 -9 -19 -14c-5 -4 -11 -8 -18 -7
c-2 0 -4 0 -5 -1c-12 -9 -26 -5 -39 -6c-7 0 -13 -2 -20 -2s-16 2 -23 4c-14 5 -28 10 -42 16c-5 2 -11 7 -16 9c-15 5 -24 16 -35 26s-22 18 -29 32c-7 15 -19 29 -23 47c-2 8 -8 16 -12 24c-7 18 -7 37 -9 56c-2 22 -4 45 -6 67c-4 33 -7 66 -3 99c1 8 -2 18 -1 26
c1 28 3 56 4 85c0 14 -1 28 1 41c5 38 -1 77 0 115c2 32 0 65 9 96c5 16 6 19 22 20c35 3 70 4 105 -3c11 -2 18 -10 19 -22c0 -20 0 -40 -1 -59c-2 -38 -4 -76 -3 -113c1 -40 1 -79 1 -119c0 -29 1 -58 1 -88c0 -22 -1 -44 -1 -67c0 -14 0 -28 1 -42c3 -25 5 -50 9 -75
c4 -21 8 -41 15 -61c7 -24 25 -40 45 -53z" />
    <glyph glyph-name="underscore" unicode="_" horiz-adv-x="656" 
d="M295 1c-28 -1 -56 -1 -85 -2c-47 -2 -95 -1 -143 0c-5 0 -10 1 -15 1c-12 2 -22 14 -22 26c0 9 1 18 2 27c0 7 10 16 18 17c3 1 7 2 10 2c18 1 35 1 53 2h85c46 0 91 -1 137 3c37 2 74 2 111 3h138c11 0 21 -2 31 -5c7 -3 12 -8 15 -14c4 -8 5 -17 5 -26
c1 -19 -14 -32 -28 -33c-21 -2 -42 -3 -63 -2c-41 2 -81 2 -122 2c-30 -1 -60 3 -93 -1h-34z" />
    <glyph glyph-name="v" unicode="v" horiz-adv-x="559" 
d="M30 759c14 2 28 4 42 5c5 1 7 2 11 3c16 7 33 11 51 10c7 -1 11 -3 13 -9c5 -15 11 -30 16 -44c14 -46 29 -92 44 -138c7 -23 16 -45 23 -67c8 -25 14 -50 20 -75c1 -2 1 -4 2 -6c11 -27 17 -55 25 -82c9 -30 20 -59 30 -89c4 -12 7 -24 11 -37c8 2 8 9 9 14
c11 44 22 89 33 133c5 21 12 40 17 61c3 10 6 21 8 32c9 33 16 67 25 101c6 22 13 44 20 66c7 25 15 50 22 76c4 11 8 23 11 35c3 9 30 22 41 17c4 -1 8 -2 12 -4c17 -7 25 -20 22 -36c-3 -11 -6 -23 -9 -34c-1 -4 -2 -8 -5 -11c-15 -22 -24 -47 -29 -74
c-2 -12 -6 -23 -9 -35c-7 -26 -12 -54 -22 -79c-12 -32 -16 -67 -27 -99c-8 -25 -10 -52 -16 -78c-5 -19 -11 -37 -16 -55c-4 -14 -7 -28 -11 -42c-6 -19 -12 -38 -17 -58c-7 -22 -14 -44 -17 -67c-4 -24 -13 -46 -20 -69c-5 -17 -15 -21 -34 -19c-6 1 -12 1 -18 0
c-16 -3 -32 2 -47 7c-5 2 -10 5 -12 9c-7 14 -17 28 -21 44c-8 37 -17 74 -26 112c-2 5 -4 11 -7 16c-2 5 -4 9 -5 13l-30 108c-5 18 -10 35 -14 53c-2 8 -4 15 -6 23c-7 24 -13 49 -20 74l-21 75c-6 25 -13 51 -19 76c-2 10 -4 21 -6 31l-9 39c-1 2 -2 4 -2 6
c-4 22 -8 44 -13 68z" />
    <glyph glyph-name="w" unicode="w" horiz-adv-x="853" 
d="M285 259c11 26 22 48 30 71c10 28 17 56 27 84c7 23 17 45 25 68c3 9 6 20 9 30c8 21 16 42 23 63c3 7 3 16 2 23c-6 28 -12 57 -19 85c-4 18 -9 35 -14 53c-4 12 -2 17 10 19h10c8 1 16 1 25 1c1 0 3 1 4 1c14 -13 30 -3 45 -4c25 0 34 -5 41 -29c7 -25 13 -50 19 -75
l33 -132c8 -37 15 -74 23 -111c3 -16 7 -32 10 -48c5 -24 9 -48 14 -72c1 -6 3 -12 5 -18h3l9 21c6 20 12 39 18 59c7 27 13 54 22 80c7 24 17 48 26 71c5 15 9 30 14 45l15 42c16 44 31 88 42 133c1 4 2 8 2 12c0 13 6 19 18 22c9 2 18 5 30 8c19 -9 27 -25 27 -48
c0 -3 0 -5 -1 -8c-15 -32 -21 -67 -35 -100c-16 -37 -26 -75 -38 -114c-4 -13 -10 -26 -15 -39c-9 -28 -20 -56 -27 -84c-8 -34 -19 -66 -29 -98c-9 -29 -14 -60 -20 -89c-4 -18 -8 -35 -12 -52c-1 -3 -2 -5 -4 -7c-4 -6 -5 -13 -3 -20c3 -13 8 -26 11 -39c2 -8 3 -17 4 -25
s-5 -15 -14 -16c-30 -5 -60 -9 -90 -7c-5 0 -10 3 -15 5s-10 5 -16 6c-12 5 -16 8 -15 20c1 18 -3 33 -9 49c0 2 -1 4 -1 5c4 9 -1 17 -6 25c-8 15 -6 31 -11 47c-6 18 -11 37 -16 56c-1 5 -3 10 -4 15c-3 18 -5 37 -9 55c-3 14 -8 29 -11 43c-3 18 -5 36 -8 53
c-2 15 -6 31 -11 46c-5 -12 -9 -23 -14 -35c-5 -16 -11 -32 -16 -47c-10 -30 -21 -60 -31 -89c-9 -26 -18 -51 -27 -76c-7 -21 -15 -42 -22 -63c-2 -6 -1 -13 1 -20c3 -17 8 -34 12 -52c5 -21 1 -26 -19 -34c-26 -10 -52 -7 -78 -5c-10 1 -20 3 -30 5c-13 3 -22 9 -24 24
c-6 26 -11 52 -17 78c-6 31 -13 62 -20 94c-8 38 -16 77 -25 115c-10 48 -19 95 -29 142c-3 12 -6 23 -9 34c-9 31 -18 61 -26 93c-4 18 -6 38 -10 57c-4 21 -8 41 -12 62c-1 4 -1 9 -2 15c17 5 33 9 51 4c7 -3 16 0 24 0c10 1 19 3 28 2c13 -2 23 -9 29 -22
c13 -33 24 -67 33 -102c6 -23 12 -47 18 -70l24 -93c1 -4 2 -7 3 -11c2 -12 4 -23 7 -35c6 -25 13 -50 20 -75c4 -17 7 -35 11 -52c2 -8 4 -15 7 -25z" />
    <glyph glyph-name="x" unicode="x" horiz-adv-x="493" 
d="M248 544c10 24 17 45 26 66c9 18 19 35 29 53c3 5 5 11 9 15c16 20 22 44 31 67c7 16 17 29 32 36c3 1 7 1 10 1c9 -1 17 -2 26 -3c6 -1 13 0 18 -1c11 -4 22 -9 33 -14c8 -4 13 -19 10 -28c-1 -3 -2 -7 -4 -10c-20 -36 -35 -74 -49 -112c0 -3 -1 -6 -3 -7
c-21 -23 -30 -53 -43 -80c-13 -24 -23 -50 -38 -74c-11 -19 -19 -40 -27 -60c-2 -5 -1 -12 1 -17c9 -22 15 -45 25 -67c8 -17 12 -35 19 -52c9 -21 15 -44 28 -63c6 -8 9 -20 13 -30c11 -23 21 -48 31 -72c5 -11 9 -23 13 -35c4 -14 4 -28 -10 -38c-10 -1 -19 1 -27 9
c-3 3 -7 5 -12 7c-17 7 -25 20 -27 37c0 10 -4 18 -9 27c-4 7 -5 16 -8 25l-12 27c-1 1 -2 2 -2 4c-3 22 -16 39 -23 59c-9 23 -19 45 -28 67c-2 4 -5 8 -7 13c-12 -11 -13 -26 -18 -38c-6 -16 -11 -32 -19 -47c-4 -7 -6 -15 -9 -23c-12 -29 -24 -57 -36 -86
c-9 -20 -17 -41 -26 -61c-7 -16 -16 -32 -25 -48c-5 -10 -9 -11 -20 -7c-18 8 -39 10 -57 19c-12 6 -24 13 -32 26c-1 3 -1 9 1 13c11 20 17 41 24 63c6 22 18 42 25 64c5 20 13 38 22 57c17 36 33 72 51 108c14 30 30 58 44 87c6 13 11 27 15 40c1 5 0 12 -2 17
c-5 12 -11 24 -16 36c-7 18 -13 36 -20 53c-14 33 -29 65 -43 98c-9 22 -16 46 -24 70c-1 4 -3 9 -4 13c-3 9 -6 18 -9 28c18 1 33 1 48 2c5 0 18 -15 20 -21c9 -28 19 -56 29 -83c6 -17 12 -33 19 -49c12 -26 24 -52 37 -81z" />
    <glyph glyph-name="y" unicode="y" horiz-adv-x="466" 
d="M441 807c5 -13 7 -24 1 -36c-7 -14 -10 -29 -15 -44c-6 -20 -11 -40 -18 -59c-3 -11 -9 -22 -14 -33l-45 -117c-3 -6 -42 -116 -51 -127c-1 -1 -1 -2 -1 -3c2 -206 1 -67 -3 -178c-1 -33 -2 -67 -2 -101v-84c0 -9 -4 -17 -12 -21c-3 -2 -6 -4 -9 -4c-28 -6 -56 -2 -84 5
c-14 4 -16 11 -14 25c3 15 2 30 4 45c3 24 0 47 -2 71c-3 28 -4 57 -3 86c2 48 4 80 5 133l-40 111c-12 36 -24 73 -38 109c-15 40 -32 79 -48 119c-7 18 -13 36 -19 55c-2 4 -2 10 -3 15c3 1 5 3 7 3c16 2 32 2 48 3c1 1 2 0 3 1c11 8 23 2 34 3c7 0 14 -3 20 -7
c8 -6 17 -13 22 -23c8 -19 17 -38 26 -56c4 -9 9 -17 12 -25c7 -16 12 -32 18 -48c1 -4 2 -8 4 -10c15 -19 22 -42 30 -64c3 -9 6 -18 10 -27c3 -8 6 -15 10 -23c2 4 5 8 6 12c14 35 26 71 40 106c3 10 8 20 12 31c3 5 5 10 7 16c14 40 28 81 42 122c3 10 11 16 21 17
c13 1 26 1 39 2z" />
    <glyph glyph-name="yen" unicode="&#xa5;" horiz-adv-x="467" 
d="M188 252c-12 1 -22 0 -31 1c-16 1 -26 13 -37 22c-5 5 -4 11 3 14c5 3 10 5 16 6c16 2 33 5 51 7v57c0 6 -4 8 -10 8c-9 -1 -18 0 -27 -2c-16 -3 -31 2 -46 7c-10 2 -19 12 -28 19c9 16 25 15 38 19s27 6 42 10c-3 16 -6 33 -12 50c-13 37 -26 73 -41 110
c-16 39 -34 79 -51 118c-7 18 -14 37 -21 55l-3 15c3 2 5 4 7 4l48 3c1 0 2 -1 3 0c10 9 23 2 34 3c6 1 14 -3 20 -7c9 -6 17 -12 22 -23c9 -19 19 -37 28 -56c5 -8 9 -16 13 -25c7 -16 13 -32 19 -48c1 -3 2 -7 5 -10c15 -19 22 -41 31 -63c3 -9 7 -19 11 -28
c3 -7 6 -14 10 -23c2 4 5 8 6 12c13 36 24 71 37 106c3 11 8 21 12 31c2 6 4 11 6 16c13 41 26 82 38 122c4 10 11 16 21 17c13 2 26 2 39 3c5 -14 8 -24 2 -37c-7 -13 -10 -29 -14 -44c-5 -19 -10 -39 -16 -59c-3 -11 -9 -22 -13 -33c-14 -39 -28 -78 -43 -116
c-8 -24 -17 -47 -27 -72c4 -1 9 -3 10 -2c9 6 17 3 26 2c3 0 7 -1 9 1c14 8 28 3 42 4c10 0 21 -11 24 -25c2 -9 -4 -18 -16 -22c-11 -3 -22 -6 -34 -4c-4 1 -9 0 -14 -1c-8 -1 -17 -3 -25 -3c-7 -1 -15 1 -22 0c-6 -1 -13 -4 -21 -6c1 -21 2 -42 2 -64c6 0 10 -1 15 -1
c16 1 32 0 48 5c19 5 33 -3 39 -23c1 -3 0 -7 -1 -10c-4 -11 -20 -18 -32 -17c-11 1 -22 1 -33 0c-5 0 -11 -2 -16 -3h-17c-1 -23 -3 -45 -3 -67c0 -34 0 -68 1 -101c0 -28 1 -56 2 -84c0 -9 -2 -16 -10 -21c-3 -2 -7 -4 -10 -5c-29 -6 -57 -2 -84 6c-15 4 -17 10 -15 24
c2 15 1 31 3 46c2 24 -1 47 -4 70c-4 29 -4 58 -6 87v25z" />
    <glyph glyph-name="z" unicode="z" horiz-adv-x="517" 
d="M189 68c10 0 19 -1 27 0c39 2 79 4 118 6c18 1 37 1 55 3c8 1 17 3 24 7c3 1 5 6 5 10c1 14 2 27 1 41c-2 22 -6 45 -9 68c12 3 23 7 37 0c5 -2 10 -2 15 -3c11 -2 17 -9 20 -18c5 -19 10 -37 10 -57s3 -41 5 -62c0 -5 -1 -10 -1 -16c-8 -1 -12 -4 -16 -10
c-5 -8 -14 -14 -28 -13c-23 1 -45 0 -67 0c-19 0 -38 0 -57 -1c0 0 -1 1 -1 0c-19 -5 -40 0 -60 -1c-26 -2 -52 -3 -78 -6c-19 -2 -38 -6 -57 -7c-18 -2 -36 -1 -54 0c-3 0 -7 2 -10 3c-17 6 -26 21 -40 31c-10 8 -9 15 -3 24c3 5 6 10 8 14c14 33 29 66 43 100
c4 9 6 19 10 28c5 13 12 25 18 38s13 26 18 40c10 26 23 52 39 76c5 8 9 17 13 25l42 90c2 5 6 9 8 13c5 8 8 16 7 27c-1 8 3 17 7 25c17 38 32 78 55 114c8 13 12 28 19 44c-71 3 -140 6 -209 8c-4 -17 1 -34 2 -51c2 -25 5 -50 7 -75v-14c2 -14 -9 -17 -20 -20
c-10 -3 -20 1 -28 7c-7 6 -14 12 -25 21c-1 11 -4 26 -5 41c-2 31 -3 63 -5 94c0 13 -1 25 -15 34c-7 5 -3 15 5 16h3c28 -3 56 -2 83 -2c27 1 55 -2 82 -2c44 0 88 -1 131 1c24 1 47 1 72 -2c2 0 6 0 8 1c14 6 30 1 45 1c8 0 18 -7 26 -11c4 -2 7 -4 11 -6
c14 -9 17 -19 6 -28c-6 -5 -8 -11 -10 -17c-14 -34 -27 -68 -41 -103c-8 -20 -16 -40 -25 -59c-6 -13 -15 -25 -22 -37c-3 -5 -5 -11 -7 -16c-9 -19 -16 -39 -26 -57c-12 -20 -17 -42 -26 -62c-16 -35 -31 -70 -50 -103c-16 -29 -27 -60 -41 -89c-11 -24 -23 -48 -35 -72
c-5 -9 -12 -17 -14 -31z" />
    <glyph glyph-name="zero" unicode="0" horiz-adv-x="415" 
d="M395 499v-115v-8c-7 -31 -5 -63 -8 -94c-2 -25 -7 -50 -11 -75c-2 -14 -4 -28 -8 -41c-9 -31 -15 -64 -32 -92c-10 -16 -24 -29 -42 -36c-19 -6 -37 -8 -57 -6c-19 2 -37 8 -54 14c-16 5 -33 9 -47 17s-31 11 -43 25c-11 12 -23 24 -30 39c-5 11 -14 20 -18 32
c-7 21 -13 42 -13 66c-1 32 -3 65 -4 98c0 7 2 14 2 20c2 22 2 45 4 67c2 19 5 39 8 59c1 7 1 15 3 23c9 41 14 84 37 121c9 14 16 29 23 45c8 18 22 31 36 45c10 9 19 18 30 26c19 13 38 23 63 18c16 -3 33 -1 49 0c7 0 13 -1 18 -6c12 -10 24 -20 35 -31
c5 -5 10 -11 13 -18c9 -24 19 -47 24 -73c1 -8 6 -17 8 -25c8 -31 12 -63 14 -95zM301 668c-34 -8 -52 -31 -62 -61c-10 -32 -21 -65 -26 -98c-2 -15 -6 -29 -8 -44c-3 -20 -6 -41 -8 -62s-4 -43 -3 -64c1 -35 -1 -69 6 -104c8 -34 18 -67 34 -99c7 -14 19 -24 32 -34
c4 -3 8 -2 10 2c4 6 8 13 10 19c8 30 16 59 22 89c6 28 9 58 13 87c2 14 1 30 4 44c8 38 6 77 7 116c1 20 0 41 -2 62c-2 23 -4 46 -8 69c-3 16 -7 33 -12 49c-2 10 -6 20 -9 29z" />
    <glyph glyph-name="Agrave" unicode="&#xc0;" 
d="M208 211c-15 0 -29 -1 -42 0c-13 0 -26 2 -40 3c-1 -3 -3 -5 -3 -8c-3 -20 -6 -39 -8 -59c-4 -30 -7 -59 -10 -89c-1 -9 -2 -18 -3 -26c-1 -21 -9 -29 -30 -31c-6 0 -12 -1 -18 -1c-12 0 -22 7 -23 18c-2 10 -2 19 -1 29c3 17 6 34 8 52c5 35 10 70 14 105
c7 50 13 99 19 149l15 117c6 42 13 83 19 125c3 17 8 35 10 52c4 36 6 72 10 108c1 7 4 15 7 24c18 -3 34 -5 51 -7c4 -1 8 -2 11 -1c9 5 15 1 21 -6c13 9 29 7 44 6c14 -1 24 -12 26 -28l12 -93c3 -18 4 -37 6 -56c4 -45 8 -91 12 -136c2 -21 7 -42 11 -62
c4 -29 8 -58 13 -87c5 -31 12 -63 14 -95c3 -27 8 -54 12 -81c5 -28 12 -56 17 -85c2 -9 2 -19 2 -29c0 -3 -3 -7 -6 -8c-8 -3 -16 -5 -24 -5c-31 0 -62 1 -93 2c-4 0 -7 0 -10 1c-4 3 -11 7 -12 11c-4 15 -13 29 -13 45c0 15 -1 29 -2 44c0 8 0 15 -2 23
c-3 23 -7 46 -11 69c0 3 -1 6 -3 10zM203 257c-3 42 -8 84 -16 125c-4 21 -6 42 -7 62c-2 27 -2 53 -2 79c0 24 1 48 1 72c0 3 -2 6 -3 9c-23 -114 -27 -231 -44 -347c24 -3 47 -2 71 0zM255 401h1c0 3 -1 5 -1 8h-1c0 -3 0 -5 1 -8zM216 828c-11 -4 -21 -4 -31 2
c-15 10 -29 20 -43 31c-4 3 -8 7 -11 11c-9 9 -16 19 -25 28c-8 8 -19 15 -28 23c-4 3 -5 10 -3 14c3 5 6 9 11 12c5 2 9 5 15 6c10 3 20 4 31 6c13 2 24 -2 35 -9l7 -7s2 -3 3 -5c17 -29 32 -59 51 -87c1 -2 1 -7 1 -10c-2 -7 -6 -13 -13 -15z" />
    <glyph glyph-name="Egrave" unicode="&#xc8;" horiz-adv-x="326" 
d="M155 428c8 1 15 0 21 2c18 7 37 4 56 4c4 0 9 -2 13 -4c18 -14 14 -34 -7 -42c-7 -2 -15 -4 -23 -4c-21 1 -43 -4 -63 -7c-12 -50 -10 -287 -7 -330c13 -6 26 1 38 2c17 1 33 4 49 11c19 8 45 1 58 -15c4 -5 8 -11 1 -18c-2 -1 -2 -4 -3 -5c-7 -14 -19 -19 -35 -16
c-4 1 -9 0 -13 0c-21 -3 -41 -7 -61 -9c-17 -2 -33 -3 -50 -4c-9 -1 -18 -1 -27 -2c-4 0 -10 2 -14 0c-14 -8 -24 2 -33 9c-11 7 -16 19 -18 32c0 7 -3 13 -3 20c-2 13 -5 25 -1 38c2 8 1 16 2 24c7 49 4 99 5 149c1 47 3 93 4 139c1 43 0 85 2 127c1 30 3 59 5 88
c1 40 3 80 4 120c1 9 2 17 3 26c1 7 5 11 12 12c13 0 25 -1 38 -1c35 1 70 2 105 2c21 1 42 1 63 1c10 0 19 -6 26 -14c2 -3 4 -9 3 -13c-6 -16 -16 -23 -32 -24c-5 0 -10 1 -15 1c-23 -1 -47 -1 -70 -1c-8 0 -17 1 -26 1c-12 1 -15 -2 -15 -13c0 -14 1 -28 1 -42
c1 -37 2 -75 3 -112l3 -120c0 -4 1 -7 1 -12zM192 828c-11 -4 -21 -4 -31 2c-15 10 -29 20 -43 31c-4 3 -8 7 -11 11c-9 9 -16 19 -25 28c-8 8 -19 15 -28 23c-4 3 -5 10 -3 14c3 5 6 9 11 12c5 2 9 5 15 6c10 3 20 4 31 6c13 2 24 -2 35 -9l7 -7s2 -3 3 -5
c17 -29 32 -59 51 -87c1 -2 1 -7 1 -10c-2 -7 -6 -13 -13 -15z" />
    <glyph glyph-name="Igrave" unicode="&#xcc;" horiz-adv-x="177" 
d="M155 418h1c-1 -24 -5 -49 -1 -73c-2 -38 -3 -75 -4 -111c-1 -30 -1 -60 -1 -90c0 -39 1 -78 1 -117c0 -5 -2 -10 -3 -15c-6 -14 -6 -14 -20 -13c-17 0 -34 0 -52 1c-27 0 -45 18 -46 45c0 11 1 22 2 33c0 3 1 6 1 8c-5 27 4 53 3 80c-1 26 0 52 1 79v47c0 29 1 59 2 88
c0 24 -1 49 0 73c0 9 2 19 2 28c2 27 3 54 4 80c2 59 3 117 -4 176c-2 9 -3 19 -4 30c3 5 9 7 16 7c30 0 73 -1 103 -1c1 -23 -1 -44 -2 -67c1 -44 2 -88 2 -133c0 -23 -1 -46 -1 -69c-1 -25 -1 -51 -2 -77c0 -2 1 -5 2 -9zM122 828c-11 -4 -21 -4 -31 2
c-15 10 -29 20 -43 31c-4 3 -8 7 -11 11c-9 9 -16 19 -25 28c-8 8 -19 15 -28 23c-4 3 -5 10 -3 14c3 5 6 9 11 12c5 2 9 5 15 6c10 3 20 4 31 6c13 2 24 -2 35 -9l7 -7s2 -3 3 -5c17 -29 32 -59 51 -87c1 -2 1 -7 1 -10c-2 -7 -6 -13 -13 -15z" />
    <glyph glyph-name="Ograve" unicode="&#xd2;" horiz-adv-x="444" 
d="M31 211v50c0 25 0 50 1 75c2 30 4 60 7 90c1 16 2 32 4 48c5 39 8 78 15 116c4 21 12 41 21 61c7 17 16 33 25 49c9 17 23 31 40 41c11 6 21 15 32 21c12 5 25 8 38 10c20 1 41 1 61 1c5 0 12 1 15 -6c0 -2 8 1 11 -1c6 -5 14 -6 22 -6c3 0 6 -3 9 -5c7 -6 12 -13 20 -17
c17 -10 28 -25 34 -42c9 -24 17 -49 22 -73c5 -23 5 -47 7 -71c3 -25 5 -50 6 -75c1 -29 4 -58 2 -87c-2 -21 0 -42 -1 -64c-2 -30 -5 -60 -7 -91c-2 -27 -10 -52 -15 -78c-4 -22 -13 -42 -24 -60c-15 -23 -31 -47 -51 -67c-17 -15 -37 -24 -60 -23c-12 1 -23 0 -34 -5
c-8 -4 -18 -4 -27 -1c-18 6 -35 11 -53 15c-17 4 -29 17 -45 24c-24 11 -32 36 -50 53c-8 7 -11 22 -14 34c-8 27 -14 55 -11 84zM237 58c5 5 11 10 15 15c13 17 20 36 26 56c12 33 12 66 16 99c3 24 3 47 4 71c1 13 2 25 3 37c2 37 6 73 4 109c-1 8 -2 16 -1 24
c2 60 -2 121 -7 182c-1 18 -4 37 -13 53c-9 15 -26 17 -36 4c-11 -13 -22 -27 -30 -42c-19 -34 -30 -71 -31 -111c-1 -35 0 -70 -6 -106c-7 -44 -11 -89 -8 -135c3 -43 2 -86 4 -129c2 -25 5 -50 10 -75c4 -16 10 -32 25 -41c8 -4 16 -7 25 -11zM262 828
c-11 -4 -21 -4 -31 2c-15 10 -29 20 -43 31c-4 3 -8 7 -11 11c-9 9 -16 19 -25 28c-8 8 -19 15 -28 23c-4 3 -5 10 -3 14c3 5 6 9 11 12c5 2 9 5 15 6c10 3 20 4 31 6c13 2 24 -2 35 -9l7 -7s2 -3 3 -5c17 -29 32 -59 51 -87c1 -2 1 -7 1 -10c-2 -7 -6 -13 -13 -15z" />
    <glyph glyph-name="Ugrave" unicode="&#xd9;" horiz-adv-x="459" 
d="M258 66c25 7 41 21 51 41c8 16 15 32 19 49c6 29 11 58 16 87c4 19 8 38 10 57c3 31 3 62 5 92c1 29 4 57 4 85c1 27 0 54 0 80c1 24 3 47 4 71c2 43 3 85 4 129c15 6 30 6 45 3c10 -2 23 -19 23 -29v-28c-1 -18 -2 -37 -3 -55c-1 -15 -2 -29 -1 -44c2 -18 -2 -36 -2 -54
c-1 -28 -2 -56 -3 -83v-35c-1 -13 -1 -27 -2 -40c-1 -21 -2 -41 -3 -61c0 -1 -1 -1 0 -2c5 -30 -6 -59 -8 -88c-2 -20 -6 -40 -10 -60c-4 -19 -9 -38 -15 -57c-5 -19 -13 -37 -26 -52c-5 -6 -8 -13 -12 -19c-5 -9 -13 -14 -23 -18c-7 -2 -13 -9 -19 -14c-5 -4 -11 -8 -18 -7
c-2 0 -4 0 -5 -1c-12 -9 -26 -5 -39 -6c-7 0 -13 -2 -20 -2s-16 2 -23 4c-14 5 -28 10 -42 16c-5 2 -11 7 -16 9c-15 5 -24 16 -35 26s-22 18 -29 32c-7 15 -19 29 -23 47c-2 8 -8 16 -12 24c-7 18 -7 37 -9 56c-2 22 -4 45 -6 67c-4 33 -7 66 -3 99c1 8 -2 18 -1 26
c1 28 3 56 4 85c0 14 -1 28 1 41c5 38 -1 77 0 115c2 32 0 65 9 96c5 16 6 19 22 20c35 3 70 4 105 -3c11 -2 18 -10 19 -22c0 -20 0 -40 -1 -59c-2 -38 -4 -76 -3 -113c1 -40 1 -79 1 -119c0 -29 1 -58 1 -88c0 -22 -1 -44 -1 -67c0 -14 0 -28 1 -42c3 -25 5 -50 9 -75
c4 -21 8 -41 15 -61c7 -24 25 -40 45 -53zM272 828c-11 -4 -21 -4 -31 2c-15 10 -29 20 -43 31c-4 3 -8 7 -11 11c-9 9 -16 19 -25 28c-8 8 -19 15 -28 23c-4 3 -5 10 -3 14c3 5 6 9 11 12c5 2 9 5 15 6c10 3 20 4 31 6c13 2 24 -2 35 -9l7 -7s2 -3 3 -5
c17 -29 32 -59 51 -87c1 -2 1 -7 1 -10c-2 -7 -6 -13 -13 -15z" />
    <glyph glyph-name="Zcaron" unicode="&#x17d;" horiz-adv-x="517" 
d="M189 68c10 0 19 -1 27 0c39 2 79 4 118 6c18 1 37 1 55 3c8 1 17 3 24 7c3 1 5 6 5 10c1 14 2 27 1 41c-2 22 -6 45 -9 68c12 3 23 7 37 0c5 -2 10 -2 15 -3c11 -2 17 -9 20 -18c5 -19 10 -37 10 -57s3 -41 5 -62c0 -5 -1 -10 -1 -16c-8 -1 -12 -4 -16 -10
c-5 -8 -14 -14 -28 -13c-23 1 -45 0 -67 0c-19 0 -38 0 -57 -1c0 0 -1 1 -1 0c-19 -5 -40 0 -60 -1c-26 -2 -52 -3 -78 -6c-19 -2 -38 -6 -57 -7c-18 -2 -36 -1 -54 0c-3 0 -7 2 -10 3c-17 6 -26 21 -40 31c-10 8 -9 15 -3 24c3 5 6 10 8 14c14 33 29 66 43 100
c4 9 6 19 10 28c5 13 12 25 18 38s13 26 18 40c10 26 23 52 39 76c5 8 9 17 13 25l42 90c2 5 6 9 8 13c5 8 8 16 7 27c-1 8 3 17 7 25c17 38 32 78 55 114c8 13 12 28 19 44c-71 3 -140 6 -209 8c-4 -17 1 -34 2 -51c2 -25 5 -50 7 -75v-14c2 -14 -9 -17 -20 -20
c-10 -3 -20 1 -28 7c-7 6 -14 12 -25 21c-1 11 -4 26 -5 41c-2 31 -3 63 -5 94c0 13 -1 25 -15 34c-7 5 -3 15 5 16h3c28 -3 56 -2 83 -2c27 1 55 -2 82 -2c44 0 88 -1 131 1c24 1 47 1 72 -2c2 0 6 0 8 1c14 6 30 1 45 1c8 0 18 -7 26 -11c4 -2 7 -4 11 -6
c14 -9 17 -19 6 -28c-6 -5 -8 -11 -10 -17c-14 -34 -27 -68 -41 -103c-8 -20 -16 -40 -25 -59c-6 -13 -15 -25 -22 -37c-3 -5 -5 -11 -7 -16c-9 -19 -16 -39 -26 -57c-12 -20 -17 -42 -26 -62c-16 -35 -31 -70 -50 -103c-16 -29 -27 -60 -41 -89c-11 -24 -23 -48 -35 -72
c-5 -9 -12 -17 -14 -31zM247 929c9 7 19 14 27 22c15 14 29 30 45 44c12 11 26 20 43 19c1 0 2 0 3 1c17 5 30 0 39 -15c2 -3 6 -6 10 -8c13 -8 15 -25 3 -36c-14 -13 -27 -27 -41 -40c-9 -9 -19 -17 -29 -25c-17 -14 -33 -28 -51 -41c-12 -8 -25 -14 -37 -20
c-13 -6 -28 -3 -38 7c-13 13 -27 26 -40 39s-20 29 -29 44c-10 17 -16 36 -23 56c6 7 9 19 20 24c9 3 17 5 24 -1c2 -1 3 -2 5 -2c15 -2 24 -12 33 -23c12 -15 24 -29 36 -45z" />
    <glyph glyph-name="zcaron" unicode="&#x17e;" horiz-adv-x="517" 
d="M189 68c10 0 19 -1 27 0c39 2 79 4 118 6c18 1 37 1 55 3c8 1 17 3 24 7c3 1 5 6 5 10c1 14 2 27 1 41c-2 22 -6 45 -9 68c12 3 23 7 37 0c5 -2 10 -2 15 -3c11 -2 17 -9 20 -18c5 -19 10 -37 10 -57s3 -41 5 -62c0 -5 -1 -10 -1 -16c-8 -1 -12 -4 -16 -10
c-5 -8 -14 -14 -28 -13c-23 1 -45 0 -67 0c-19 0 -38 0 -57 -1c0 0 -1 1 -1 0c-19 -5 -40 0 -60 -1c-26 -2 -52 -3 -78 -6c-19 -2 -38 -6 -57 -7c-18 -2 -36 -1 -54 0c-3 0 -7 2 -10 3c-17 6 -26 21 -40 31c-10 8 -9 15 -3 24c3 5 6 10 8 14c14 33 29 66 43 100
c4 9 6 19 10 28c5 13 12 25 18 38s13 26 18 40c10 26 23 52 39 76c5 8 9 17 13 25l42 90c2 5 6 9 8 13c5 8 8 16 7 27c-1 8 3 17 7 25c17 38 32 78 55 114c8 13 12 28 19 44c-71 3 -140 6 -209 8c-4 -17 1 -34 2 -51c2 -25 5 -50 7 -75v-14c2 -14 -9 -17 -20 -20
c-10 -3 -20 1 -28 7c-7 6 -14 12 -25 21c-1 11 -4 26 -5 41c-2 31 -3 63 -5 94c0 13 -1 25 -15 34c-7 5 -3 15 5 16h3c28 -3 56 -2 83 -2c27 1 55 -2 82 -2c44 0 88 -1 131 1c24 1 47 1 72 -2c2 0 6 0 8 1c14 6 30 1 45 1c8 0 18 -7 26 -11c4 -2 7 -4 11 -6
c14 -9 17 -19 6 -28c-6 -5 -8 -11 -10 -17c-14 -34 -27 -68 -41 -103c-8 -20 -16 -40 -25 -59c-6 -13 -15 -25 -22 -37c-3 -5 -5 -11 -7 -16c-9 -19 -16 -39 -26 -57c-12 -20 -17 -42 -26 -62c-16 -35 -31 -70 -50 -103c-16 -29 -27 -60 -41 -89c-11 -24 -23 -48 -35 -72
c-5 -9 -12 -17 -14 -31zM247 929c9 7 19 14 27 22c15 14 29 30 45 44c12 11 26 20 43 19c1 0 2 0 3 1c17 5 30 0 39 -15c2 -3 6 -6 10 -8c13 -8 15 -25 3 -36c-14 -13 -27 -27 -41 -40c-9 -9 -19 -17 -29 -25c-17 -14 -33 -28 -51 -41c-12 -8 -25 -14 -37 -20
c-13 -6 -28 -3 -38 7c-13 13 -27 26 -40 39s-20 29 -29 44c-10 17 -16 36 -23 56c6 7 9 19 20 24c9 3 17 5 24 -1c2 -1 3 -2 5 -2c15 -2 24 -12 33 -23c12 -15 24 -29 36 -45z" />
    <glyph glyph-name="Scaron" unicode="&#x160;" horiz-adv-x="468" 
d="M294 738c-4 -1 -8 -4 -10 -3c-13 4 -19 -6 -26 -12c-8 -7 -13 -16 -13 -26c1 -19 2 -38 4 -57c1 -9 6 -18 12 -26c7 -11 12 -24 17 -36c11 -32 29 -61 49 -89c8 -11 17 -20 25 -30c16 -20 33 -40 48 -62c22 -31 40 -65 44 -104c3 -37 7 -75 0 -112
c-5 -27 -17 -51 -29 -75c-12 -22 -26 -43 -41 -63c-12 -18 -27 -34 -50 -39c-26 -6 -52 -13 -78 -18c-13 -2 -27 -1 -40 0s-26 3 -39 6c-10 2 -20 6 -29 11c-15 8 -30 18 -45 27c-12 7 -20 18 -28 29c-11 14 -19 29 -24 46c-7 25 -14 51 -9 77c11 55 53 81 106 77
c21 -1 29 -21 19 -43c-7 -15 -14 -31 -21 -47c-5 -11 -1 -22 1 -33c6 -30 22 -56 43 -77c13 -13 30 -24 50 -20c7 1 14 6 20 9c17 8 29 21 40 35c11 12 12 29 14 44c2 17 3 34 4 52c2 27 -1 53 -10 79c-4 9 -6 19 -11 28s-13 17 -20 25c-8 11 -17 22 -26 32s-16 22 -29 28
c-6 3 -8 13 -12 19c-14 23 -32 42 -48 62c-20 23 -36 49 -41 80c-1 8 -2 17 -5 26c-3 12 -3 25 -1 38c4 27 5 55 17 81c15 33 35 61 69 77c25 12 48 24 75 29c44 8 84 3 121 -24c7 -5 13 -12 18 -19c12 -17 20 -35 25 -56c6 -20 6 -38 1 -57c-7 -25 -27 -40 -52 -41
c-7 0 -14 1 -21 1c-12 0 -14 12 -21 17c-5 4 -3 10 -2 16c2 9 1 18 1 26c0 3 -1 5 -1 7c5 16 -1 31 -5 46c-5 19 -20 30 -36 39zM263 397l1 1c-2 4 -5 7 -8 11c0 -1 -1 -2 -2 -2c3 -3 6 -7 9 -10zM297 929c9 7 19 14 27 22c15 14 29 30 45 44c12 11 26 20 43 19c1 0 2 0 3 1
c17 5 30 0 39 -15c2 -3 6 -6 10 -8c13 -8 15 -25 3 -36c-14 -13 -27 -27 -41 -40c-9 -9 -19 -17 -29 -25c-17 -14 -33 -28 -51 -41c-12 -8 -25 -14 -37 -20c-13 -6 -28 -3 -38 7c-13 13 -27 26 -40 39s-20 29 -29 44c-10 17 -16 36 -23 56c6 7 9 19 20 24c9 3 17 5 24 -1
c2 -1 3 -2 5 -2c15 -2 24 -12 33 -23c12 -15 24 -29 36 -45z" />
    <glyph glyph-name="scaron" unicode="&#x161;" horiz-adv-x="495" 
d="M294 738c-4 -1 -8 -4 -10 -3c-13 4 -19 -6 -26 -12c-8 -7 -13 -16 -13 -26c1 -19 2 -38 4 -57c1 -9 6 -18 12 -26c7 -11 12 -24 17 -36c11 -32 29 -61 49 -89c8 -11 17 -20 25 -30c16 -20 33 -40 48 -62c22 -31 40 -65 44 -104c3 -37 7 -75 0 -112
c-5 -27 -17 -51 -29 -75c-12 -22 -26 -43 -41 -63c-12 -18 -27 -34 -50 -39c-26 -6 -52 -13 -78 -18c-13 -2 -27 -1 -40 0s-26 3 -39 6c-10 2 -20 6 -29 11c-15 8 -30 18 -45 27c-12 7 -20 18 -28 29c-11 14 -19 29 -24 46c-7 25 -14 51 -9 77c11 55 53 81 106 77
c21 -1 29 -21 19 -43c-7 -15 -14 -31 -21 -47c-5 -11 -1 -22 1 -33c6 -30 22 -56 43 -77c13 -13 30 -24 50 -20c7 1 14 6 20 9c17 8 29 21 40 35c11 12 12 29 14 44c2 17 3 34 4 52c2 27 -1 53 -10 79c-4 9 -6 19 -11 28s-13 17 -20 25c-8 11 -17 22 -26 32s-16 22 -29 28
c-6 3 -8 13 -12 19c-14 23 -32 42 -48 62c-20 23 -36 49 -41 80c-1 8 -2 17 -5 26c-3 12 -3 25 -1 38c4 27 5 55 17 81c15 33 35 61 69 77c25 12 48 24 75 29c44 8 84 3 121 -24c7 -5 13 -12 18 -19c12 -17 20 -35 25 -56c6 -20 6 -38 1 -57c-7 -25 -27 -40 -52 -41
c-7 0 -14 1 -21 1c-12 0 -14 12 -21 17c-5 4 -3 10 -2 16c2 9 1 18 1 26c0 3 -1 5 -1 7c5 16 -1 31 -5 46c-5 19 -20 30 -36 39zM263 397l1 1c-2 4 -5 7 -8 11c0 -1 -1 -2 -2 -2c3 -3 6 -7 9 -10zM297 929c9 7 19 14 27 22c15 14 29 30 45 44c12 11 26 20 43 19c1 0 2 0 3 1
c17 5 30 0 39 -15c2 -3 6 -6 10 -8c13 -8 15 -25 3 -36c-14 -13 -27 -27 -41 -40c-9 -9 -19 -17 -29 -25c-17 -14 -33 -28 -51 -41c-12 -8 -25 -14 -37 -20c-13 -6 -28 -3 -38 7c-13 13 -27 26 -40 39s-20 29 -29 44c-10 17 -16 36 -23 56c6 7 9 19 20 24c9 3 17 5 24 -1
c2 -1 3 -2 5 -2c15 -2 24 -12 33 -23c12 -15 24 -29 36 -45z" />
    <glyph glyph-name="Ydieresis" unicode="&#x178;" horiz-adv-x="466" 
d="M441 807c5 -13 7 -24 1 -36c-7 -14 -10 -29 -15 -44c-6 -20 -11 -40 -18 -59c-3 -11 -9 -22 -14 -33l-45 -117c-3 -6 -42 -116 -51 -127c-1 -1 -1 -2 -1 -3c2 -206 1 -67 -3 -178c-1 -33 -2 -67 -2 -101v-84c0 -9 -4 -17 -12 -21c-3 -2 -6 -4 -9 -4c-28 -6 -56 -2 -84 5
c-14 4 -16 11 -14 25c3 15 2 30 4 45c3 24 0 47 -2 71c-3 28 -4 57 -3 86c2 48 4 80 5 133l-40 111c-12 36 -24 73 -38 109c-15 40 -32 79 -48 119c-7 18 -13 36 -19 55c-2 4 -2 10 -3 15c3 1 5 3 7 3c16 2 32 2 48 3c1 1 2 0 3 1c11 8 23 2 34 3c7 0 14 -3 20 -7
c8 -6 17 -13 22 -23c8 -19 17 -38 26 -56c4 -9 9 -17 12 -25c7 -16 12 -32 18 -48c1 -4 2 -8 4 -10c15 -19 22 -42 30 -64c3 -9 6 -18 10 -27c3 -8 6 -15 10 -23c2 4 5 8 6 12c14 35 26 71 40 106c3 10 8 20 12 31c3 5 5 10 7 16c14 40 28 81 42 122c3 10 11 16 21 17
c13 1 26 1 39 2zM175 893c16 1 30 -7 33 -18c5 -17 0 -32 -15 -41c-10 -6 -20 -6 -31 -7c-2 0 -4 0 -5 1c-9 11 -22 18 -26 33c-4 14 3 27 18 29c9 2 17 2 26 3zM306 893c16 1 29 -7 33 -18c5 -17 -1 -32 -15 -41c-10 -6 -21 -6 -32 -7c-1 0 -3 0 -4 1c-9 11 -23 18 -27 33
c-3 14 4 27 19 29c8 2 17 2 26 3z" />
    <glyph glyph-name="ydieresis" unicode="&#xff;" horiz-adv-x="466" 
d="M441 807c5 -13 7 -24 1 -36c-7 -14 -10 -29 -15 -44c-6 -20 -11 -40 -18 -59c-3 -11 -9 -22 -14 -33l-45 -117c-3 -6 -42 -116 -51 -127c-1 -1 -1 -2 -1 -3c2 -206 1 -67 -3 -178c-1 -33 -2 -67 -2 -101v-84c0 -9 -4 -17 -12 -21c-3 -2 -6 -4 -9 -4c-28 -6 -56 -2 -84 5
c-14 4 -16 11 -14 25c3 15 2 30 4 45c3 24 0 47 -2 71c-3 28 -4 57 -3 86c2 48 4 80 5 133l-40 111c-12 36 -24 73 -38 109c-15 40 -32 79 -48 119c-7 18 -13 36 -19 55c-2 4 -2 10 -3 15c3 1 5 3 7 3c16 2 32 2 48 3c1 1 2 0 3 1c11 8 23 2 34 3c7 0 14 -3 20 -7
c8 -6 17 -13 22 -23c8 -19 17 -38 26 -56c4 -9 9 -17 12 -25c7 -16 12 -32 18 -48c1 -4 2 -8 4 -10c15 -19 22 -42 30 -64c3 -9 6 -18 10 -27c3 -8 6 -15 10 -23c2 4 5 8 6 12c14 35 26 71 40 106c3 10 8 20 12 31c3 5 5 10 7 16c14 40 28 81 42 122c3 10 11 16 21 17
c13 1 26 1 39 2zM175 893c16 1 30 -7 33 -18c5 -17 0 -32 -15 -41c-10 -6 -20 -6 -31 -7c-2 0 -4 0 -5 1c-9 11 -22 18 -26 33c-4 14 3 27 18 29c9 2 17 2 26 3zM306 893c16 1 29 -7 33 -18c5 -17 -1 -32 -15 -41c-10 -6 -21 -6 -32 -7c-1 0 -3 0 -4 1c-9 11 -23 18 -27 33
c-3 14 4 27 19 29c8 2 17 2 26 3z" />
    <glyph glyph-name="yacute" unicode="&#xfd;" horiz-adv-x="466" 
d="M441 807c5 -13 7 -24 1 -36c-7 -14 -10 -29 -15 -44c-6 -20 -11 -40 -18 -59c-3 -11 -9 -22 -14 -33l-45 -117c-3 -6 -42 -116 -51 -127c-1 -1 -1 -2 -1 -3c2 -206 1 -67 -3 -178c-1 -33 -2 -67 -2 -101v-84c0 -9 -4 -17 -12 -21c-3 -2 -6 -4 -9 -4c-28 -6 -56 -2 -84 5
c-14 4 -16 11 -14 25c3 15 2 30 4 45c3 24 0 47 -2 71c-3 28 -4 57 -3 86c2 48 4 80 5 133l-40 111c-12 36 -24 73 -38 109c-15 40 -32 79 -48 119c-7 18 -13 36 -19 55c-2 4 -2 10 -3 15c3 1 5 3 7 3c16 2 32 2 48 3c1 1 2 0 3 1c11 8 23 2 34 3c7 0 14 -3 20 -7
c8 -6 17 -13 22 -23c8 -19 17 -38 26 -56c4 -9 9 -17 12 -25c7 -16 12 -32 18 -48c1 -4 2 -8 4 -10c15 -19 22 -42 30 -64c3 -9 6 -18 10 -27c3 -8 6 -15 10 -23c2 4 5 8 6 12c14 35 26 71 40 106c3 10 8 20 12 31c3 5 5 10 7 16c14 40 28 81 42 122c3 10 11 16 21 17
c13 1 26 1 39 2zM189 845c0 3 0 8 1 10c19 28 34 58 51 87c1 2 1 3 3 5l7 7c11 7 22 11 35 9c11 -2 21 -3 31 -6c6 -1 10 -4 15 -6c5 -3 8 -7 11 -12c2 -4 1 -11 -3 -14c-9 -8 -20 -15 -28 -23c-9 -9 -16 -19 -25 -28c-3 -4 -7 -8 -11 -11c-14 -11 -28 -21 -43 -31
c-10 -6 -20 -6 -31 -2c-7 2 -11 8 -13 15z" />
    <glyph glyph-name="AE" unicode="&#xc6;" horiz-adv-x="772" 
d="M747 112c2 -31 3 -63 4 -95c0 -3 -1 -7 -1 -10c-1 -3 -8 -11 -11 -12c-13 -3 -28 -3 -42 -2c-51 0 -102 1 -143 2c-30 -1 -49 -1 -68 -2c-27 -1 -53 -1 -80 1c-15 2 -31 2 -47 3h-3c-8 0 -15 1 -23 1c-5 0 -8 4 -11 7c-3 4 -2 11 2 14c3 3 6 5 9 8c9 5 14 14 15 23
c1 36 -1 72 -4 108c0 5 -5 8 -10 9c-2 1 -3 1 -5 1h-5c-41 0 -82 -1 -122 -2c-4 0 -8 -1 -11 -1c-6 0 -15 -7 -18 -13c-12 -27 -24 -55 -35 -82c-4 -9 -6 -18 -8 -27c-1 -5 0 -10 4 -13c4 -5 11 -7 14 -13c1 -4 1 -7 0 -10c-2 -4 -4 -7 -8 -8c-3 -2 -7 -3 -10 -3h-85
c-3 0 -6 2 -10 3c-3 1 -5 4 -4 8c1 3 2 8 5 10c6 4 13 7 20 10c7 4 13 9 16 16c13 25 27 50 37 76c17 44 35 87 50 130c9 25 19 49 32 72c6 12 11 24 16 36c22 53 45 107 66 160c8 17 14 35 20 52c7 23 19 45 26 68c6 21 14 42 18 63c2 9 7 17 9 26c3 8 1 14 -3 19
c-2 2 -5 4 -6 7c-4 5 2 16 9 17h4c1 3 3 4 5 5c5 1 10 3 15 3c37 2 75 2 112 2c35 -1 70 0 105 -1c30 -2 60 2 90 2c15 1 29 1 43 1c5 0 10 -1 16 -2c6 0 14 -8 14 -13c0 -7 2 -14 1 -21c0 -27 -2 -53 -3 -80c0 -1 -1 -3 -1 -5c0 -5 -8 -13 -13 -15c-12 -3 -25 -4 -37 -2
c-6 1 -13 8 -14 14c-4 16 0 32 -2 47c-1 4 -7 11 -10 11c-23 2 -96 1 -122 -1c-4 -1 -10 -7 -11 -11c0 -3 -1 -7 -1 -10c-1 -5 -1 -11 -1 -16c0 -51 -2 -102 -6 -153c-2 -29 -3 -57 -3 -85c0 -23 -1 -46 -1 -69c0 -7 1 -14 1 -21c1 -4 7 -10 11 -10c5 -1 11 -2 16 -2
c17 2 35 3 52 6c7 1 13 5 17 12c5 9 8 19 9 30c1 9 1 18 2 26s9 17 17 18c9 3 19 -3 21 -11c1 -7 3 -14 3 -21c2 -28 3 -57 4 -85c0 -3 1 -7 0 -10c-6 -30 -3 -60 -5 -90c-1 -3 -2 -7 -3 -10c-2 -4 -4 -6 -8 -6c-10 -2 -19 2 -21 10c-4 14 -6 28 -10 41s-12 21 -25 25
c-5 1 -11 4 -16 4c-17 -1 -35 1 -52 -3c-4 0 -11 -6 -11 -10c-1 -3 -2 -7 -2 -10c0 -53 -1 -106 -1 -159c0 -9 -1 -18 2 -26c1 -3 5 -7 8 -7c19 -4 39 -3 58 -3c26 0 53 1 79 6c3 0 7 4 7 7c2 6 2 13 2 20c1 9 0 18 2 27c2 5 9 13 15 13c12 2 25 1 36 -3c8 -3 13 -9 13 -16z
M351 257v16c1 26 -1 51 1 77c2 42 2 84 4 125c1 30 0 59 -1 88c0 1 -1 3 -2 4s-3 2 -4 2c-2 0 -4 -1 -5 -2c-9 -10 -10 -23 -16 -35c-12 -25 -22 -51 -30 -77c-7 -21 -15 -42 -24 -62c-13 -28 -22 -55 -36 -82c-9 -21 -16 -42 -24 -62c-1 -4 -1 -8 -1 -11s2 -6 6 -7
c13 -3 28 1 42 0h10c21 -2 43 2 64 6c9 2 16 10 16 20z" />
    <glyph glyph-name="ae" unicode="&#xe6;" horiz-adv-x="772" 
d="M747 112c2 -31 3 -63 4 -95c0 -3 -1 -7 -1 -10c-1 -3 -8 -11 -11 -12c-13 -3 -28 -3 -42 -2c-51 0 -102 1 -143 2c-30 -1 -49 -1 -68 -2c-27 -1 -53 -1 -80 1c-15 2 -31 2 -47 3h-3c-8 0 -15 1 -23 1c-5 0 -8 4 -11 7c-3 4 -2 11 2 14c3 3 6 5 9 8c9 5 14 14 15 23
c1 36 -1 72 -4 108c0 5 -5 8 -10 9c-2 1 -3 1 -5 1h-5c-41 0 -82 -1 -122 -2c-4 0 -8 -1 -11 -1c-6 0 -15 -7 -18 -13c-12 -27 -24 -55 -35 -82c-4 -9 -6 -18 -8 -27c-1 -5 0 -10 4 -13c4 -5 11 -7 14 -13c1 -4 1 -7 0 -10c-2 -4 -4 -7 -8 -8c-3 -2 -7 -3 -10 -3h-85
c-3 0 -6 2 -10 3c-3 1 -5 4 -4 8c1 3 2 8 5 10c6 4 13 7 20 10c7 4 13 9 16 16c13 25 27 50 37 76c17 44 35 87 50 130c9 25 19 49 32 72c6 12 11 24 16 36c22 53 45 107 66 160c8 17 14 35 20 52c7 23 19 45 26 68c6 21 14 42 18 63c2 9 7 17 9 26c3 8 1 14 -3 19
c-2 2 -5 4 -6 7c-4 5 2 16 9 17h4c1 3 3 4 5 5c5 1 10 3 15 3c37 2 75 2 112 2c35 -1 70 0 105 -1c30 -2 60 2 90 2c15 1 29 1 43 1c5 0 10 -1 16 -2c6 0 14 -8 14 -13c0 -7 2 -14 1 -21c0 -27 -2 -53 -3 -80c0 -1 -1 -3 -1 -5c0 -5 -8 -13 -13 -15c-12 -3 -25 -4 -37 -2
c-6 1 -13 8 -14 14c-4 16 0 32 -2 47c-1 4 -7 11 -10 11c-23 2 -96 1 -122 -1c-4 -1 -10 -7 -11 -11c0 -3 -1 -7 -1 -10c-1 -5 -1 -11 -1 -16c0 -51 -2 -102 -6 -153c-2 -29 -3 -57 -3 -85c0 -23 -1 -46 -1 -69c0 -7 1 -14 1 -21c1 -4 7 -10 11 -10c5 -1 11 -2 16 -2
c17 2 35 3 52 6c7 1 13 5 17 12c5 9 8 19 9 30c1 9 1 18 2 26s9 17 17 18c9 3 19 -3 21 -11c1 -7 3 -14 3 -21c2 -28 3 -57 4 -85c0 -3 1 -7 0 -10c-6 -30 -3 -60 -5 -90c-1 -3 -2 -7 -3 -10c-2 -4 -4 -6 -8 -6c-10 -2 -19 2 -21 10c-4 14 -6 28 -10 41s-12 21 -25 25
c-5 1 -11 4 -16 4c-17 -1 -35 1 -52 -3c-4 0 -11 -6 -11 -10c-1 -3 -2 -7 -2 -10c0 -53 -1 -106 -1 -159c0 -9 -1 -18 2 -26c1 -3 5 -7 8 -7c19 -4 39 -3 58 -3c26 0 53 1 79 6c3 0 7 4 7 7c2 6 2 13 2 20c1 9 0 18 2 27c2 5 9 13 15 13c12 2 25 1 36 -3c8 -3 13 -9 13 -16z
M351 257v16c1 26 -1 51 1 77c2 42 2 84 4 125c1 30 0 59 -1 88c0 1 -1 3 -2 4s-3 2 -4 2c-2 0 -4 -1 -5 -2c-9 -10 -10 -23 -16 -35c-12 -25 -22 -51 -30 -77c-7 -21 -15 -42 -24 -62c-13 -28 -22 -55 -36 -82c-9 -21 -16 -42 -24 -62c-1 -4 -1 -8 -1 -11s2 -6 6 -7
c13 -3 28 1 42 0h10c21 -2 43 2 64 6c9 2 16 10 16 20z" />
    <glyph glyph-name="OE" unicode="&#x152;" horiz-adv-x="709" 
d="M685 102c2 -31 3 -63 4 -95c0 -3 -1 -7 -2 -10c0 -3 -7 -11 -10 -11c-14 -4 -28 -4 -42 -3c-51 1 -102 1 -143 2c-30 -1 -49 -1 -69 -1c-26 -1 -52 -2 -79 1c-16 1 -32 1 -47 2h-2c-5 -2 -11 -4 -16 -5c-23 -6 -45 -8 -68 -6c-24 2 -46 8 -64 23l-9 6
c-29 19 -49 45 -66 75c-12 24 -21 48 -24 75c-4 35 -13 70 -13 105c-1 2 -1 4 -1 5c-12 42 -5 85 -6 127c2 28 2 56 4 85c1 17 4 35 7 52c7 46 22 89 40 131c2 5 5 10 7 15c19 44 23 46 62 76c16 12 34 19 53 25c5 1 10 2 16 2h47c17 1 32 -3 46 -11c37 3 73 3 109 2
s71 0 106 -1c30 -1 60 2 90 3h43c5 0 10 -1 15 -2c6 0 14 -7 15 -13c0 -7 1 -14 1 -21c-1 -26 -2 -53 -3 -79c0 -2 -1 -4 -1 -6c-1 -5 -8 -13 -14 -14c-12 -4 -24 -5 -36 -3c-6 1 -13 8 -14 14c-4 16 0 32 -2 48c-1 3 -7 10 -11 10c-22 2 -95 1 -121 -1c-4 0 -10 -7 -11 -10
c0 -4 -1 -7 -2 -11v-16c0 -51 -3 -102 -6 -153c-2 -28 -3 -57 -3 -85c0 -23 -1 -46 -1 -69c-1 -7 1 -14 1 -21c1 -4 7 -9 11 -10c5 -1 11 -2 16 -2c17 2 35 4 52 6c7 1 13 5 17 12c5 10 8 20 9 30c1 9 1 18 2 27c0 7 8 16 17 18s19 -4 21 -12l3 -21c1 -28 3 -56 4 -85v-10
c-7 -30 -3 -60 -5 -90c-1 -3 -2 -6 -4 -10c-1 -4 -3 -5 -7 -6c-10 -2 -20 3 -22 10c-3 14 -5 28 -9 41s-13 22 -26 25c-5 1 -10 4 -15 4c-18 0 -35 1 -53 -2c-3 -1 -10 -7 -11 -11c0 -3 -1 -7 -1 -10c-1 -53 -1 -106 -2 -159c0 -9 0 -18 3 -26c1 -3 5 -6 8 -7
c19 -4 38 -3 58 -3c26 0 53 1 79 6c3 0 6 4 7 7c2 7 2 14 2 21c1 8 0 17 2 26c2 6 9 13 15 13c12 2 24 1 36 -3c7 -3 13 -8 13 -16zM280 67c6 4 10 10 13 17c5 13 8 27 9 41c4 40 8 81 11 121c2 25 8 49 3 74c-1 3 0 7 1 10c3 9 4 18 3 26c0 15 0 29 -2 43
c-2 19 -2 38 -2 53c1 12 2 19 1 26c-3 26 -2 53 -4 79c-1 29 -5 57 -9 84c-4 20 -13 37 -27 51c-10 11 -23 17 -36 21c-3 1 -7 0 -11 -1c-6 -2 -13 -4 -19 -7c-14 -7 -23 -17 -28 -31c-4 -10 -7 -20 -8 -31c-3 -24 -6 -49 -8 -73c-2 -23 -3 -46 -6 -69c-3 -21 -7 -42 -3 -63
c1 -3 0 -7 -1 -10c-4 -18 -2 -36 -2 -53c2 -28 3 -57 2 -85c-1 -7 -1 -14 0 -21c3 -17 3 -35 4 -53c2 -28 4 -56 7 -84c1 -11 3 -21 7 -31c5 -17 15 -32 29 -43c15 -13 32 -15 49 -8c10 4 19 10 27 17z" />
    <glyph glyph-name="oe" unicode="&#x153;" horiz-adv-x="709" 
d="M685 102c2 -31 3 -63 4 -95c0 -3 -1 -7 -2 -10c0 -3 -7 -11 -10 -11c-14 -4 -28 -4 -42 -3c-51 1 -102 1 -143 2c-30 -1 -49 -1 -69 -1c-26 -1 -52 -2 -79 1c-16 1 -32 1 -47 2h-2c-5 -2 -11 -4 -16 -5c-23 -6 -45 -8 -68 -6c-24 2 -46 8 -64 23l-9 6
c-29 19 -49 45 -66 75c-12 24 -21 48 -24 75c-4 35 -13 70 -13 105c-1 2 -1 4 -1 5c-12 42 -5 85 -6 127c2 28 2 56 4 85c1 17 4 35 7 52c7 46 22 89 40 131c2 5 5 10 7 15c19 44 23 46 62 76c16 12 34 19 53 25c5 1 10 2 16 2h47c17 1 32 -3 46 -11c37 3 73 3 109 2
s71 0 106 -1c30 -1 60 2 90 3h43c5 0 10 -1 15 -2c6 0 14 -7 15 -13c0 -7 1 -14 1 -21c-1 -26 -2 -53 -3 -79c0 -2 -1 -4 -1 -6c-1 -5 -8 -13 -14 -14c-12 -4 -24 -5 -36 -3c-6 1 -13 8 -14 14c-4 16 0 32 -2 48c-1 3 -7 10 -11 10c-22 2 -95 1 -121 -1c-4 0 -10 -7 -11 -10
c0 -4 -1 -7 -2 -11v-16c0 -51 -3 -102 -6 -153c-2 -28 -3 -57 -3 -85c0 -23 -1 -46 -1 -69c-1 -7 1 -14 1 -21c1 -4 7 -9 11 -10c5 -1 11 -2 16 -2c17 2 35 4 52 6c7 1 13 5 17 12c5 10 8 20 9 30c1 9 1 18 2 27c0 7 8 16 17 18s19 -4 21 -12l3 -21c1 -28 3 -56 4 -85v-10
c-7 -30 -3 -60 -5 -90c-1 -3 -2 -6 -4 -10c-1 -4 -3 -5 -7 -6c-10 -2 -20 3 -22 10c-3 14 -5 28 -9 41s-13 22 -26 25c-5 1 -10 4 -15 4c-18 0 -35 1 -53 -2c-3 -1 -10 -7 -11 -11c0 -3 -1 -7 -1 -10c-1 -53 -1 -106 -2 -159c0 -9 0 -18 3 -26c1 -3 5 -6 8 -7
c19 -4 38 -3 58 -3c26 0 53 1 79 6c3 0 6 4 7 7c2 7 2 14 2 21c1 8 0 17 2 26c2 6 9 13 15 13c12 2 24 1 36 -3c7 -3 13 -8 13 -16zM280 67c6 4 10 10 13 17c5 13 8 27 9 41c4 40 8 81 11 121c2 25 8 49 3 74c-1 3 0 7 1 10c3 9 4 18 3 26c0 15 0 29 -2 43
c-2 19 -2 38 -2 53c1 12 2 19 1 26c-3 26 -2 53 -4 79c-1 29 -5 57 -9 84c-4 20 -13 37 -27 51c-10 11 -23 17 -36 21c-3 1 -7 0 -11 -1c-6 -2 -13 -4 -19 -7c-14 -7 -23 -17 -28 -31c-4 -10 -7 -20 -8 -31c-3 -24 -6 -49 -8 -73c-2 -23 -3 -46 -6 -69c-3 -21 -7 -42 -3 -63
c1 -3 0 -7 -1 -10c-4 -18 -2 -36 -2 -53c2 -28 3 -57 2 -85c-1 -7 -1 -14 0 -21c3 -17 3 -35 4 -53c2 -28 4 -56 7 -84c1 -11 3 -21 7 -31c5 -17 15 -32 29 -43c15 -13 32 -15 49 -8c10 4 19 10 27 17z" />
    <glyph glyph-name="Aacute" unicode="&#xc1;" 
d="M208 211c-15 0 -29 -1 -42 0c-13 0 -26 2 -40 3c-1 -3 -3 -5 -3 -8c-3 -20 -6 -39 -8 -59c-4 -30 -7 -59 -10 -89c-1 -9 -2 -18 -3 -26c-1 -21 -9 -29 -30 -31c-6 0 -12 -1 -18 -1c-12 0 -22 7 -23 18c-2 10 -2 19 -1 29c3 17 6 34 8 52c5 35 10 70 14 105
c7 50 13 99 19 149l15 117c6 42 13 83 19 125c3 17 8 35 10 52c4 36 6 72 10 108c1 7 4 15 7 24c18 -3 34 -5 51 -7c4 -1 8 -2 11 -1c9 5 15 1 21 -6c13 9 29 7 44 6c14 -1 24 -12 26 -28l12 -93c3 -18 4 -37 6 -56c4 -45 8 -91 12 -136c2 -21 7 -42 11 -62
c4 -29 8 -58 13 -87c5 -31 12 -63 14 -95c3 -27 8 -54 12 -81c5 -28 12 -56 17 -85c2 -9 2 -19 2 -29c0 -3 -3 -7 -6 -8c-8 -3 -16 -5 -24 -5c-31 0 -62 1 -93 2c-4 0 -7 0 -10 1c-4 3 -11 7 -12 11c-4 15 -13 29 -13 45c0 15 -1 29 -2 44c0 8 0 15 -2 23
c-3 23 -7 46 -11 69c0 3 -1 6 -3 10zM203 257c-3 42 -8 84 -16 125c-4 21 -6 42 -7 62c-2 27 -2 53 -2 79c0 24 1 48 1 72c0 3 -2 6 -3 9c-23 -114 -27 -231 -44 -347c24 -3 47 -2 71 0zM255 401h1c0 3 -1 5 -1 8h-1c0 -3 0 -5 1 -8zM170 845c0 3 0 8 1 10
c19 28 34 58 51 87c1 2 1 3 3 5l7 7c11 7 22 11 35 9c11 -2 21 -3 31 -6c6 -1 10 -4 15 -6c5 -3 8 -7 11 -12c2 -4 1 -11 -3 -14c-9 -8 -20 -15 -28 -23c-9 -9 -16 -19 -25 -28c-3 -4 -7 -8 -11 -11c-14 -11 -28 -21 -43 -31c-10 -6 -20 -6 -31 -2c-7 2 -11 8 -13 15z" />
    <glyph glyph-name="Ccedilla" unicode="&#xc7;" horiz-adv-x="427" 
d="M257 73c13 19 32 34 43 55c1 3 2 5 3 8c5 13 11 25 14 38c5 18 8 36 12 54c1 8 3 15 4 23c23 10 34 8 50 -7c9 -7 11 -17 9 -26c-3 -26 -7 -52 -17 -77c-5 -15 -10 -30 -16 -45c-1 -2 -2 -4 -3 -5c-4 -5 -9 -10 -11 -15c-6 -15 -16 -25 -31 -32c-5 -2 -8 -6 -11 -12
c-6 -12 -18 -19 -30 -24c-10 -4 -21 -7 -32 -8c-8 0 -17 3 -25 5c-16 4 -31 9 -46 13c-33 11 -61 31 -83 58c-7 8 -13 17 -17 26c-9 21 -20 39 -24 62c-5 24 -10 48 -14 72c-3 22 -1 45 -1 68c0 24 -1 48 1 72c2 42 2 84 13 125c3 10 3 20 4 30c5 28 16 55 25 82
c8 27 23 50 39 72c6 8 10 16 15 24c1 1 1 3 2 4c16 13 31 27 47 38c19 14 42 19 65 21c8 1 17 -4 25 -4c18 -1 34 -6 49 -15c28 -16 54 -36 66 -68c9 -24 14 -51 20 -76c2 -10 4 -21 4 -31c1 -14 1 -28 -1 -41c0 -7 -5 -14 -9 -19c-4 -6 -14 -6 -19 -2c-10 8 -19 18 -29 26
c-6 5 -6 11 -6 17v25s-1 16 -1 24c-1 24 -6 48 -16 70c-4 9 -11 17 -17 25c-4 6 -11 7 -16 2c-7 -5 -16 -9 -18 -19c-17 -10 -22 -29 -30 -45c-7 -15 -11 -31 -17 -46c-4 -12 -9 -23 -12 -35c-2 -7 -2 -14 -3 -20c-1 -4 0 -7 -1 -10c-10 -41 -12 -82 -12 -124
c0 -13 -2 -26 -4 -39c-5 -44 -9 -88 -5 -132c3 -32 9 -63 19 -94c3 -11 14 -20 12 -33c15 -8 14 -31 36 -35zM160 -276c3 -7 8 -16 11 -25c6 -19 23 -22 39 -24c19 -3 32 9 47 18c6 4 10 10 16 15c19 14 21 34 17 55c-1 3 -2 5 -2 8c-8 27 -9 23 -34 22c-13 0 -26 -5 -40 -6
c-9 0 -19 2 -29 3c-7 2 -14 5 -20 7c-20 6 -28 19 -24 39c3 11 1 22 8 33c18 28 34 58 51 87c5 7 11 14 17 20c3 3 9 6 14 6c11 -1 23 2 34 -6c10 -7 14 -15 10 -27c-8 -26 -22 -49 -36 -71c-4 -6 -8 -13 -11 -19c2 -1 3 -2 4 -2c30 7 55 -1 76 -23c18 -18 32 -37 41 -59
c19 -45 0 -104 -44 -124c-21 -9 -42 -17 -63 -25c-2 -1 -3 -1 -5 -1c-18 1 -38 -3 -54 8c-3 2 -5 3 -8 3c-24 6 -41 22 -59 37c-11 9 -17 33 -12 46c1 3 3 6 6 6c6 2 13 4 20 4c9 -1 18 -3 30 -5z" />
    <glyph glyph-name="ccedilla" unicode="&#xe7;" horiz-adv-x="427" 
d="M257 73c13 19 32 34 43 55c1 3 2 5 3 8c5 13 11 25 14 38c5 18 8 36 12 54c1 8 3 15 4 23c23 10 34 8 50 -7c9 -7 11 -17 9 -26c-3 -26 -7 -52 -17 -77c-5 -15 -10 -30 -16 -45c-1 -2 -2 -4 -3 -5c-4 -5 -9 -10 -11 -15c-6 -15 -16 -25 -31 -32c-5 -2 -8 -6 -11 -12
c-6 -12 -18 -19 -30 -24c-10 -4 -21 -7 -32 -8c-8 0 -17 3 -25 5c-16 4 -31 9 -46 13c-33 11 -61 31 -83 58c-7 8 -13 17 -17 26c-9 21 -20 39 -24 62c-5 24 -10 48 -14 72c-3 22 -1 45 -1 68c0 24 -1 48 1 72c2 42 2 84 13 125c3 10 3 20 4 30c5 28 16 55 25 82
c8 27 23 50 39 72c6 8 10 16 15 24c1 1 1 3 2 4c16 13 31 27 47 38c19 14 42 19 65 21c8 1 17 -4 25 -4c18 -1 34 -6 49 -15c28 -16 54 -36 66 -68c9 -24 14 -51 20 -76c2 -10 4 -21 4 -31c1 -14 1 -28 -1 -41c0 -7 -5 -14 -9 -19c-4 -6 -14 -6 -19 -2c-10 8 -19 18 -29 26
c-6 5 -6 11 -6 17v25s-1 16 -1 24c-1 24 -6 48 -16 70c-4 9 -11 17 -17 25c-4 6 -11 7 -16 2c-7 -5 -16 -9 -18 -19c-17 -10 -22 -29 -30 -45c-7 -15 -11 -31 -17 -46c-4 -12 -9 -23 -12 -35c-2 -7 -2 -14 -3 -20c-1 -4 0 -7 -1 -10c-10 -41 -12 -82 -12 -124
c0 -13 -2 -26 -4 -39c-5 -44 -9 -88 -5 -132c3 -32 9 -63 19 -94c3 -11 14 -20 12 -33c15 -8 14 -31 36 -35zM160 -276c3 -7 8 -16 11 -25c6 -19 23 -22 39 -24c19 -3 32 9 47 18c6 4 10 10 16 15c19 14 21 34 17 55c-1 3 -2 5 -2 8c-8 27 -9 23 -34 22c-13 0 -26 -5 -40 -6
c-9 0 -19 2 -29 3c-7 2 -14 5 -20 7c-20 6 -28 19 -24 39c3 11 1 22 8 33c18 28 34 58 51 87c5 7 11 14 17 20c3 3 9 6 14 6c11 -1 23 2 34 -6c10 -7 14 -15 10 -27c-8 -26 -22 -49 -36 -71c-4 -6 -8 -13 -11 -19c2 -1 3 -2 4 -2c30 7 55 -1 76 -23c18 -18 32 -37 41 -59
c19 -45 0 -104 -44 -124c-21 -9 -42 -17 -63 -25c-2 -1 -3 -1 -5 -1c-18 1 -38 -3 -54 8c-3 2 -5 3 -8 3c-24 6 -41 22 -59 37c-11 9 -17 33 -12 46c1 3 3 6 6 6c6 2 13 4 20 4c9 -1 18 -3 30 -5z" />
    <glyph glyph-name="Eacute" unicode="&#xc9;" horiz-adv-x="326" 
d="M155 428c8 1 15 0 21 2c18 7 37 4 56 4c4 0 9 -2 13 -4c18 -14 14 -34 -7 -42c-7 -2 -15 -4 -23 -4c-21 1 -43 -4 -63 -7c-12 -50 -10 -287 -7 -330c13 -6 26 1 38 2c17 1 33 4 49 11c19 8 45 1 58 -15c4 -5 8 -11 1 -18c-2 -1 -2 -4 -3 -5c-7 -14 -19 -19 -35 -16
c-4 1 -9 0 -13 0c-21 -3 -41 -7 -61 -9c-17 -2 -33 -3 -50 -4c-9 -1 -18 -1 -27 -2c-4 0 -10 2 -14 0c-14 -8 -24 2 -33 9c-11 7 -16 19 -18 32c0 7 -3 13 -3 20c-2 13 -5 25 -1 38c2 8 1 16 2 24c7 49 4 99 5 149c1 47 3 93 4 139c1 43 0 85 2 127c1 30 3 59 5 88
c1 40 3 80 4 120c1 9 2 17 3 26c1 7 5 11 12 12c13 0 25 -1 38 -1c35 1 70 2 105 2c21 1 42 1 63 1c10 0 19 -6 26 -14c2 -3 4 -9 3 -13c-6 -16 -16 -23 -32 -24c-5 0 -10 1 -15 1c-23 -1 -47 -1 -70 -1c-8 0 -17 1 -26 1c-12 1 -15 -2 -15 -13c0 -14 1 -28 1 -42
c1 -37 2 -75 3 -112l3 -120c0 -4 1 -7 1 -12zM130 845c0 3 0 8 1 10c19 28 34 58 51 87c1 2 1 3 3 5l7 7c11 7 22 11 35 9c11 -2 21 -3 31 -6c6 -1 10 -4 15 -6c5 -3 8 -7 11 -12c2 -4 1 -11 -3 -14c-9 -8 -20 -15 -28 -23c-9 -9 -16 -19 -25 -28c-3 -4 -7 -8 -11 -11
c-14 -11 -28 -21 -43 -31c-10 -6 -20 -6 -31 -2c-7 2 -11 8 -13 15z" />
    <glyph glyph-name="Iacute" unicode="&#xcd;" horiz-adv-x="177" 
d="M155 418h1c-1 -24 -5 -49 -1 -73c-2 -38 -3 -75 -4 -111c-1 -30 -1 -60 -1 -90c0 -39 1 -78 1 -117c0 -5 -2 -10 -3 -15c-6 -14 -6 -14 -20 -13c-17 0 -34 0 -52 1c-27 0 -45 18 -46 45c0 11 1 22 2 33c0 3 1 6 1 8c-5 27 4 53 3 80c-1 26 0 52 1 79v47c0 29 1 59 2 88
c0 24 -1 49 0 73c0 9 2 19 2 28c2 27 3 54 4 80c2 59 3 117 -4 176c-2 9 -3 19 -4 30c3 5 9 7 16 7c30 0 73 -1 103 -1c1 -23 -1 -44 -2 -67c1 -44 2 -88 2 -133c0 -23 -1 -46 -1 -69c-1 -25 -1 -51 -2 -77c0 -2 1 -5 2 -9zM60 845c0 3 0 8 1 10c19 28 34 58 51 87
c1 2 1 3 3 5l7 7c11 7 22 11 35 9c11 -2 21 -3 31 -6c6 -1 10 -4 15 -6c5 -3 8 -7 11 -12c2 -4 1 -11 -3 -14c-9 -8 -20 -15 -28 -23c-9 -9 -16 -19 -25 -28c-3 -4 -7 -8 -11 -11c-14 -11 -28 -21 -43 -31c-10 -6 -20 -6 -31 -2c-7 2 -11 8 -13 15z" />
    <glyph glyph-name="Oacute" unicode="&#xd3;" horiz-adv-x="444" 
d="M31 211v50c0 25 0 50 1 75c2 30 4 60 7 90c1 16 2 32 4 48c5 39 8 78 15 116c4 21 12 41 21 61c7 17 16 33 25 49c9 17 23 31 40 41c11 6 21 15 32 21c12 5 25 8 38 10c20 1 41 1 61 1c5 0 12 1 15 -6c0 -2 8 1 11 -1c6 -5 14 -6 22 -6c3 0 6 -3 9 -5c7 -6 12 -13 20 -17
c17 -10 28 -25 34 -42c9 -24 17 -49 22 -73c5 -23 5 -47 7 -71c3 -25 5 -50 6 -75c1 -29 4 -58 2 -87c-2 -21 0 -42 -1 -64c-2 -30 -5 -60 -7 -91c-2 -27 -10 -52 -15 -78c-4 -22 -13 -42 -24 -60c-15 -23 -31 -47 -51 -67c-17 -15 -37 -24 -60 -23c-12 1 -23 0 -34 -5
c-8 -4 -18 -4 -27 -1c-18 6 -35 11 -53 15c-17 4 -29 17 -45 24c-24 11 -32 36 -50 53c-8 7 -11 22 -14 34c-8 27 -14 55 -11 84zM237 58c5 5 11 10 15 15c13 17 20 36 26 56c12 33 12 66 16 99c3 24 3 47 4 71c1 13 2 25 3 37c2 37 6 73 4 109c-1 8 -2 16 -1 24
c2 60 -2 121 -7 182c-1 18 -4 37 -13 53c-9 15 -26 17 -36 4c-11 -13 -22 -27 -30 -42c-19 -34 -30 -71 -31 -111c-1 -35 0 -70 -6 -106c-7 -44 -11 -89 -8 -135c3 -43 2 -86 4 -129c2 -25 5 -50 10 -75c4 -16 10 -32 25 -41c8 -4 16 -7 25 -11zM210 845c0 3 0 8 1 10
c19 28 34 58 51 87c1 2 1 3 3 5l7 7c11 7 22 11 35 9c11 -2 21 -3 31 -6c6 -1 10 -4 15 -6c5 -3 8 -7 11 -12c2 -4 1 -11 -3 -14c-9 -8 -20 -15 -28 -23c-9 -9 -16 -19 -25 -28c-3 -4 -7 -8 -11 -11c-14 -11 -28 -21 -43 -31c-10 -6 -20 -6 -31 -2c-7 2 -11 8 -13 15z" />
    <glyph glyph-name="Uacute" unicode="&#xda;" horiz-adv-x="459" 
d="M258 66c25 7 41 21 51 41c8 16 15 32 19 49c6 29 11 58 16 87c4 19 8 38 10 57c3 31 3 62 5 92c1 29 4 57 4 85c1 27 0 54 0 80c1 24 3 47 4 71c2 43 3 85 4 129c15 6 30 6 45 3c10 -2 23 -19 23 -29v-28c-1 -18 -2 -37 -3 -55c-1 -15 -2 -29 -1 -44c2 -18 -2 -36 -2 -54
c-1 -28 -2 -56 -3 -83v-35c-1 -13 -1 -27 -2 -40c-1 -21 -2 -41 -3 -61c0 -1 -1 -1 0 -2c5 -30 -6 -59 -8 -88c-2 -20 -6 -40 -10 -60c-4 -19 -9 -38 -15 -57c-5 -19 -13 -37 -26 -52c-5 -6 -8 -13 -12 -19c-5 -9 -13 -14 -23 -18c-7 -2 -13 -9 -19 -14c-5 -4 -11 -8 -18 -7
c-2 0 -4 0 -5 -1c-12 -9 -26 -5 -39 -6c-7 0 -13 -2 -20 -2s-16 2 -23 4c-14 5 -28 10 -42 16c-5 2 -11 7 -16 9c-15 5 -24 16 -35 26s-22 18 -29 32c-7 15 -19 29 -23 47c-2 8 -8 16 -12 24c-7 18 -7 37 -9 56c-2 22 -4 45 -6 67c-4 33 -7 66 -3 99c1 8 -2 18 -1 26
c1 28 3 56 4 85c0 14 -1 28 1 41c5 38 -1 77 0 115c2 32 0 65 9 96c5 16 6 19 22 20c35 3 70 4 105 -3c11 -2 18 -10 19 -22c0 -20 0 -40 -1 -59c-2 -38 -4 -76 -3 -113c1 -40 1 -79 1 -119c0 -29 1 -58 1 -88c0 -22 -1 -44 -1 -67c0 -14 0 -28 1 -42c3 -25 5 -50 9 -75
c4 -21 8 -41 15 -61c7 -24 25 -40 45 -53zM180 845c0 3 0 8 1 10c19 28 34 58 51 87c1 2 1 3 3 5l7 7c11 7 22 11 35 9c11 -2 21 -3 31 -6c6 -1 10 -4 15 -6c5 -3 8 -7 11 -12c2 -4 1 -11 -3 -14c-9 -8 -20 -15 -28 -23c-9 -9 -16 -19 -25 -28c-3 -4 -7 -8 -11 -11
c-14 -11 -28 -21 -43 -31c-10 -6 -20 -6 -31 -2c-7 2 -11 8 -13 15z" />
    <glyph glyph-name="Yacute" unicode="&#xdd;" horiz-adv-x="466" 
d="M441 807c5 -13 7 -24 1 -36c-7 -14 -10 -29 -15 -44c-6 -20 -11 -40 -18 -59c-3 -11 -9 -22 -14 -33l-45 -117c-3 -6 -42 -116 -51 -127c-1 -1 -1 -2 -1 -3c2 -206 1 -67 -3 -178c-1 -33 -2 -67 -2 -101v-84c0 -9 -4 -17 -12 -21c-3 -2 -6 -4 -9 -4c-28 -6 -56 -2 -84 5
c-14 4 -16 11 -14 25c3 15 2 30 4 45c3 24 0 47 -2 71c-3 28 -4 57 -3 86c2 48 4 80 5 133l-40 111c-12 36 -24 73 -38 109c-15 40 -32 79 -48 119c-7 18 -13 36 -19 55c-2 4 -2 10 -3 15c3 1 5 3 7 3c16 2 32 2 48 3c1 1 2 0 3 1c11 8 23 2 34 3c7 0 14 -3 20 -7
c8 -6 17 -13 22 -23c8 -19 17 -38 26 -56c4 -9 9 -17 12 -25c7 -16 12 -32 18 -48c1 -4 2 -8 4 -10c15 -19 22 -42 30 -64c3 -9 6 -18 10 -27c3 -8 6 -15 10 -23c2 4 5 8 6 12c14 35 26 71 40 106c3 10 8 20 12 31c3 5 5 10 7 16c14 40 28 81 42 122c3 10 11 16 21 17
c13 1 26 1 39 2zM189 845c0 3 0 8 1 10c19 28 34 58 51 87c1 2 1 3 3 5l7 7c11 7 22 11 35 9c11 -2 21 -3 31 -6c6 -1 10 -4 15 -6c5 -3 8 -7 11 -12c2 -4 1 -11 -3 -14c-9 -8 -20 -15 -28 -23c-9 -9 -16 -19 -25 -28c-3 -4 -7 -8 -11 -11c-14 -11 -28 -21 -43 -31
c-10 -6 -20 -6 -31 -2c-7 2 -11 8 -13 15z" />
    <glyph glyph-name="Thorn" unicode="&#xde;" horiz-adv-x="439" 
d="M153 660c0 -6 7 -13 14 -14c16 -1 32 -3 47 -4c11 -1 22 0 32 0c11 -1 21 -1 32 -2c9 0 17 -2 26 -5c14 -7 29 -13 44 -17c9 -2 16 -8 22 -14c12 -11 21 -24 29 -38c3 -4 5 -9 6 -14c2 -20 7 -39 10 -58c3 -15 2 -31 3 -47c2 -32 -6 -63 -15 -94c-5 -17 -13 -32 -24 -46
c-5 -6 -9 -12 -14 -16c-30 -26 -60 -49 -97 -64c-26 -11 -51 -24 -78 -34c-8 -3 -15 -8 -23 -12c-8 -5 -13 -12 -13 -22c1 -17 2 -35 2 -53c0 -23 0 -46 6 -68c1 -3 0 -7 0 -11c0 -12 -12 -24 -24 -22c-17 2 -35 4 -52 6c-19 3 -35 22 -36 41c0 12 -1 25 1 37
c4 28 3 56 1 85c-5 79 -7 158 -5 238c1 35 1 70 -2 106c-1 5 -1 10 -1 16c0 56 -6 112 -14 168c-1 11 -2 21 -2 32c0 13 8 27 24 31c29 7 57 4 82 -11c11 -7 18 -18 19 -31c1 -10 0 -21 0 -32v-31zM151 271c0 -4 2 -7 3 -10c1 -4 4 -6 8 -4c15 7 27 17 39 27
c29 23 54 50 70 84c9 20 18 39 24 59c1 5 2 10 3 16c0 21 -1 42 -5 63c-5 27 -20 48 -44 62c-9 5 -19 9 -30 9c-19 1 -39 0 -58 -2c-4 -1 -11 -6 -12 -10c-1 -3 -2 -6 -2 -10c-4 -46 -4 -91 0 -137c3 -30 5 -60 4 -100v-47z" />
    <glyph glyph-name="thorn" unicode="&#xfe;" horiz-adv-x="434" 
d="M45 773c0 10 8 22 18 24c6 2 13 4 20 4c20 1 39 -3 56 -14c9 -5 16 -15 15 -26c-1 -14 -3 -28 1 -42c2 -7 1 -14 1 -21c0 -53 4 -106 2 -159c0 -2 0 -4 1 -5s3 -2 4 -2c2 0 4 0 5 1c4 4 7 8 11 12c8 12 20 19 32 27c8 5 16 7 25 7c23 1 46 1 69 1c8 -1 17 -2 26 -4
c10 -2 20 -7 28 -15c5 -4 9 -10 15 -15c30 -25 25 -25 33 -57c6 -24 8 -49 6 -73c-2 -20 -4 -39 -6 -58c-1 -9 -3 -18 -3 -27c-1 -17 -3 -35 -9 -52l-3 -15c-2 -35 -18 -65 -34 -94c-5 -9 -13 -17 -21 -24s-17 -12 -28 -14c-16 -2 -31 -4 -47 -7c-22 -3 -42 2 -62 8
c-11 4 -18 12 -26 18c-4 3 -7 4 -9 2c-1 -1 -2 -3 -2 -5c5 -28 6 -56 4 -84v-32c-1 -24 -14 -39 -34 -50c-5 -2 -10 -4 -15 -5c-3 -1 -7 -1 -10 0c-9 2 -18 4 -26 8c-11 4 -21 12 -26 24c-4 8 -7 17 -9 25c-1 5 -2 11 -1 16c6 22 5 45 1 68s-5 46 -6 69c-1 14 -1 28 -3 42
c-5 33 -4 67 -3 100c1 23 4 46 4 69c2 37 3 74 -3 111c-1 9 -1 18 -1 26c4 43 4 85 9 127c3 19 2 39 3 58h-1c-1 18 -1 36 -1 53zM306 462c-2 16 -9 30 -17 44l-4 4c-10 8 -20 12 -34 9c-17 -3 -29 -11 -37 -26c-6 -11 -12 -22 -18 -32c-9 -18 -15 -36 -16 -56
c0 -28 0 -56 -1 -84s3 -56 10 -83c2 -10 12 -19 22 -20c14 -2 28 2 39 11c16 12 27 27 33 46c2 7 3 14 6 21c14 42 15 86 19 129c0 2 0 4 0 1c-1 15 -1 26 -2 36z" />
    <glyph glyph-name="germandbls" unicode="&#xdf;" horiz-adv-x="419" 
d="M156 230c-1 -17 1 -35 3 -52c5 -37 5 -74 5 -111c-1 -9 -3 -18 -6 -26c-5 -12 -13 -21 -26 -24c-7 -2 -13 -4 -20 -6c-13 -3 -25 -3 -37 0c-7 2 -14 4 -20 6c-10 3 -17 14 -18 25c0 9 0 17 1 26c2 23 1 46 -2 69c-4 24 -5 49 -2 74c3 23 5 46 0 68c-5 29 -5 57 -2 85
c1 17 2 35 1 53c0 12 1 24 1 37c1 21 3 42 2 63c0 22 4 43 13 62c11 24 19 49 29 74c5 13 12 25 21 36c12 14 23 27 35 40c10 11 22 18 36 22c27 7 55 12 84 10c9 -1 17 -3 25 -6c22 -7 41 -20 61 -32c4 -2 8 -7 11 -11c12 -22 24 -43 29 -68c1 -5 3 -10 4 -15
c13 -38 15 -76 14 -115c0 -7 -2 -15 -4 -21c-8 -25 -15 -51 -25 -75c-16 -42 -37 -81 -67 -114c-4 -5 -8 -11 -12 -17c-2 -4 -2 -8 1 -9c17 -10 33 -21 49 -32c13 -9 19 -20 22 -34c4 -16 7 -32 9 -47c3 -14 2 -28 -1 -42c-6 -23 -14 -44 -22 -66c-1 -5 -5 -9 -7 -13
c-5 -8 -12 -14 -20 -18c-26 -10 -53 -19 -82 -18c-7 0 -14 2 -21 4c-10 3 -15 15 -12 25c3 9 7 17 12 24c8 12 16 23 24 34c6 8 9 16 11 24c5 17 8 35 10 53c1 14 0 28 -5 41c-2 7 -6 13 -12 17c-9 6 -18 11 -29 12c-9 1 -17 2 -26 3c-8 1 -15 15 -11 21c1 3 3 6 5 9
c6 9 13 17 19 25c31 40 49 86 58 135c7 35 9 70 17 104c5 52 6 103 -7 153c-3 11 -7 20 -14 28c-2 3 -5 5 -8 7s-7 2 -10 1s-7 -2 -10 -4c-34 -27 -57 -63 -73 -103c-1 -3 -2 -6 -3 -10c-3 -22 -7 -45 -4 -68c2 -14 2 -28 1 -43c-1 -37 0 -74 1 -99c2 -65 5 -118 4 -171z
" />
    <glyph glyph-name="mu" unicode="&#xb5;" horiz-adv-x="564" 
d="M36 125c0 35 -1 71 -5 106c-3 23 -3 45 2 68c3 19 4 39 3 58c-3 44 -2 89 -1 133c0 19 1 39 -2 58c-3 25 -3 49 -2 74c0 18 1 35 1 53c0 16 3 31 3 48c-1 13 8 22 20 28c9 5 20 8 30 9c7 1 14 1 21 -1c11 -2 21 -5 31 -7c14 -4 28 -21 28 -35v-11
c-7 -52 -9 -105 -14 -158c0 -9 -1 -18 1 -27c3 -17 2 -35 2 -52v-106c0 -9 1 -18 1 -27c2 -21 6 -42 16 -61c5 -11 10 -23 12 -35c4 -21 12 -41 21 -60c4 -8 7 -16 10 -24c5 -10 11 -19 18 -27c4 -5 10 -10 13 -16c11 -15 27 -22 44 -28c14 -5 28 -3 40 6c4 4 9 6 13 10
c21 21 40 45 53 72c11 25 19 50 23 76c3 19 5 38 11 57c2 7 2 14 2 21c1 39 2 78 -3 117c-6 47 -3 95 -2 143c1 30 4 60 5 90c1 21 6 42 13 62c2 4 5 9 8 13c3 5 8 7 13 8c14 4 28 4 42 2c10 -1 17 -5 22 -13c2 -3 4 -6 5 -9c6 -17 9 -35 9 -52c0 -43 2 -85 -3 -127
c-1 -13 0 -25 0 -37c1 -45 -1 -89 -9 -132c-5 -30 -5 -60 -7 -90c-1 -11 0 -21 -2 -32c-7 -45 -6 -91 -9 -137c-1 -25 0 -50 1 -74c0 -11 -3 -21 -8 -31c-4 -8 -10 -14 -19 -17c-10 -3 -21 -3 -32 -1c-5 0 -10 2 -14 6c-9 6 -16 14 -22 22c-4 6 -8 12 -14 16c-1 1 -3 1 -5 1
c-1 -1 -3 -1 -4 -2c-35 -27 -75 -30 -116 -28c-11 0 -21 4 -31 8c-21 8 -41 20 -57 37c-9 9 -18 17 -27 26c-1 1 -3 1 -5 0c-1 0 -3 -1 -3 -2c-2 -3 -3 -7 -3 -10c-1 -50 1 -99 4 -148c0 -13 2 -25 4 -37c4 -23 4 -46 4 -69c0 -22 -6 -42 -15 -61c-3 -7 -7 -12 -13 -17
c-8 -7 -18 -10 -29 -9c-16 2 -31 7 -45 15c-3 2 -6 4 -8 6c-9 10 -15 20 -17 33c-4 19 -6 38 -4 58c3 33 1 67 0 100c-1 18 -2 36 -2 51c3 41 3 80 3 119z" />
    <glyph glyph-name="section" unicode="&#xa7;" horiz-adv-x="471" 
d="M325 847c5 -2 10 -3 15 -4c25 -6 46 -18 66 -33c4 -3 8 -7 12 -11c26 -27 35 -61 32 -97c-2 -23 -8 -46 -18 -67c-6 -12 -14 -24 -25 -33c-7 -5 -14 -11 -22 -16c-11 -8 -25 -12 -39 -14c-9 -1 -18 0 -25 6c-4 2 -5 6 -3 8c2 5 5 10 8 14c18 21 24 46 30 72
c1 5 1 11 0 16c0 18 -4 35 -9 52c-5 15 -13 29 -25 40c-6 5 -11 9 -18 11c-12 3 -24 5 -37 4l-21 -3c-22 -4 -39 -16 -49 -36c-19 -34 -24 -70 -13 -107c6 -23 17 -43 31 -61c13 -17 28 -32 44 -46c11 -9 22 -18 31 -28c25 -26 52 -49 80 -70c14 -11 27 -23 38 -37
c9 -11 17 -22 21 -36l6 -15c11 -22 9 -44 4 -67c-2 -10 -6 -20 -9 -30c-7 -19 -18 -35 -33 -47c-11 -9 -23 -18 -34 -26c-6 -5 -7 -14 -2 -19c6 -6 12 -12 18 -19c14 -16 26 -33 32 -54c1 -4 2 -7 4 -10c9 -18 7 -38 4 -57c-3 -12 -7 -24 -11 -36c-5 -17 -15 -31 -28 -43
c-23 -21 -47 -38 -76 -49c-11 -4 -23 -9 -35 -10c-4 0 -7 0 -11 -1c-15 -3 -31 -7 -47 -5c-31 4 -63 4 -93 16c-33 12 -58 33 -71 66c-7 17 -10 34 -14 51c-1 4 -1 7 -1 11c1 16 4 32 9 47c3 6 6 12 10 18c18 25 43 36 72 39c13 1 25 -3 36 -9c5 -2 8 -7 11 -11
c2 -4 2 -10 -2 -14s-8 -7 -11 -11c-4 -4 -8 -8 -10 -13c-11 -23 -14 -47 -10 -72c2 -16 8 -31 18 -44c11 -14 26 -23 44 -26c11 -1 21 -2 32 -1c24 1 39 15 50 34c8 14 12 30 12 46c1 16 -1 31 -8 46c-20 39 -18 43 -56 76c-28 25 -55 49 -83 74c-19 16 -37 33 -53 52
c-8 9 -15 19 -22 29c-17 26 -29 53 -33 83c-1 11 -3 21 -4 32c0 3 -1 7 0 10c3 21 5 43 12 63c6 15 13 28 23 41l21 24c4 5 4 10 2 15c-3 7 -7 13 -10 19c-13 23 -20 49 -24 75c-4 29 0 56 7 84c5 21 15 39 30 55c6 7 12 13 18 19c8 8 17 13 27 17c42 19 86 30 131 30
c20 1 37 0 54 -7zM181 338c13 -21 28 -40 47 -57c19 -16 37 -32 55 -49c7 -6 19 -3 22 5c14 31 14 62 -1 92c-3 6 -6 13 -9 19c-6 15 -16 28 -28 38c-27 25 -55 50 -82 74c-3 2 -6 4 -9 5c-4 3 -7 2 -9 -2c-3 -5 -6 -9 -7 -14c-2 -9 -3 -17 -3 -17c-2 -40 8 -69 24 -94z" />
    <glyph glyph-name="Acircumflex" unicode="&#xc2;" 
d="M208 211c-15 0 -29 -1 -42 0c-13 0 -26 2 -40 3c-1 -3 -3 -5 -3 -8c-3 -20 -6 -39 -8 -59c-4 -30 -7 -59 -10 -89c-1 -9 -2 -18 -3 -26c-1 -21 -9 -29 -30 -31c-6 0 -12 -1 -18 -1c-12 0 -22 7 -23 18c-2 10 -2 19 -1 29c3 17 6 34 8 52c5 35 10 70 14 105
c7 50 13 99 19 149l15 117c6 42 13 83 19 125c3 17 8 35 10 52c4 36 6 72 10 108c1 7 4 15 7 24c18 -3 34 -5 51 -7c4 -1 8 -2 11 -1c9 5 15 1 21 -6c13 9 29 7 44 6c14 -1 24 -12 26 -28l12 -93c3 -18 4 -37 6 -56c4 -45 8 -91 12 -136c2 -21 7 -42 11 -62
c4 -29 8 -58 13 -87c5 -31 12 -63 14 -95c3 -27 8 -54 12 -81c5 -28 12 -56 17 -85c2 -9 2 -19 2 -29c0 -3 -3 -7 -6 -8c-8 -3 -16 -5 -24 -5c-31 0 -62 1 -93 2c-4 0 -7 0 -10 1c-4 3 -11 7 -12 11c-4 15 -13 29 -13 45c0 15 -1 29 -2 44c0 8 0 15 -2 23
c-3 23 -7 46 -11 69c0 3 -1 6 -3 10zM203 257c-3 42 -8 84 -16 125c-4 21 -6 42 -7 62c-2 27 -2 53 -2 79c0 24 1 48 1 72c0 3 -2 6 -3 9c-23 -114 -27 -231 -44 -347c24 -3 47 -2 71 0zM255 401h1c0 3 -1 5 -1 8h-1c0 -3 0 -5 1 -8zM361 828c-11 -4 -21 -4 -31 2
c-15 10 -29 20 -43 31c-4 3 -8 7 -11 11c-9 9 -16 19 -25 28c-8 8 -19 15 -28 23c-4 3 -5 10 -3 14c3 5 6 9 11 12c5 2 9 5 15 6c10 3 20 4 31 6c13 2 24 -2 35 -9l7 -7s2 -3 3 -5c17 -29 32 -59 51 -87c1 -2 1 -7 1 -10c-2 -7 -6 -13 -13 -15zM50 845c0 3 0 8 1 10
c19 28 34 58 51 87c1 2 1 3 3 5l7 7c11 7 22 11 35 9c11 -2 21 -3 31 -6c6 -1 10 -4 15 -6c5 -3 8 -7 11 -12c2 -4 1 -11 -3 -14c-9 -8 -20 -15 -28 -23c-9 -9 -16 -19 -25 -28c-3 -4 -7 -8 -11 -11c-14 -11 -28 -21 -43 -31c-10 -6 -20 -6 -31 -2c-7 2 -11 8 -13 15z" />
    <glyph glyph-name="Ecircumflex" unicode="&#xca;" horiz-adv-x="326" 
d="M155 428c8 1 15 0 21 2c18 7 37 4 56 4c4 0 9 -2 13 -4c18 -14 14 -34 -7 -42c-7 -2 -15 -4 -23 -4c-21 1 -43 -4 -63 -7c-12 -50 -10 -287 -7 -330c13 -6 26 1 38 2c17 1 33 4 49 11c19 8 45 1 58 -15c4 -5 8 -11 1 -18c-2 -1 -2 -4 -3 -5c-7 -14 -19 -19 -35 -16
c-4 1 -9 0 -13 0c-21 -3 -41 -7 -61 -9c-17 -2 -33 -3 -50 -4c-9 -1 -18 -1 -27 -2c-4 0 -10 2 -14 0c-14 -8 -24 2 -33 9c-11 7 -16 19 -18 32c0 7 -3 13 -3 20c-2 13 -5 25 -1 38c2 8 1 16 2 24c7 49 4 99 5 149c1 47 3 93 4 139c1 43 0 85 2 127c1 30 3 59 5 88
c1 40 3 80 4 120c1 9 2 17 3 26c1 7 5 11 12 12c13 0 25 -1 38 -1c35 1 70 2 105 2c21 1 42 1 63 1c10 0 19 -6 26 -14c2 -3 4 -9 3 -13c-6 -16 -16 -23 -32 -24c-5 0 -10 1 -15 1c-23 -1 -47 -1 -70 -1c-8 0 -17 1 -26 1c-12 1 -15 -2 -15 -13c0 -14 1 -28 1 -42
c1 -37 2 -75 3 -112l3 -120c0 -4 1 -7 1 -12zM311 828c-11 -4 -21 -4 -31 2c-15 10 -29 20 -43 31c-4 3 -8 7 -11 11c-9 9 -16 19 -25 28c-8 8 -19 15 -28 23c-4 3 -5 10 -3 14c3 5 6 9 11 12c5 2 9 5 15 6c10 3 20 4 31 6c13 2 24 -2 35 -9l7 -7s2 -3 3 -5
c17 -29 32 -59 51 -87c1 -2 1 -7 1 -10c-2 -7 -6 -13 -13 -15zM0 845c0 3 0 8 1 10c19 28 34 58 51 87c1 2 1 3 3 5l7 7c11 7 22 11 35 9c11 -2 21 -3 31 -6c6 -1 10 -4 15 -6c5 -3 8 -7 11 -12c2 -4 1 -11 -3 -14c-9 -8 -20 -15 -28 -23c-9 -9 -16 -19 -25 -28
c-3 -4 -7 -8 -11 -11c-14 -11 -28 -21 -43 -31c-10 -6 -20 -6 -31 -2c-7 2 -11 8 -13 15z" />
    <glyph glyph-name="Ocircumflex" unicode="&#xd4;" horiz-adv-x="444" 
d="M31 211v50c0 25 0 50 1 75c2 30 4 60 7 90c1 16 2 32 4 48c5 39 8 78 15 116c4 21 12 41 21 61c7 17 16 33 25 49c9 17 23 31 40 41c11 6 21 15 32 21c12 5 25 8 38 10c20 1 41 1 61 1c5 0 12 1 15 -6c0 -2 8 1 11 -1c6 -5 14 -6 22 -6c3 0 6 -3 9 -5c7 -6 12 -13 20 -17
c17 -10 28 -25 34 -42c9 -24 17 -49 22 -73c5 -23 5 -47 7 -71c3 -25 5 -50 6 -75c1 -29 4 -58 2 -87c-2 -21 0 -42 -1 -64c-2 -30 -5 -60 -7 -91c-2 -27 -10 -52 -15 -78c-4 -22 -13 -42 -24 -60c-15 -23 -31 -47 -51 -67c-17 -15 -37 -24 -60 -23c-12 1 -23 0 -34 -5
c-8 -4 -18 -4 -27 -1c-18 6 -35 11 -53 15c-17 4 -29 17 -45 24c-24 11 -32 36 -50 53c-8 7 -11 22 -14 34c-8 27 -14 55 -11 84zM237 58c5 5 11 10 15 15c13 17 20 36 26 56c12 33 12 66 16 99c3 24 3 47 4 71c1 13 2 25 3 37c2 37 6 73 4 109c-1 8 -2 16 -1 24
c2 60 -2 121 -7 182c-1 18 -4 37 -13 53c-9 15 -26 17 -36 4c-11 -13 -22 -27 -30 -42c-19 -34 -30 -71 -31 -111c-1 -35 0 -70 -6 -106c-7 -44 -11 -89 -8 -135c3 -43 2 -86 4 -129c2 -25 5 -50 10 -75c4 -16 10 -32 25 -41c8 -4 16 -7 25 -11zM391 828
c-11 -4 -21 -4 -31 2c-15 10 -29 20 -43 31c-4 3 -8 7 -11 11c-9 9 -16 19 -25 28c-8 8 -19 15 -28 23c-4 3 -5 10 -3 14c3 5 6 9 11 12c5 2 9 5 15 6c10 3 20 4 31 6c13 2 24 -2 35 -9l7 -7s2 -3 3 -5c17 -29 32 -59 51 -87c1 -2 1 -7 1 -10c-2 -7 -6 -13 -13 -15zM80 845
c0 3 0 8 1 10c19 28 34 58 51 87c1 2 1 3 3 5l7 7c11 7 22 11 35 9c11 -2 21 -3 31 -6c6 -1 10 -4 15 -6c5 -3 8 -7 11 -12c2 -4 1 -11 -3 -14c-9 -8 -20 -15 -28 -23c-9 -9 -16 -19 -25 -28c-3 -4 -7 -8 -11 -11c-14 -11 -28 -21 -43 -31c-10 -6 -20 -6 -31 -2
c-7 2 -11 8 -13 15z" />
    <glyph glyph-name="Ucircumflex" unicode="&#xdb;" horiz-adv-x="459" 
d="M258 66c25 7 41 21 51 41c8 16 15 32 19 49c6 29 11 58 16 87c4 19 8 38 10 57c3 31 3 62 5 92c1 29 4 57 4 85c1 27 0 54 0 80c1 24 3 47 4 71c2 43 3 85 4 129c15 6 30 6 45 3c10 -2 23 -19 23 -29v-28c-1 -18 -2 -37 -3 -55c-1 -15 -2 -29 -1 -44c2 -18 -2 -36 -2 -54
c-1 -28 -2 -56 -3 -83v-35c-1 -13 -1 -27 -2 -40c-1 -21 -2 -41 -3 -61c0 -1 -1 -1 0 -2c5 -30 -6 -59 -8 -88c-2 -20 -6 -40 -10 -60c-4 -19 -9 -38 -15 -57c-5 -19 -13 -37 -26 -52c-5 -6 -8 -13 -12 -19c-5 -9 -13 -14 -23 -18c-7 -2 -13 -9 -19 -14c-5 -4 -11 -8 -18 -7
c-2 0 -4 0 -5 -1c-12 -9 -26 -5 -39 -6c-7 0 -13 -2 -20 -2s-16 2 -23 4c-14 5 -28 10 -42 16c-5 2 -11 7 -16 9c-15 5 -24 16 -35 26s-22 18 -29 32c-7 15 -19 29 -23 47c-2 8 -8 16 -12 24c-7 18 -7 37 -9 56c-2 22 -4 45 -6 67c-4 33 -7 66 -3 99c1 8 -2 18 -1 26
c1 28 3 56 4 85c0 14 -1 28 1 41c5 38 -1 77 0 115c2 32 0 65 9 96c5 16 6 19 22 20c35 3 70 4 105 -3c11 -2 18 -10 19 -22c0 -20 0 -40 -1 -59c-2 -38 -4 -76 -3 -113c1 -40 1 -79 1 -119c0 -29 1 -58 1 -88c0 -22 -1 -44 -1 -67c0 -14 0 -28 1 -42c3 -25 5 -50 9 -75
c4 -21 8 -41 15 -61c7 -24 25 -40 45 -53zM401 828c-11 -4 -21 -4 -31 2c-15 10 -29 20 -43 31c-4 3 -8 7 -11 11c-9 9 -16 19 -25 28c-8 8 -19 15 -28 23c-4 3 -5 10 -3 14c3 5 6 9 11 12c5 2 9 5 15 6c10 3 20 4 31 6c13 2 24 -2 35 -9l7 -7s2 -3 3 -5
c17 -29 32 -59 51 -87c1 -2 1 -7 1 -10c-2 -7 -6 -13 -13 -15zM90 845c0 3 0 8 1 10c19 28 34 58 51 87c1 2 1 3 3 5l7 7c11 7 22 11 35 9c11 -2 21 -3 31 -6c6 -1 10 -4 15 -6c5 -3 8 -7 11 -12c2 -4 1 -11 -3 -14c-9 -8 -20 -15 -28 -23c-9 -9 -16 -19 -25 -28
c-3 -4 -7 -8 -11 -11c-14 -11 -28 -21 -43 -31c-10 -6 -20 -6 -31 -2c-7 2 -11 8 -13 15z" />
    <glyph glyph-name="Icircumflex" unicode="&#xce;" horiz-adv-x="177" 
d="M155 418h1c-1 -24 -5 -49 -1 -73c-2 -38 -3 -75 -4 -111c-1 -30 -1 -60 -1 -90c0 -39 1 -78 1 -117c0 -5 -2 -10 -3 -15c-6 -14 -6 -14 -20 -13c-17 0 -34 0 -52 1c-27 0 -45 18 -46 45c0 11 1 22 2 33c0 3 1 6 1 8c-5 27 4 53 3 80c-1 26 0 52 1 79v47c0 29 1 59 2 88
c0 24 -1 49 0 73c0 9 2 19 2 28c2 27 3 54 4 80c2 59 3 117 -4 176c-2 9 -3 19 -4 30c3 5 9 7 16 7c30 0 73 -1 103 -1c1 -23 -1 -44 -2 -67c1 -44 2 -88 2 -133c0 -23 -1 -46 -1 -69c-1 -25 -1 -51 -2 -77c0 -2 1 -5 2 -9zM241 828c-11 -4 -21 -4 -31 2
c-15 10 -29 20 -43 31c-4 3 -8 7 -11 11c-9 9 -16 19 -25 28c-8 8 -19 15 -28 23c-4 3 -5 10 -3 14c3 5 6 9 11 12c5 2 9 5 15 6c10 3 20 4 31 6c13 2 24 -2 35 -9l7 -7s2 -3 3 -5c17 -29 32 -59 51 -87c1 -2 1 -7 1 -10c-2 -7 -6 -13 -13 -15zM-70 845c0 3 0 8 1 10
c19 28 34 58 51 87c1 2 1 3 3 5l7 7c11 7 22 11 35 9c11 -2 21 -3 31 -6c6 -1 10 -4 15 -6c5 -3 8 -7 11 -12c2 -4 1 -11 -3 -14c-9 -8 -20 -15 -28 -23c-9 -9 -16 -19 -25 -28c-3 -4 -7 -8 -11 -11c-14 -11 -28 -21 -43 -31c-10 -6 -20 -6 -31 -2c-7 2 -11 8 -13 15z" />
    <glyph glyph-name="Atilde" unicode="&#xc3;" 
d="M208 211c-15 0 -29 -1 -42 0c-13 0 -26 2 -40 3c-1 -3 -3 -5 -3 -8c-3 -20 -6 -39 -8 -59c-4 -30 -7 -59 -10 -89c-1 -9 -2 -18 -3 -26c-1 -21 -9 -29 -30 -31c-6 0 -12 -1 -18 -1c-12 0 -22 7 -23 18c-2 10 -2 19 -1 29c3 17 6 34 8 52c5 35 10 70 14 105
c7 50 13 99 19 149l15 117c6 42 13 83 19 125c3 17 8 35 10 52c4 36 6 72 10 108c1 7 4 15 7 24c18 -3 34 -5 51 -7c4 -1 8 -2 11 -1c9 5 15 1 21 -6c13 9 29 7 44 6c14 -1 24 -12 26 -28l12 -93c3 -18 4 -37 6 -56c4 -45 8 -91 12 -136c2 -21 7 -42 11 -62
c4 -29 8 -58 13 -87c5 -31 12 -63 14 -95c3 -27 8 -54 12 -81c5 -28 12 -56 17 -85c2 -9 2 -19 2 -29c0 -3 -3 -7 -6 -8c-8 -3 -16 -5 -24 -5c-31 0 -62 1 -93 2c-4 0 -7 0 -10 1c-4 3 -11 7 -12 11c-4 15 -13 29 -13 45c0 15 -1 29 -2 44c0 8 0 15 -2 23
c-3 23 -7 46 -11 69c0 3 -1 6 -3 10zM203 257c-3 42 -8 84 -16 125c-4 21 -6 42 -7 62c-2 27 -2 53 -2 79c0 24 1 48 1 72c0 3 -2 6 -3 9c-23 -114 -27 -231 -44 -347c24 -3 47 -2 71 0zM255 401h1c0 3 -1 5 -1 8h-1c0 -3 0 -5 1 -8zM379 939c5 -4 10 -8 14 -12
c9 -8 11 -18 6 -29c-3 -7 -5 -14 -8 -21c-10 -25 -30 -38 -54 -46c-23 -8 -47 -5 -70 -1c-15 2 -29 12 -43 20c-13 6 -24 15 -36 21c-16 8 -33 7 -49 -3c-14 -8 -28 -15 -37 -29c-5 -7 -13 -8 -23 -7c-13 1 -24 8 -37 9c-13 2 -14 6 -9 18c3 6 6 13 9 20c6 13 18 20 30 28
c9 6 19 13 29 17c12 4 25 4 37 5c15 0 28 -5 42 -9c32 -9 57 -31 86 -44c5 -2 8 -2 13 -1c11 4 23 6 34 10c15 7 26 18 32 33c6 14 16 18 29 20c1 1 3 1 5 1z" />
    <glyph glyph-name="Ntilde" unicode="&#xd1;" horiz-adv-x="415" 
d="M104 503c-2 -2 -3 -2 -3 -3l-3 -69v-137c0 -47 -1 -93 0 -139c0 -32 1 -63 3 -95c1 -13 0 -26 -3 -39c0 -3 -2 -8 -5 -9c-15 -6 -31 -15 -49 -5c-9 6 -14 12 -14 21c1 16 3 31 3 46v52c-1 22 -1 44 -1 66c0 13 1 26 1 39c1 32 1 63 1 95c0 38 -2 76 1 113
c5 75 7 150 9 225c1 22 2 45 4 68c1 16 7 20 24 19c19 0 37 -4 54 -11c4 -2 9 -6 12 -11c18 -37 33 -76 53 -113c25 -48 53 -94 80 -141c11 -18 24 -34 31 -54c4 -9 12 -16 19 -26v34c0 25 1 51 0 76c0 23 -2 45 -2 68c0 34 1 68 0 103c0 24 -1 49 -3 74c0 6 2 11 9 13
c18 7 36 7 55 3c6 -2 8 -6 8 -12c-4 -59 1 -119 1 -178c1 -27 1 -55 2 -82c1 -26 3 -51 3 -77c-1 -30 -3 -60 -5 -90v-56c2 -57 4 -114 5 -171c1 -25 0 -51 -1 -77c0 -3 -2 -7 -3 -11c-20 -2 -40 -3 -59 1c-8 2 -12 7 -12 16v114c0 9 -2 19 -1 28c0 8 -3 14 -8 20
c-6 8 -10 18 -15 27c-7 12 -16 23 -25 34c-5 8 -11 15 -16 23c-8 12 -15 25 -24 38s-19 25 -28 38c-21 33 -41 67 -62 100c-8 13 -16 26 -24 38c-4 5 -8 10 -12 14zM379 939c5 -4 10 -8 14 -12c9 -8 11 -18 6 -29c-3 -7 -5 -14 -8 -21c-10 -25 -30 -38 -54 -46
c-23 -8 -47 -5 -70 -1c-15 2 -29 12 -43 20c-13 6 -24 15 -36 21c-16 8 -33 7 -49 -3c-14 -8 -28 -15 -37 -29c-5 -7 -13 -8 -23 -7c-13 1 -24 8 -37 9c-13 2 -14 6 -9 18c3 6 6 13 9 20c6 13 18 20 30 28c9 6 19 13 29 17c12 4 25 4 37 5c15 0 28 -5 42 -9
c32 -9 57 -31 86 -44c5 -2 8 -2 13 -1c11 4 23 6 34 10c15 7 26 18 32 33c6 14 16 18 29 20c1 1 3 1 5 1z" />
    <glyph glyph-name="Otilde" unicode="&#xd5;" horiz-adv-x="833" 
d="M31 211v50c0 25 0 50 1 75c2 30 4 60 7 90c1 16 2 32 4 48c5 39 8 78 15 116c4 21 12 41 21 61c7 17 16 33 25 49c9 17 23 31 40 41c11 6 21 15 32 21c12 5 25 8 38 10c20 1 41 1 61 1c5 0 12 1 15 -6c0 -2 8 1 11 -1c6 -5 14 -6 22 -6c3 0 6 -3 9 -5c7 -6 12 -13 20 -17
c17 -10 28 -25 34 -42c9 -24 17 -49 22 -73c5 -23 5 -47 7 -71c3 -25 5 -50 6 -75c1 -29 4 -58 2 -87c-2 -21 0 -42 -1 -64c-2 -30 -5 -60 -7 -91c-2 -27 -10 -52 -15 -78c-4 -22 -13 -42 -24 -60c-15 -23 -31 -47 -51 -67c-17 -15 -37 -24 -60 -23c-12 1 -23 0 -34 -5
c-8 -4 -18 -4 -27 -1c-18 6 -35 11 -53 15c-17 4 -29 17 -45 24c-24 11 -32 36 -50 53c-8 7 -11 22 -14 34c-8 27 -14 55 -11 84zM237 58c5 5 11 10 15 15c13 17 20 36 26 56c12 33 12 66 16 99c3 24 3 47 4 71c1 13 2 25 3 37c2 37 6 73 4 109c-1 8 -2 16 -1 24
c2 60 -2 121 -7 182c-1 18 -4 37 -13 53c-9 15 -26 17 -36 4c-11 -13 -22 -27 -30 -42c-19 -34 -30 -71 -31 -111c-1 -35 0 -70 -6 -106c-7 -44 -11 -89 -8 -135c3 -43 2 -86 4 -129c2 -25 5 -50 10 -75c4 -16 10 -32 25 -41c8 -4 16 -7 25 -11zM419 939c5 -4 10 -8 14 -12
c9 -8 11 -18 6 -29c-3 -7 -5 -14 -8 -21c-10 -25 -30 -38 -54 -46c-23 -8 -47 -5 -70 -1c-15 2 -29 12 -43 20c-13 6 -24 15 -36 21c-16 8 -33 7 -49 -3c-14 -8 -28 -15 -37 -29c-5 -7 -13 -8 -23 -7c-13 1 -24 8 -37 9c-13 2 -14 6 -9 18c3 6 6 13 9 20c6 13 18 20 30 28
c9 6 19 13 29 17c12 4 25 4 37 5c15 0 28 -5 42 -9c32 -9 57 -31 86 -44c5 -2 8 -2 13 -1c11 4 23 6 34 10c15 7 26 18 32 33c6 14 16 18 29 20c1 1 3 1 5 1z" />
    <glyph glyph-name="Adieresis" unicode="&#xc4;" 
d="M208 211c-15 0 -29 -1 -42 0c-13 0 -26 2 -40 3c-1 -3 -3 -5 -3 -8c-3 -20 -6 -39 -8 -59c-4 -30 -7 -59 -10 -89c-1 -9 -2 -18 -3 -26c-1 -21 -9 -29 -30 -31c-6 0 -12 -1 -18 -1c-12 0 -22 7 -23 18c-2 10 -2 19 -1 29c3 17 6 34 8 52c5 35 10 70 14 105
c7 50 13 99 19 149l15 117c6 42 13 83 19 125c3 17 8 35 10 52c4 36 6 72 10 108c1 7 4 15 7 24c18 -3 34 -5 51 -7c4 -1 8 -2 11 -1c9 5 15 1 21 -6c13 9 29 7 44 6c14 -1 24 -12 26 -28l12 -93c3 -18 4 -37 6 -56c4 -45 8 -91 12 -136c2 -21 7 -42 11 -62
c4 -29 8 -58 13 -87c5 -31 12 -63 14 -95c3 -27 8 -54 12 -81c5 -28 12 -56 17 -85c2 -9 2 -19 2 -29c0 -3 -3 -7 -6 -8c-8 -3 -16 -5 -24 -5c-31 0 -62 1 -93 2c-4 0 -7 0 -10 1c-4 3 -11 7 -12 11c-4 15 -13 29 -13 45c0 15 -1 29 -2 44c0 8 0 15 -2 23
c-3 23 -7 46 -11 69c0 3 -1 6 -3 10zM203 257c-3 42 -8 84 -16 125c-4 21 -6 42 -7 62c-2 27 -2 53 -2 79c0 24 1 48 1 72c0 3 -2 6 -3 9c-23 -114 -27 -231 -44 -347c24 -3 47 -2 71 0zM255 401h1c0 3 -1 5 -1 8h-1c0 -3 0 -5 1 -8zM145 893c16 1 29 -7 32 -18
c6 -17 0 -32 -15 -41c-9 -6 -20 -6 -31 -7c-2 0 -4 0 -4 1c-10 11 -23 18 -27 33c-4 14 4 27 18 29c9 2 18 2 27 3zM281 893c17 1 30 -7 33 -18c6 -17 0 -32 -15 -41c-9 -6 -20 -6 -31 -7c-2 0 -4 0 -5 1c-9 11 -22 18 -26 33c-4 14 4 27 18 29c9 2 18 2 26 3z" />
    <glyph glyph-name="Edieresis" unicode="&#xcb;" horiz-adv-x="326" 
d="M155 428c8 1 15 0 21 2c18 7 37 4 56 4c4 0 9 -2 13 -4c18 -14 14 -34 -7 -42c-7 -2 -15 -4 -23 -4c-21 1 -43 -4 -63 -7c-12 -50 -10 -287 -7 -330c13 -6 26 1 38 2c17 1 33 4 49 11c19 8 45 1 58 -15c4 -5 8 -11 1 -18c-2 -1 -2 -4 -3 -5c-7 -14 -19 -19 -35 -16
c-4 1 -9 0 -13 0c-21 -3 -41 -7 -61 -9c-17 -2 -33 -3 -50 -4c-9 -1 -18 -1 -27 -2c-4 0 -10 2 -14 0c-14 -8 -24 2 -33 9c-11 7 -16 19 -18 32c0 7 -3 13 -3 20c-2 13 -5 25 -1 38c2 8 1 16 2 24c7 49 4 99 5 149c1 47 3 93 4 139c1 43 0 85 2 127c1 30 3 59 5 88
c1 40 3 80 4 120c1 9 2 17 3 26c1 7 5 11 12 12c13 0 25 -1 38 -1c35 1 70 2 105 2c21 1 42 1 63 1c10 0 19 -6 26 -14c2 -3 4 -9 3 -13c-6 -16 -16 -23 -32 -24c-5 0 -10 1 -15 1c-23 -1 -47 -1 -70 -1c-8 0 -17 1 -26 1c-12 1 -15 -2 -15 -13c0 -14 1 -28 1 -42
c1 -37 2 -75 3 -112l3 -120c0 -4 1 -7 1 -12zM105 893c16 1 29 -7 32 -18c6 -17 0 -32 -15 -41c-9 -6 -20 -6 -31 -7c-2 0 -4 0 -4 1c-10 11 -23 18 -27 33c-4 14 4 27 18 29c9 2 18 2 27 3zM241 893c17 1 30 -7 33 -18c6 -17 0 -32 -15 -41c-9 -6 -20 -6 -31 -7
c-2 0 -4 0 -5 1c-9 11 -22 18 -26 33c-4 14 4 27 18 29c9 2 18 2 26 3z" />
    <glyph glyph-name="Idieresis" unicode="&#xcf;" horiz-adv-x="240" 
d="M155 418h1c-1 -24 -5 -49 -1 -73c-2 -38 -3 -75 -4 -111c-1 -30 -1 -60 -1 -90c0 -39 1 -78 1 -117c0 -5 -2 -10 -3 -15c-6 -14 -6 -14 -20 -13c-17 0 -34 0 -52 1c-27 0 -45 18 -46 45c0 11 1 22 2 33c0 3 1 6 1 8c-5 27 4 53 3 80c-1 26 0 52 1 79v47c0 29 1 59 2 88
c0 24 -1 49 0 73c0 9 2 19 2 28c2 27 3 54 4 80c2 59 3 117 -4 176c-2 9 -3 19 -4 30c3 5 9 7 16 7c30 0 73 -1 103 -1c1 -23 -1 -44 -2 -67c1 -44 2 -88 2 -133c0 -23 -1 -46 -1 -69c-1 -25 -1 -51 -2 -77c0 -2 1 -5 2 -9zM55 893c16 1 29 -7 32 -18c6 -17 0 -32 -15 -41
c-9 -6 -20 -6 -31 -7c-2 0 -4 0 -4 1c-10 11 -23 18 -27 33c-4 14 4 27 18 29c9 2 18 2 27 3zM191 893c17 1 30 -7 33 -18c6 -17 0 -32 -15 -41c-9 -6 -20 -6 -31 -7c-2 0 -4 0 -5 1c-9 11 -22 18 -26 33c-4 14 4 27 18 29c9 2 18 2 26 3z" />
    <glyph glyph-name="Odieresis" unicode="&#xd6;" horiz-adv-x="444" 
d="M31 211v50c0 25 0 50 1 75c2 30 4 60 7 90c1 16 2 32 4 48c5 39 8 78 15 116c4 21 12 41 21 61c7 17 16 33 25 49c9 17 23 31 40 41c11 6 21 15 32 21c12 5 25 8 38 10c20 1 41 1 61 1c5 0 12 1 15 -6c0 -2 8 1 11 -1c6 -5 14 -6 22 -6c3 0 6 -3 9 -5c7 -6 12 -13 20 -17
c17 -10 28 -25 34 -42c9 -24 17 -49 22 -73c5 -23 5 -47 7 -71c3 -25 5 -50 6 -75c1 -29 4 -58 2 -87c-2 -21 0 -42 -1 -64c-2 -30 -5 -60 -7 -91c-2 -27 -10 -52 -15 -78c-4 -22 -13 -42 -24 -60c-15 -23 -31 -47 -51 -67c-17 -15 -37 -24 -60 -23c-12 1 -23 0 -34 -5
c-8 -4 -18 -4 -27 -1c-18 6 -35 11 -53 15c-17 4 -29 17 -45 24c-24 11 -32 36 -50 53c-8 7 -11 22 -14 34c-8 27 -14 55 -11 84zM237 58c5 5 11 10 15 15c13 17 20 36 26 56c12 33 12 66 16 99c3 24 3 47 4 71c1 13 2 25 3 37c2 37 6 73 4 109c-1 8 -2 16 -1 24
c2 60 -2 121 -7 182c-1 18 -4 37 -13 53c-9 15 -26 17 -36 4c-11 -13 -22 -27 -30 -42c-19 -34 -30 -71 -31 -111c-1 -35 0 -70 -6 -106c-7 -44 -11 -89 -8 -135c3 -43 2 -86 4 -129c2 -25 5 -50 10 -75c4 -16 10 -32 25 -41c8 -4 16 -7 25 -11zM195 893c16 1 29 -7 32 -18
c6 -17 0 -32 -15 -41c-9 -6 -20 -6 -31 -7c-2 0 -4 0 -4 1c-10 11 -23 18 -27 33c-4 14 4 27 18 29c9 2 18 2 27 3zM331 893c17 1 30 -7 33 -18c6 -17 0 -32 -15 -41c-9 -6 -20 -6 -31 -7c-2 0 -4 0 -5 1c-9 11 -22 18 -26 33c-4 14 4 27 18 29c9 2 18 2 26 3z" />
    <glyph glyph-name="Udieresis" unicode="&#xdc;" horiz-adv-x="459" 
d="M258 66c25 7 41 21 51 41c8 16 15 32 19 49c6 29 11 58 16 87c4 19 8 38 10 57c3 31 3 62 5 92c1 29 4 57 4 85c1 27 0 54 0 80c1 24 3 47 4 71c2 43 3 85 4 129c15 6 30 6 45 3c10 -2 23 -19 23 -29v-28c-1 -18 -2 -37 -3 -55c-1 -15 -2 -29 -1 -44c2 -18 -2 -36 -2 -54
c-1 -28 -2 -56 -3 -83v-35c-1 -13 -1 -27 -2 -40c-1 -21 -2 -41 -3 -61c0 -1 -1 -1 0 -2c5 -30 -6 -59 -8 -88c-2 -20 -6 -40 -10 -60c-4 -19 -9 -38 -15 -57c-5 -19 -13 -37 -26 -52c-5 -6 -8 -13 -12 -19c-5 -9 -13 -14 -23 -18c-7 -2 -13 -9 -19 -14c-5 -4 -11 -8 -18 -7
c-2 0 -4 0 -5 -1c-12 -9 -26 -5 -39 -6c-7 0 -13 -2 -20 -2s-16 2 -23 4c-14 5 -28 10 -42 16c-5 2 -11 7 -16 9c-15 5 -24 16 -35 26s-22 18 -29 32c-7 15 -19 29 -23 47c-2 8 -8 16 -12 24c-7 18 -7 37 -9 56c-2 22 -4 45 -6 67c-4 33 -7 66 -3 99c1 8 -2 18 -1 26
c1 28 3 56 4 85c0 14 -1 28 1 41c5 38 -1 77 0 115c2 32 0 65 9 96c5 16 6 19 22 20c35 3 70 4 105 -3c11 -2 18 -10 19 -22c0 -20 0 -40 -1 -59c-2 -38 -4 -76 -3 -113c1 -40 1 -79 1 -119c0 -29 1 -58 1 -88c0 -22 -1 -44 -1 -67c0 -14 0 -28 1 -42c3 -25 5 -50 9 -75
c4 -21 8 -41 15 -61c7 -24 25 -40 45 -53zM185 893c16 1 29 -7 32 -18c6 -17 0 -32 -15 -41c-9 -6 -20 -6 -31 -7c-2 0 -4 0 -4 1c-10 11 -23 18 -27 33c-4 14 4 27 18 29c9 2 18 2 27 3zM321 893c17 1 30 -7 33 -18c6 -17 0 -32 -15 -41c-9 -6 -20 -6 -31 -7
c-2 0 -4 0 -5 1c-9 11 -22 18 -26 33c-4 14 4 27 18 29c9 2 18 2 26 3z" />
    <glyph glyph-name="Aring" unicode="&#xc5;" 
d="M208 211c2 -4 3 -7 3 -10c4 -23 8 -46 11 -69c2 -8 2 -15 2 -23c1 -15 2 -29 2 -44c0 -16 9 -30 13 -45c1 -4 8 -8 12 -11c3 -1 6 -1 10 -1c31 -1 62 -2 93 -2c8 0 16 2 24 5c3 1 6 5 6 8c0 10 0 20 -2 29c-5 29 -12 57 -17 85c-4 27 -9 54 -12 81c-2 32 -9 64 -14 95
c-5 29 -9 58 -13 87c-4 20 -9 41 -11 62c-4 45 -8 91 -12 136c-2 19 -3 38 -6 56l-12 93c-2 16 -12 27 -26 28c-15 1 -31 3 -44 -6c-6 7 -12 11 -21 6c-3 -1 -7 0 -11 1c-17 2 -33 4 -51 7c-3 -9 -6 -17 -7 -24c-4 -36 -6 -72 -10 -108c-2 -17 -7 -35 -10 -52
c-6 -42 -13 -83 -19 -125l-15 -117c-6 -50 -12 -99 -19 -149c-4 -35 -9 -70 -14 -105c-2 -18 -5 -35 -8 -52c-1 -10 -1 -19 1 -29c1 -11 11 -18 23 -18c6 0 12 1 18 1c21 2 29 10 30 31c1 8 2 17 3 26c3 30 6 59 10 89c2 20 5 39 8 59c0 3 2 5 3 8c14 -1 27 -3 40 -3
c13 -1 27 0 42 0zM203 257c-24 -2 -47 -3 -71 0c17 116 21 233 44 347c1 -3 3 -6 3 -9c0 -24 -1 -48 -1 -72c0 -26 0 -52 2 -79c1 -20 3 -41 7 -62c8 -41 13 -83 16 -125zM255 401c-1 3 -1 5 -1 8h1c0 -3 1 -5 1 -8h-1zM281 942c2 -7 2 -14 1 -21c-3 -19 -10 -38 -20 -54
c-7 -11 -15 -20 -25 -27c-12 -9 -25 -13 -43 -13c-6 1 -15 2 -23 4c-14 3 -26 11 -34 24c-8 15 -16 31 -24 47c-5 9 -5 20 -2 30c5 22 14 40 30 56c5 5 10 9 17 12c6 2 13 3 20 5c23 8 46 3 66 -8c13 -6 23 -17 29 -30c4 -8 7 -17 8 -25zM234 907c0 3 0 7 1 14
c-1 5 -2 14 -3 22c-2 7 -5 13 -11 18c-16 16 -41 11 -50 -4c-2 -3 -3 -6 -5 -9c-10 -15 -9 -30 -5 -46c2 -7 5 -13 10 -18c8 -11 26 -15 38 -9c5 3 9 6 13 9c7 6 11 13 12 23z" />
    <glyph glyph-name="equal" unicode="=" horiz-adv-x="448" 
d="M205 478c-18 -1 -37 -1 -55 -2c-31 -2 -63 -1 -94 0c-3 0 -7 1 -10 2c-8 1 -14 13 -14 26c0 9 0 17 1 26c0 7 7 17 12 18c2 0 4 1 7 1c11 1 23 2 34 2h55c30 0 60 0 90 3c24 3 49 3 73 3h90c7 0 13 -1 20 -5c5 -2 8 -7 10 -14c2 -8 3 -17 3 -26c1 -19 -9 -31 -18 -33
c-14 -2 -28 -2 -42 -1c-26 2 -53 2 -79 1c-20 0 -39 3 -61 -1h-22zM205 272c-18 0 -37 -1 -55 -2c-31 -2 -63 -1 -94 0c-3 0 -7 1 -10 2c-8 1 -14 13 -14 26c0 9 0 17 1 26c0 7 7 17 12 18c2 0 4 1 7 1c11 1 23 2 34 2h55c30 0 60 0 90 3c24 3 49 3 73 3h90c7 0 13 -1 20 -5
c5 -2 8 -7 10 -14c2 -8 3 -17 3 -25c1 -20 -9 -32 -18 -33c-14 -2 -28 -3 -42 -2c-26 2 -53 2 -79 1c-20 0 -39 3 -61 -1h-22z" />
    <glyph glyph-name="agrave" unicode="&#xe0;" 
d="M208 211c-15 0 -29 -1 -42 0c-13 0 -26 2 -40 3c-1 -3 -3 -5 -3 -8c-3 -20 -6 -39 -8 -59c-4 -30 -7 -59 -10 -89c-1 -9 -2 -18 -3 -26c-1 -21 -9 -29 -30 -31c-6 0 -12 -1 -18 -1c-12 0 -22 7 -23 18c-2 10 -2 19 -1 29c3 17 6 34 8 52c5 35 10 70 14 105
c7 50 13 99 19 149l15 117c6 42 13 83 19 125c3 17 8 35 10 52c4 36 6 72 10 108c1 7 4 15 7 24c18 -3 34 -5 51 -7c4 -1 8 -2 11 -1c9 5 15 1 21 -6c13 9 29 7 44 6c14 -1 24 -12 26 -28l12 -93c3 -18 4 -37 6 -56c4 -45 8 -91 12 -136c2 -21 7 -42 11 -62
c4 -29 8 -58 13 -87c5 -31 12 -63 14 -95c3 -27 8 -54 12 -81c5 -28 12 -56 17 -85c2 -9 2 -19 2 -29c0 -3 -3 -7 -6 -8c-8 -3 -16 -5 -24 -5c-31 0 -62 1 -93 2c-4 0 -7 0 -10 1c-4 3 -11 7 -12 11c-4 15 -13 29 -13 45c0 15 -1 29 -2 44c0 8 0 15 -2 23
c-3 23 -7 46 -11 69c0 3 -1 6 -3 10zM203 257c-3 42 -8 84 -16 125c-4 21 -6 42 -7 62c-2 27 -2 53 -2 79c0 24 1 48 1 72c0 3 -2 6 -3 9c-23 -114 -27 -231 -44 -347c24 -3 47 -2 71 0zM255 401h1c0 3 -1 5 -1 8h-1c0 -3 0 -5 1 -8zM216 828c-11 -4 -21 -4 -31 2
c-15 10 -29 20 -43 31c-4 3 -8 7 -11 11c-9 9 -16 19 -25 28c-8 8 -19 15 -28 23c-4 3 -5 10 -3 14c3 5 6 9 11 12c5 2 9 5 15 6c10 3 20 4 31 6c13 2 24 -2 35 -9l7 -7s2 -3 3 -5c17 -29 32 -59 51 -87c1 -2 1 -7 1 -10c-2 -7 -6 -13 -13 -15z" />
    <glyph glyph-name="aacute" unicode="&#xe1;" 
d="M208 211c-15 0 -29 -1 -42 0c-13 0 -26 2 -40 3c-1 -3 -3 -5 -3 -8c-3 -20 -6 -39 -8 -59c-4 -30 -7 -59 -10 -89c-1 -9 -2 -18 -3 -26c-1 -21 -9 -29 -30 -31c-6 0 -12 -1 -18 -1c-12 0 -22 7 -23 18c-2 10 -2 19 -1 29c3 17 6 34 8 52c5 35 10 70 14 105
c7 50 13 99 19 149l15 117c6 42 13 83 19 125c3 17 8 35 10 52c4 36 6 72 10 108c1 7 4 15 7 24c18 -3 34 -5 51 -7c4 -1 8 -2 11 -1c9 5 15 1 21 -6c13 9 29 7 44 6c14 -1 24 -12 26 -28l12 -93c3 -18 4 -37 6 -56c4 -45 8 -91 12 -136c2 -21 7 -42 11 -62
c4 -29 8 -58 13 -87c5 -31 12 -63 14 -95c3 -27 8 -54 12 -81c5 -28 12 -56 17 -85c2 -9 2 -19 2 -29c0 -3 -3 -7 -6 -8c-8 -3 -16 -5 -24 -5c-31 0 -62 1 -93 2c-4 0 -7 0 -10 1c-4 3 -11 7 -12 11c-4 15 -13 29 -13 45c0 15 -1 29 -2 44c0 8 0 15 -2 23
c-3 23 -7 46 -11 69c0 3 -1 6 -3 10zM203 257c-3 42 -8 84 -16 125c-4 21 -6 42 -7 62c-2 27 -2 53 -2 79c0 24 1 48 1 72c0 3 -2 6 -3 9c-23 -114 -27 -231 -44 -347c24 -3 47 -2 71 0zM255 401h1c0 3 -1 5 -1 8h-1c0 -3 0 -5 1 -8zM170 845c0 3 0 8 1 10
c19 28 34 58 51 87c1 2 1 3 3 5l7 7c11 7 22 11 35 9c11 -2 21 -3 31 -6c6 -1 10 -4 15 -6c5 -3 8 -7 11 -12c2 -4 1 -11 -3 -14c-9 -8 -20 -15 -28 -23c-9 -9 -16 -19 -25 -28c-3 -4 -7 -8 -11 -11c-14 -11 -28 -21 -43 -31c-10 -6 -20 -6 -31 -2c-7 2 -11 8 -13 15z" />
    <glyph glyph-name="acircumflex" unicode="&#xe2;" 
d="M208 211c-15 0 -29 -1 -42 0c-13 0 -26 2 -40 3c-1 -3 -3 -5 -3 -8c-3 -20 -6 -39 -8 -59c-4 -30 -7 -59 -10 -89c-1 -9 -2 -18 -3 -26c-1 -21 -9 -29 -30 -31c-6 0 -12 -1 -18 -1c-12 0 -22 7 -23 18c-2 10 -2 19 -1 29c3 17 6 34 8 52c5 35 10 70 14 105
c7 50 13 99 19 149l15 117c6 42 13 83 19 125c3 17 8 35 10 52c4 36 6 72 10 108c1 7 4 15 7 24c18 -3 34 -5 51 -7c4 -1 8 -2 11 -1c9 5 15 1 21 -6c13 9 29 7 44 6c14 -1 24 -12 26 -28l12 -93c3 -18 4 -37 6 -56c4 -45 8 -91 12 -136c2 -21 7 -42 11 -62
c4 -29 8 -58 13 -87c5 -31 12 -63 14 -95c3 -27 8 -54 12 -81c5 -28 12 -56 17 -85c2 -9 2 -19 2 -29c0 -3 -3 -7 -6 -8c-8 -3 -16 -5 -24 -5c-31 0 -62 1 -93 2c-4 0 -7 0 -10 1c-4 3 -11 7 -12 11c-4 15 -13 29 -13 45c0 15 -1 29 -2 44c0 8 0 15 -2 23
c-3 23 -7 46 -11 69c0 3 -1 6 -3 10zM203 257c-3 42 -8 84 -16 125c-4 21 -6 42 -7 62c-2 27 -2 53 -2 79c0 24 1 48 1 72c0 3 -2 6 -3 9c-23 -114 -27 -231 -44 -347c24 -3 47 -2 71 0zM255 401h1c0 3 -1 5 -1 8h-1c0 -3 0 -5 1 -8zM361 828c-11 -4 -21 -4 -31 2
c-15 10 -29 20 -43 31c-4 3 -8 7 -11 11c-9 9 -16 19 -25 28c-8 8 -19 15 -28 23c-4 3 -5 10 -3 14c3 5 6 9 11 12c5 2 9 5 15 6c10 3 20 4 31 6c13 2 24 -2 35 -9l7 -7s2 -3 3 -5c17 -29 32 -59 51 -87c1 -2 1 -7 1 -10c-2 -7 -6 -13 -13 -15zM50 845c0 3 0 8 1 10
c19 28 34 58 51 87c1 2 1 3 3 5l7 7c11 7 22 11 35 9c11 -2 21 -3 31 -6c6 -1 10 -4 15 -6c5 -3 8 -7 11 -12c2 -4 1 -11 -3 -14c-9 -8 -20 -15 -28 -23c-9 -9 -16 -19 -25 -28c-3 -4 -7 -8 -11 -11c-14 -11 -28 -21 -43 -31c-10 -6 -20 -6 -31 -2c-7 2 -11 8 -13 15z" />
    <glyph glyph-name="atilde" unicode="&#xe3;" 
d="M208 211c-15 0 -29 -1 -42 0c-13 0 -26 2 -40 3c-1 -3 -3 -5 -3 -8c-3 -20 -6 -39 -8 -59c-4 -30 -7 -59 -10 -89c-1 -9 -2 -18 -3 -26c-1 -21 -9 -29 -30 -31c-6 0 -12 -1 -18 -1c-12 0 -22 7 -23 18c-2 10 -2 19 -1 29c3 17 6 34 8 52c5 35 10 70 14 105
c7 50 13 99 19 149l15 117c6 42 13 83 19 125c3 17 8 35 10 52c4 36 6 72 10 108c1 7 4 15 7 24c18 -3 34 -5 51 -7c4 -1 8 -2 11 -1c9 5 15 1 21 -6c13 9 29 7 44 6c14 -1 24 -12 26 -28l12 -93c3 -18 4 -37 6 -56c4 -45 8 -91 12 -136c2 -21 7 -42 11 -62
c4 -29 8 -58 13 -87c5 -31 12 -63 14 -95c3 -27 8 -54 12 -81c5 -28 12 -56 17 -85c2 -9 2 -19 2 -29c0 -3 -3 -7 -6 -8c-8 -3 -16 -5 -24 -5c-31 0 -62 1 -93 2c-4 0 -7 0 -10 1c-4 3 -11 7 -12 11c-4 15 -13 29 -13 45c0 15 -1 29 -2 44c0 8 0 15 -2 23
c-3 23 -7 46 -11 69c0 3 -1 6 -3 10zM203 257c-3 42 -8 84 -16 125c-4 21 -6 42 -7 62c-2 27 -2 53 -2 79c0 24 1 48 1 72c0 3 -2 6 -3 9c-23 -114 -27 -231 -44 -347c24 -3 47 -2 71 0zM255 401h1c0 3 -1 5 -1 8h-1c0 -3 0 -5 1 -8zM379 939c5 -4 10 -8 14 -12
c9 -8 11 -18 6 -29c-3 -7 -5 -14 -8 -21c-10 -25 -30 -38 -54 -46c-23 -8 -47 -5 -70 -1c-15 2 -29 12 -43 20c-13 6 -24 15 -36 21c-16 8 -33 7 -49 -3c-14 -8 -28 -15 -37 -29c-5 -7 -13 -8 -23 -7c-13 1 -24 8 -37 9c-13 2 -14 6 -9 18c3 6 6 13 9 20c6 13 18 20 30 28
c9 6 19 13 29 17c12 4 25 4 37 5c15 0 28 -5 42 -9c32 -9 57 -31 86 -44c5 -2 8 -2 13 -1c11 4 23 6 34 10c15 7 26 18 32 33c6 14 16 18 29 20c1 1 3 1 5 1z" />
    <glyph glyph-name="adieresis" unicode="&#xe4;" 
d="M208 211c-15 0 -29 -1 -42 0c-13 0 -26 2 -40 3c-1 -3 -3 -5 -3 -8c-3 -20 -6 -39 -8 -59c-4 -30 -7 -59 -10 -89c-1 -9 -2 -18 -3 -26c-1 -21 -9 -29 -30 -31c-6 0 -12 -1 -18 -1c-12 0 -22 7 -23 18c-2 10 -2 19 -1 29c3 17 6 34 8 52c5 35 10 70 14 105
c7 50 13 99 19 149l15 117c6 42 13 83 19 125c3 17 8 35 10 52c4 36 6 72 10 108c1 7 4 15 7 24c18 -3 34 -5 51 -7c4 -1 8 -2 11 -1c9 5 15 1 21 -6c13 9 29 7 44 6c14 -1 24 -12 26 -28l12 -93c3 -18 4 -37 6 -56c4 -45 8 -91 12 -136c2 -21 7 -42 11 -62
c4 -29 8 -58 13 -87c5 -31 12 -63 14 -95c3 -27 8 -54 12 -81c5 -28 12 -56 17 -85c2 -9 2 -19 2 -29c0 -3 -3 -7 -6 -8c-8 -3 -16 -5 -24 -5c-31 0 -62 1 -93 2c-4 0 -7 0 -10 1c-4 3 -11 7 -12 11c-4 15 -13 29 -13 45c0 15 -1 29 -2 44c0 8 0 15 -2 23
c-3 23 -7 46 -11 69c0 3 -1 6 -3 10zM203 257c-3 42 -8 84 -16 125c-4 21 -6 42 -7 62c-2 27 -2 53 -2 79c0 24 1 48 1 72c0 3 -2 6 -3 9c-23 -114 -27 -231 -44 -347c24 -3 47 -2 71 0zM255 401h1c0 3 -1 5 -1 8h-1c0 -3 0 -5 1 -8zM145 893c16 1 29 -7 32 -18
c6 -17 0 -32 -15 -41c-9 -6 -20 -6 -31 -7c-2 0 -4 0 -4 1c-10 11 -23 18 -27 33c-4 14 4 27 18 29c9 2 18 2 27 3zM281 893c17 1 30 -7 33 -18c6 -17 0 -32 -15 -41c-9 -6 -20 -6 -31 -7c-2 0 -4 0 -5 1c-9 11 -22 18 -26 33c-4 14 4 27 18 29c9 2 18 2 26 3z" />
    <glyph glyph-name="aring" unicode="&#xe5;" 
d="M208 211c2 -4 3 -7 3 -10c4 -23 8 -46 11 -69c2 -8 2 -15 2 -23c1 -15 2 -29 2 -44c0 -16 9 -30 13 -45c1 -4 8 -8 12 -11c3 -1 6 -1 10 -1c31 -1 62 -2 93 -2c8 0 16 2 24 5c3 1 6 5 6 8c0 10 0 20 -2 29c-5 29 -12 57 -17 85c-4 27 -9 54 -12 81c-2 32 -9 64 -14 95
c-5 29 -9 58 -13 87c-4 20 -9 41 -11 62c-4 45 -8 91 -12 136c-2 19 -3 38 -6 56l-12 93c-2 16 -12 27 -26 28c-15 1 -31 3 -44 -6c-6 7 -12 11 -21 6c-3 -1 -7 0 -11 1c-17 2 -33 4 -51 7c-3 -9 -6 -17 -7 -24c-4 -36 -6 -72 -10 -108c-2 -17 -7 -35 -10 -52
c-6 -42 -13 -83 -19 -125l-15 -117c-6 -50 -12 -99 -19 -149c-4 -35 -9 -70 -14 -105c-2 -18 -5 -35 -8 -52c-1 -10 -1 -19 1 -29c1 -11 11 -18 23 -18c6 0 12 1 18 1c21 2 29 10 30 31c1 8 2 17 3 26c3 30 6 59 10 89c2 20 5 39 8 59c0 3 2 5 3 8c14 -1 27 -3 40 -3
c13 -1 27 0 42 0zM203 257c-24 -2 -47 -3 -71 0c17 116 21 233 44 347c1 -3 3 -6 3 -9c0 -24 -1 -48 -1 -72c0 -26 0 -52 2 -79c1 -20 3 -41 7 -62c8 -41 13 -83 16 -125zM255 401c-1 3 -1 5 -1 8h1c0 -3 1 -5 1 -8h-1zM281 942c2 -7 2 -14 1 -21c-3 -19 -10 -38 -20 -54
c-7 -11 -15 -20 -25 -27c-12 -9 -25 -13 -43 -13c-6 1 -15 2 -23 4c-14 3 -26 11 -34 24c-8 15 -16 31 -24 47c-5 9 -5 20 -2 30c5 22 14 40 30 56c5 5 10 9 17 12c6 2 13 3 20 5c23 8 46 3 66 -8c13 -6 23 -17 29 -30c4 -8 7 -17 8 -25zM234 907c0 3 0 7 1 14
c-1 5 -2 14 -3 22c-2 7 -5 13 -11 18c-16 16 -41 11 -50 -4c-2 -3 -3 -6 -5 -9c-10 -15 -9 -30 -5 -46c2 -7 5 -13 10 -18c8 -11 26 -15 38 -9c5 3 9 6 13 9c7 6 11 13 12 23z" />
    <glyph glyph-name="egrave" unicode="&#xe8;" horiz-adv-x="326" 
d="M155 428c8 1 15 0 21 2c18 7 37 4 56 4c4 0 9 -2 13 -4c18 -14 14 -34 -7 -42c-7 -2 -15 -4 -23 -4c-21 1 -43 -4 -63 -7c-12 -50 -10 -287 -7 -330c13 -6 26 1 38 2c17 1 33 4 49 11c19 8 45 1 58 -15c4 -5 8 -11 1 -18c-2 -1 -2 -4 -3 -5c-7 -14 -19 -19 -35 -16
c-4 1 -9 0 -13 0c-21 -3 -41 -7 -61 -9c-17 -2 -33 -3 -50 -4c-9 -1 -18 -1 -27 -2c-4 0 -10 2 -14 0c-14 -8 -24 2 -33 9c-11 7 -16 19 -18 32c0 7 -3 13 -3 20c-2 13 -5 25 -1 38c2 8 1 16 2 24c7 49 4 99 5 149c1 47 3 93 4 139c1 43 0 85 2 127c1 30 3 59 5 88
c1 40 3 80 4 120c1 9 2 17 3 26c1 7 5 11 12 12c13 0 25 -1 38 -1c35 1 70 2 105 2c21 1 42 1 63 1c10 0 19 -6 26 -14c2 -3 4 -9 3 -13c-6 -16 -16 -23 -32 -24c-5 0 -10 1 -15 1c-23 -1 -47 -1 -70 -1c-8 0 -17 1 -26 1c-12 1 -15 -2 -15 -13c0 -14 1 -28 1 -42
c1 -37 2 -75 3 -112l3 -120c0 -4 1 -7 1 -12zM192 828c-11 -4 -21 -4 -31 2c-15 10 -29 20 -43 31c-4 3 -8 7 -11 11c-9 9 -16 19 -25 28c-8 8 -19 15 -28 23c-4 3 -5 10 -3 14c3 5 6 9 11 12c5 2 9 5 15 6c10 3 20 4 31 6c13 2 24 -2 35 -9l7 -7s2 -3 3 -5
c17 -29 32 -59 51 -87c1 -2 1 -7 1 -10c-2 -7 -6 -13 -13 -15z" />
    <glyph glyph-name="eacute" unicode="&#xe9;" horiz-adv-x="326" 
d="M155 428c8 1 15 0 21 2c18 7 37 4 56 4c4 0 9 -2 13 -4c18 -14 14 -34 -7 -42c-7 -2 -15 -4 -23 -4c-21 1 -43 -4 -63 -7c-12 -50 -10 -287 -7 -330c13 -6 26 1 38 2c17 1 33 4 49 11c19 8 45 1 58 -15c4 -5 8 -11 1 -18c-2 -1 -2 -4 -3 -5c-7 -14 -19 -19 -35 -16
c-4 1 -9 0 -13 0c-21 -3 -41 -7 -61 -9c-17 -2 -33 -3 -50 -4c-9 -1 -18 -1 -27 -2c-4 0 -10 2 -14 0c-14 -8 -24 2 -33 9c-11 7 -16 19 -18 32c0 7 -3 13 -3 20c-2 13 -5 25 -1 38c2 8 1 16 2 24c7 49 4 99 5 149c1 47 3 93 4 139c1 43 0 85 2 127c1 30 3 59 5 88
c1 40 3 80 4 120c1 9 2 17 3 26c1 7 5 11 12 12c13 0 25 -1 38 -1c35 1 70 2 105 2c21 1 42 1 63 1c10 0 19 -6 26 -14c2 -3 4 -9 3 -13c-6 -16 -16 -23 -32 -24c-5 0 -10 1 -15 1c-23 -1 -47 -1 -70 -1c-8 0 -17 1 -26 1c-12 1 -15 -2 -15 -13c0 -14 1 -28 1 -42
c1 -37 2 -75 3 -112l3 -120c0 -4 1 -7 1 -12zM130 845c0 3 0 8 1 10c19 28 34 58 51 87c1 2 1 3 3 5l7 7c11 7 22 11 35 9c11 -2 21 -3 31 -6c6 -1 10 -4 15 -6c5 -3 8 -7 11 -12c2 -4 1 -11 -3 -14c-9 -8 -20 -15 -28 -23c-9 -9 -16 -19 -25 -28c-3 -4 -7 -8 -11 -11
c-14 -11 -28 -21 -43 -31c-10 -6 -20 -6 -31 -2c-7 2 -11 8 -13 15z" />
    <glyph glyph-name="ecircumflex" unicode="&#xea;" horiz-adv-x="326" 
d="M155 428c8 1 15 0 21 2c18 7 37 4 56 4c4 0 9 -2 13 -4c18 -14 14 -34 -7 -42c-7 -2 -15 -4 -23 -4c-21 1 -43 -4 -63 -7c-12 -50 -10 -287 -7 -330c13 -6 26 1 38 2c17 1 33 4 49 11c19 8 45 1 58 -15c4 -5 8 -11 1 -18c-2 -1 -2 -4 -3 -5c-7 -14 -19 -19 -35 -16
c-4 1 -9 0 -13 0c-21 -3 -41 -7 -61 -9c-17 -2 -33 -3 -50 -4c-9 -1 -18 -1 -27 -2c-4 0 -10 2 -14 0c-14 -8 -24 2 -33 9c-11 7 -16 19 -18 32c0 7 -3 13 -3 20c-2 13 -5 25 -1 38c2 8 1 16 2 24c7 49 4 99 5 149c1 47 3 93 4 139c1 43 0 85 2 127c1 30 3 59 5 88
c1 40 3 80 4 120c1 9 2 17 3 26c1 7 5 11 12 12c13 0 25 -1 38 -1c35 1 70 2 105 2c21 1 42 1 63 1c10 0 19 -6 26 -14c2 -3 4 -9 3 -13c-6 -16 -16 -23 -32 -24c-5 0 -10 1 -15 1c-23 -1 -47 -1 -70 -1c-8 0 -17 1 -26 1c-12 1 -15 -2 -15 -13c0 -14 1 -28 1 -42
c1 -37 2 -75 3 -112l3 -120c0 -4 1 -7 1 -12zM311 828c-11 -4 -21 -4 -31 2c-15 10 -29 20 -43 31c-4 3 -8 7 -11 11c-9 9 -16 19 -25 28c-8 8 -19 15 -28 23c-4 3 -5 10 -3 14c3 5 6 9 11 12c5 2 9 5 15 6c10 3 20 4 31 6c13 2 24 -2 35 -9l7 -7s2 -3 3 -5
c17 -29 32 -59 51 -87c1 -2 1 -7 1 -10c-2 -7 -6 -13 -13 -15zM0 845c0 3 0 8 1 10c19 28 34 58 51 87c1 2 1 3 3 5l7 7c11 7 22 11 35 9c11 -2 21 -3 31 -6c6 -1 10 -4 15 -6c5 -3 8 -7 11 -12c2 -4 1 -11 -3 -14c-9 -8 -20 -15 -28 -23c-9 -9 -16 -19 -25 -28
c-3 -4 -7 -8 -11 -11c-14 -11 -28 -21 -43 -31c-10 -6 -20 -6 -31 -2c-7 2 -11 8 -13 15z" />
    <glyph glyph-name="edieresis" unicode="&#xeb;" horiz-adv-x="326" 
d="M155 428c8 1 15 0 21 2c18 7 37 4 56 4c4 0 9 -2 13 -4c18 -14 14 -34 -7 -42c-7 -2 -15 -4 -23 -4c-21 1 -43 -4 -63 -7c-12 -50 -10 -287 -7 -330c13 -6 26 1 38 2c17 1 33 4 49 11c19 8 45 1 58 -15c4 -5 8 -11 1 -18c-2 -1 -2 -4 -3 -5c-7 -14 -19 -19 -35 -16
c-4 1 -9 0 -13 0c-21 -3 -41 -7 -61 -9c-17 -2 -33 -3 -50 -4c-9 -1 -18 -1 -27 -2c-4 0 -10 2 -14 0c-14 -8 -24 2 -33 9c-11 7 -16 19 -18 32c0 7 -3 13 -3 20c-2 13 -5 25 -1 38c2 8 1 16 2 24c7 49 4 99 5 149c1 47 3 93 4 139c1 43 0 85 2 127c1 30 3 59 5 88
c1 40 3 80 4 120c1 9 2 17 3 26c1 7 5 11 12 12c13 0 25 -1 38 -1c35 1 70 2 105 2c21 1 42 1 63 1c10 0 19 -6 26 -14c2 -3 4 -9 3 -13c-6 -16 -16 -23 -32 -24c-5 0 -10 1 -15 1c-23 -1 -47 -1 -70 -1c-8 0 -17 1 -26 1c-12 1 -15 -2 -15 -13c0 -14 1 -28 1 -42
c1 -37 2 -75 3 -112l3 -120c0 -4 1 -7 1 -12zM105 893c16 1 29 -7 32 -18c6 -17 0 -32 -15 -41c-9 -6 -20 -6 -31 -7c-2 0 -4 0 -4 1c-10 11 -23 18 -27 33c-4 14 4 27 18 29c9 2 18 2 27 3zM241 893c17 1 30 -7 33 -18c6 -17 0 -32 -15 -41c-9 -6 -20 -6 -31 -7
c-2 0 -4 0 -5 1c-9 11 -22 18 -26 33c-4 14 4 27 18 29c9 2 18 2 26 3z" />
    <glyph glyph-name="igrave" unicode="&#xec;" horiz-adv-x="177" 
d="M155 418h1c-1 -24 -5 -49 -1 -73c-2 -38 -3 -75 -4 -111c-1 -30 -1 -60 -1 -90c0 -39 1 -78 1 -117c0 -5 -2 -10 -3 -15c-6 -14 -6 -14 -20 -13c-17 0 -34 0 -52 1c-27 0 -45 18 -46 45c0 11 1 22 2 33c0 3 1 6 1 8c-5 27 4 53 3 80c-1 26 0 52 1 79v47c0 29 1 59 2 88
c0 24 -1 49 0 73c0 9 2 19 2 28c2 27 3 54 4 80c2 59 3 117 -4 176c-2 9 -3 19 -4 30c3 5 9 7 16 7c30 0 73 -1 103 -1c1 -23 -1 -44 -2 -67c1 -44 2 -88 2 -133c0 -23 -1 -46 -1 -69c-1 -25 -1 -51 -2 -77c0 -2 1 -5 2 -9zM122 828c-11 -4 -21 -4 -31 2
c-15 10 -29 20 -43 31c-4 3 -8 7 -11 11c-9 9 -16 19 -25 28c-8 8 -19 15 -28 23c-4 3 -5 10 -3 14c3 5 6 9 11 12c5 2 9 5 15 6c10 3 20 4 31 6c13 2 24 -2 35 -9l7 -7s2 -3 3 -5c17 -29 32 -59 51 -87c1 -2 1 -7 1 -10c-2 -7 -6 -13 -13 -15z" />
    <glyph glyph-name="iacute" unicode="&#xed;" horiz-adv-x="177" 
d="M155 418h1c-1 -24 -5 -49 -1 -73c-2 -38 -3 -75 -4 -111c-1 -30 -1 -60 -1 -90c0 -39 1 -78 1 -117c0 -5 -2 -10 -3 -15c-6 -14 -6 -14 -20 -13c-17 0 -34 0 -52 1c-27 0 -45 18 -46 45c0 11 1 22 2 33c0 3 1 6 1 8c-5 27 4 53 3 80c-1 26 0 52 1 79v47c0 29 1 59 2 88
c0 24 -1 49 0 73c0 9 2 19 2 28c2 27 3 54 4 80c2 59 3 117 -4 176c-2 9 -3 19 -4 30c3 5 9 7 16 7c30 0 73 -1 103 -1c1 -23 -1 -44 -2 -67c1 -44 2 -88 2 -133c0 -23 -1 -46 -1 -69c-1 -25 -1 -51 -2 -77c0 -2 1 -5 2 -9zM60 845c0 3 0 8 1 10c19 28 34 58 51 87
c1 2 1 3 3 5l7 7c11 7 22 11 35 9c11 -2 21 -3 31 -6c6 -1 10 -4 15 -6c5 -3 8 -7 11 -12c2 -4 1 -11 -3 -14c-9 -8 -20 -15 -28 -23c-9 -9 -16 -19 -25 -28c-3 -4 -7 -8 -11 -11c-14 -11 -28 -21 -43 -31c-10 -6 -20 -6 -31 -2c-7 2 -11 8 -13 15z" />
    <glyph glyph-name="icircumflex" unicode="&#xee;" horiz-adv-x="177" 
d="M155 418h1c-1 -24 -5 -49 -1 -73c-2 -38 -3 -75 -4 -111c-1 -30 -1 -60 -1 -90c0 -39 1 -78 1 -117c0 -5 -2 -10 -3 -15c-6 -14 -6 -14 -20 -13c-17 0 -34 0 -52 1c-27 0 -45 18 -46 45c0 11 1 22 2 33c0 3 1 6 1 8c-5 27 4 53 3 80c-1 26 0 52 1 79v47c0 29 1 59 2 88
c0 24 -1 49 0 73c0 9 2 19 2 28c2 27 3 54 4 80c2 59 3 117 -4 176c-2 9 -3 19 -4 30c3 5 9 7 16 7c30 0 73 -1 103 -1c1 -23 -1 -44 -2 -67c1 -44 2 -88 2 -133c0 -23 -1 -46 -1 -69c-1 -25 -1 -51 -2 -77c0 -2 1 -5 2 -9zM241 828c-11 -4 -21 -4 -31 2
c-15 10 -29 20 -43 31c-4 3 -8 7 -11 11c-9 9 -16 19 -25 28c-8 8 -19 15 -28 23c-4 3 -5 10 -3 14c3 5 6 9 11 12c5 2 9 5 15 6c10 3 20 4 31 6c13 2 24 -2 35 -9l7 -7s2 -3 3 -5c17 -29 32 -59 51 -87c1 -2 1 -7 1 -10c-2 -7 -6 -13 -13 -15zM-70 845c0 3 0 8 1 10
c19 28 34 58 51 87c1 2 1 3 3 5l7 7c11 7 22 11 35 9c11 -2 21 -3 31 -6c6 -1 10 -4 15 -6c5 -3 8 -7 11 -12c2 -4 1 -11 -3 -14c-9 -8 -20 -15 -28 -23c-9 -9 -16 -19 -25 -28c-3 -4 -7 -8 -11 -11c-14 -11 -28 -21 -43 -31c-10 -6 -20 -6 -31 -2c-7 2 -11 8 -13 15z" />
    <glyph glyph-name="idieresis" unicode="&#xef;" horiz-adv-x="240" 
d="M155 418h1c-1 -24 -5 -49 -1 -73c-2 -38 -3 -75 -4 -111c-1 -30 -1 -60 -1 -90c0 -39 1 -78 1 -117c0 -5 -2 -10 -3 -15c-6 -14 -6 -14 -20 -13c-17 0 -34 0 -52 1c-27 0 -45 18 -46 45c0 11 1 22 2 33c0 3 1 6 1 8c-5 27 4 53 3 80c-1 26 0 52 1 79v47c0 29 1 59 2 88
c0 24 -1 49 0 73c0 9 2 19 2 28c2 27 3 54 4 80c2 59 3 117 -4 176c-2 9 -3 19 -4 30c3 5 9 7 16 7c30 0 73 -1 103 -1c1 -23 -1 -44 -2 -67c1 -44 2 -88 2 -133c0 -23 -1 -46 -1 -69c-1 -25 -1 -51 -2 -77c0 -2 1 -5 2 -9zM55 893c16 1 29 -7 32 -18c6 -17 0 -32 -15 -41
c-9 -6 -20 -6 -31 -7c-2 0 -4 0 -4 1c-10 11 -23 18 -27 33c-4 14 4 27 18 29c9 2 18 2 27 3zM191 893c17 1 30 -7 33 -18c6 -17 0 -32 -15 -41c-9 -6 -20 -6 -31 -7c-2 0 -4 0 -5 1c-9 11 -22 18 -26 33c-4 14 4 27 18 29c9 2 18 2 26 3z" />
    <glyph glyph-name="ntilde" unicode="&#xf1;" horiz-adv-x="415" 
d="M104 503c-2 -2 -3 -2 -3 -3l-3 -69v-137c0 -47 -1 -93 0 -139c0 -32 1 -63 3 -95c1 -13 0 -26 -3 -39c0 -3 -2 -8 -5 -9c-15 -6 -31 -15 -49 -5c-9 6 -14 12 -14 21c1 16 3 31 3 46v52c-1 22 -1 44 -1 66c0 13 1 26 1 39c1 32 1 63 1 95c0 38 -2 76 1 113
c5 75 7 150 9 225c1 22 2 45 4 68c1 16 7 20 24 19c19 0 37 -4 54 -11c4 -2 9 -6 12 -11c18 -37 33 -76 53 -113c25 -48 53 -94 80 -141c11 -18 24 -34 31 -54c4 -9 12 -16 19 -26v34c0 25 1 51 0 76c0 23 -2 45 -2 68c0 34 1 68 0 103c0 24 -1 49 -3 74c0 6 2 11 9 13
c18 7 36 7 55 3c6 -2 8 -6 8 -12c-4 -59 1 -119 1 -178c1 -27 1 -55 2 -82c1 -26 3 -51 3 -77c-1 -30 -3 -60 -5 -90v-56c2 -57 4 -114 5 -171c1 -25 0 -51 -1 -77c0 -3 -2 -7 -3 -11c-20 -2 -40 -3 -59 1c-8 2 -12 7 -12 16v114c0 9 -2 19 -1 28c0 8 -3 14 -8 20
c-6 8 -10 18 -15 27c-7 12 -16 23 -25 34c-5 8 -11 15 -16 23c-8 12 -15 25 -24 38s-19 25 -28 38c-21 33 -41 67 -62 100c-8 13 -16 26 -24 38c-4 5 -8 10 -12 14zM379 939c5 -4 10 -8 14 -12c9 -8 11 -18 6 -29c-3 -7 -5 -14 -8 -21c-10 -25 -30 -38 -54 -46
c-23 -8 -47 -5 -70 -1c-15 2 -29 12 -43 20c-13 6 -24 15 -36 21c-16 8 -33 7 -49 -3c-14 -8 -28 -15 -37 -29c-5 -7 -13 -8 -23 -7c-13 1 -24 8 -37 9c-13 2 -14 6 -9 18c3 6 6 13 9 20c6 13 18 20 30 28c9 6 19 13 29 17c12 4 25 4 37 5c15 0 28 -5 42 -9
c32 -9 57 -31 86 -44c5 -2 8 -2 13 -1c11 4 23 6 34 10c15 7 26 18 32 33c6 14 16 18 29 20c1 1 3 1 5 1z" />
    <glyph glyph-name="ograve" unicode="&#xf2;" horiz-adv-x="444" 
d="M31 211v50c0 25 0 50 1 75c2 30 4 60 7 90c1 16 2 32 4 48c5 39 8 78 15 116c4 21 12 41 21 61c7 17 16 33 25 49c9 17 23 31 40 41c11 6 21 15 32 21c12 5 25 8 38 10c20 1 41 1 61 1c5 0 12 1 15 -6c0 -2 8 1 11 -1c6 -5 14 -6 22 -6c3 0 6 -3 9 -5c7 -6 12 -13 20 -17
c17 -10 28 -25 34 -42c9 -24 17 -49 22 -73c5 -23 5 -47 7 -71c3 -25 5 -50 6 -75c1 -29 4 -58 2 -87c-2 -21 0 -42 -1 -64c-2 -30 -5 -60 -7 -91c-2 -27 -10 -52 -15 -78c-4 -22 -13 -42 -24 -60c-15 -23 -31 -47 -51 -67c-17 -15 -37 -24 -60 -23c-12 1 -23 0 -34 -5
c-8 -4 -18 -4 -27 -1c-18 6 -35 11 -53 15c-17 4 -29 17 -45 24c-24 11 -32 36 -50 53c-8 7 -11 22 -14 34c-8 27 -14 55 -11 84zM237 58c5 5 11 10 15 15c13 17 20 36 26 56c12 33 12 66 16 99c3 24 3 47 4 71c1 13 2 25 3 37c2 37 6 73 4 109c-1 8 -2 16 -1 24
c2 60 -2 121 -7 182c-1 18 -4 37 -13 53c-9 15 -26 17 -36 4c-11 -13 -22 -27 -30 -42c-19 -34 -30 -71 -31 -111c-1 -35 0 -70 -6 -106c-7 -44 -11 -89 -8 -135c3 -43 2 -86 4 -129c2 -25 5 -50 10 -75c4 -16 10 -32 25 -41c8 -4 16 -7 25 -11zM262 828
c-11 -4 -21 -4 -31 2c-15 10 -29 20 -43 31c-4 3 -8 7 -11 11c-9 9 -16 19 -25 28c-8 8 -19 15 -28 23c-4 3 -5 10 -3 14c3 5 6 9 11 12c5 2 9 5 15 6c10 3 20 4 31 6c13 2 24 -2 35 -9l7 -7s2 -3 3 -5c17 -29 32 -59 51 -87c1 -2 1 -7 1 -10c-2 -7 -6 -13 -13 -15z" />
    <glyph glyph-name="oacute" unicode="&#xf3;" horiz-adv-x="444" 
d="M31 211v50c0 25 0 50 1 75c2 30 4 60 7 90c1 16 2 32 4 48c5 39 8 78 15 116c4 21 12 41 21 61c7 17 16 33 25 49c9 17 23 31 40 41c11 6 21 15 32 21c12 5 25 8 38 10c20 1 41 1 61 1c5 0 12 1 15 -6c0 -2 8 1 11 -1c6 -5 14 -6 22 -6c3 0 6 -3 9 -5c7 -6 12 -13 20 -17
c17 -10 28 -25 34 -42c9 -24 17 -49 22 -73c5 -23 5 -47 7 -71c3 -25 5 -50 6 -75c1 -29 4 -58 2 -87c-2 -21 0 -42 -1 -64c-2 -30 -5 -60 -7 -91c-2 -27 -10 -52 -15 -78c-4 -22 -13 -42 -24 -60c-15 -23 -31 -47 -51 -67c-17 -15 -37 -24 -60 -23c-12 1 -23 0 -34 -5
c-8 -4 -18 -4 -27 -1c-18 6 -35 11 -53 15c-17 4 -29 17 -45 24c-24 11 -32 36 -50 53c-8 7 -11 22 -14 34c-8 27 -14 55 -11 84zM237 58c5 5 11 10 15 15c13 17 20 36 26 56c12 33 12 66 16 99c3 24 3 47 4 71c1 13 2 25 3 37c2 37 6 73 4 109c-1 8 -2 16 -1 24
c2 60 -2 121 -7 182c-1 18 -4 37 -13 53c-9 15 -26 17 -36 4c-11 -13 -22 -27 -30 -42c-19 -34 -30 -71 -31 -111c-1 -35 0 -70 -6 -106c-7 -44 -11 -89 -8 -135c3 -43 2 -86 4 -129c2 -25 5 -50 10 -75c4 -16 10 -32 25 -41c8 -4 16 -7 25 -11zM210 845c0 3 0 8 1 10
c19 28 34 58 51 87c1 2 1 3 3 5l7 7c11 7 22 11 35 9c11 -2 21 -3 31 -6c6 -1 10 -4 15 -6c5 -3 8 -7 11 -12c2 -4 1 -11 -3 -14c-9 -8 -20 -15 -28 -23c-9 -9 -16 -19 -25 -28c-3 -4 -7 -8 -11 -11c-14 -11 -28 -21 -43 -31c-10 -6 -20 -6 -31 -2c-7 2 -11 8 -13 15z" />
    <glyph glyph-name="ocircumflex" unicode="&#xf4;" horiz-adv-x="444" 
d="M31 211v50c0 25 0 50 1 75c2 30 4 60 7 90c1 16 2 32 4 48c5 39 8 78 15 116c4 21 12 41 21 61c7 17 16 33 25 49c9 17 23 31 40 41c11 6 21 15 32 21c12 5 25 8 38 10c20 1 41 1 61 1c5 0 12 1 15 -6c0 -2 8 1 11 -1c6 -5 14 -6 22 -6c3 0 6 -3 9 -5c7 -6 12 -13 20 -17
c17 -10 28 -25 34 -42c9 -24 17 -49 22 -73c5 -23 5 -47 7 -71c3 -25 5 -50 6 -75c1 -29 4 -58 2 -87c-2 -21 0 -42 -1 -64c-2 -30 -5 -60 -7 -91c-2 -27 -10 -52 -15 -78c-4 -22 -13 -42 -24 -60c-15 -23 -31 -47 -51 -67c-17 -15 -37 -24 -60 -23c-12 1 -23 0 -34 -5
c-8 -4 -18 -4 -27 -1c-18 6 -35 11 -53 15c-17 4 -29 17 -45 24c-24 11 -32 36 -50 53c-8 7 -11 22 -14 34c-8 27 -14 55 -11 84zM237 58c5 5 11 10 15 15c13 17 20 36 26 56c12 33 12 66 16 99c3 24 3 47 4 71c1 13 2 25 3 37c2 37 6 73 4 109c-1 8 -2 16 -1 24
c2 60 -2 121 -7 182c-1 18 -4 37 -13 53c-9 15 -26 17 -36 4c-11 -13 -22 -27 -30 -42c-19 -34 -30 -71 -31 -111c-1 -35 0 -70 -6 -106c-7 -44 -11 -89 -8 -135c3 -43 2 -86 4 -129c2 -25 5 -50 10 -75c4 -16 10 -32 25 -41c8 -4 16 -7 25 -11zM391 828
c-11 -4 -21 -4 -31 2c-15 10 -29 20 -43 31c-4 3 -8 7 -11 11c-9 9 -16 19 -25 28c-8 8 -19 15 -28 23c-4 3 -5 10 -3 14c3 5 6 9 11 12c5 2 9 5 15 6c10 3 20 4 31 6c13 2 24 -2 35 -9l7 -7s2 -3 3 -5c17 -29 32 -59 51 -87c1 -2 1 -7 1 -10c-2 -7 -6 -13 -13 -15zM80 845
c0 3 0 8 1 10c19 28 34 58 51 87c1 2 1 3 3 5l7 7c11 7 22 11 35 9c11 -2 21 -3 31 -6c6 -1 10 -4 15 -6c5 -3 8 -7 11 -12c2 -4 1 -11 -3 -14c-9 -8 -20 -15 -28 -23c-9 -9 -16 -19 -25 -28c-3 -4 -7 -8 -11 -11c-14 -11 -28 -21 -43 -31c-10 -6 -20 -6 -31 -2
c-7 2 -11 8 -13 15z" />
    <glyph glyph-name="otilde" unicode="&#xf5;" horiz-adv-x="833" 
d="M31 211v50c0 25 0 50 1 75c2 30 4 60 7 90c1 16 2 32 4 48c5 39 8 78 15 116c4 21 12 41 21 61c7 17 16 33 25 49c9 17 23 31 40 41c11 6 21 15 32 21c12 5 25 8 38 10c20 1 41 1 61 1c5 0 12 1 15 -6c0 -2 8 1 11 -1c6 -5 14 -6 22 -6c3 0 6 -3 9 -5c7 -6 12 -13 20 -17
c17 -10 28 -25 34 -42c9 -24 17 -49 22 -73c5 -23 5 -47 7 -71c3 -25 5 -50 6 -75c1 -29 4 -58 2 -87c-2 -21 0 -42 -1 -64c-2 -30 -5 -60 -7 -91c-2 -27 -10 -52 -15 -78c-4 -22 -13 -42 -24 -60c-15 -23 -31 -47 -51 -67c-17 -15 -37 -24 -60 -23c-12 1 -23 0 -34 -5
c-8 -4 -18 -4 -27 -1c-18 6 -35 11 -53 15c-17 4 -29 17 -45 24c-24 11 -32 36 -50 53c-8 7 -11 22 -14 34c-8 27 -14 55 -11 84zM237 58c5 5 11 10 15 15c13 17 20 36 26 56c12 33 12 66 16 99c3 24 3 47 4 71c1 13 2 25 3 37c2 37 6 73 4 109c-1 8 -2 16 -1 24
c2 60 -2 121 -7 182c-1 18 -4 37 -13 53c-9 15 -26 17 -36 4c-11 -13 -22 -27 -30 -42c-19 -34 -30 -71 -31 -111c-1 -35 0 -70 -6 -106c-7 -44 -11 -89 -8 -135c3 -43 2 -86 4 -129c2 -25 5 -50 10 -75c4 -16 10 -32 25 -41c8 -4 16 -7 25 -11zM419 939c5 -4 10 -8 14 -12
c9 -8 11 -18 6 -29c-3 -7 -5 -14 -8 -21c-10 -25 -30 -38 -54 -46c-23 -8 -47 -5 -70 -1c-15 2 -29 12 -43 20c-13 6 -24 15 -36 21c-16 8 -33 7 -49 -3c-14 -8 -28 -15 -37 -29c-5 -7 -13 -8 -23 -7c-13 1 -24 8 -37 9c-13 2 -14 6 -9 18c3 6 6 13 9 20c6 13 18 20 30 28
c9 6 19 13 29 17c12 4 25 4 37 5c15 0 28 -5 42 -9c32 -9 57 -31 86 -44c5 -2 8 -2 13 -1c11 4 23 6 34 10c15 7 26 18 32 33c6 14 16 18 29 20c1 1 3 1 5 1z" />
    </font>
</defs>
</svg>
